<svg width="13" height="23" viewBox="0 0 13 23" fill="none" xmlns="http://www.w3.org/2000/svg">
<path d="M11.6371 0.939636L8.8598 0.935059C5.73964 0.935059 3.72325 3.06015 3.72325 6.34929V8.84561H0.930838C0.689541 8.84561 0.494141 9.04656 0.494141 9.29443V12.9113C0.494141 13.1592 0.689764 13.3599 0.930838 13.3599H3.72325V22.4865C3.72325 22.7343 3.91865 22.9351 4.15995 22.9351H7.80326C8.04455 22.9351 8.23995 22.7341 8.23995 22.4865V13.3599H11.5049C11.7462 13.3599 11.9416 13.1592 11.9416 12.9113L11.943 9.29443C11.943 9.17542 11.8968 9.06144 11.8151 8.97721C11.7333 8.89299 11.6219 8.84561 11.506 8.84561H8.23995V6.72945C8.23995 5.71233 8.4759 5.196 9.76572 5.196L11.6366 5.19531C11.8777 5.19531 12.0731 4.99436 12.0731 4.74672V1.38823C12.0731 1.14082 11.8779 0.940094 11.6371 0.939636Z" fill="#251E1E"/>
</svg>
