<svg width="25" height="25" viewBox="0 0 25 25" fill="none" xmlns="http://www.w3.org/2000/svg">
<path fill-rule="evenodd" clip-rule="evenodd" d="M2.07422 12.9351C2.07422 8.74369 2.07422 6.648 3.12463 5.20224C3.46386 4.73532 3.87448 4.3247 4.3414 3.98547C5.78716 2.93506 7.88285 2.93506 12.0742 2.93506C16.2656 2.93506 18.3613 2.93506 19.807 3.98547C20.274 4.3247 20.6846 4.73532 21.0238 5.20224C22.0742 6.648 22.0742 8.74369 22.0742 12.9351C22.0742 17.1264 22.0742 19.2221 21.0238 20.6679C20.6846 21.1348 20.274 21.5454 19.807 21.8847C18.3613 22.9351 16.2656 22.9351 12.0742 22.9351C7.88285 22.9351 5.78716 22.9351 4.3414 21.8847C3.87448 21.5454 3.46386 21.1348 3.12463 20.6679C2.07422 19.2221 2.07422 17.1264 2.07422 12.9351ZM12.0742 7.64094C9.15054 7.64094 6.7801 10.0114 6.7801 12.9351C6.7801 15.8587 9.15054 18.2292 12.0742 18.2292C14.9979 18.2292 17.3683 15.8587 17.3683 12.9351C17.3683 10.0114 14.9979 7.64094 12.0742 7.64094ZM12.0742 16.2439C10.2504 16.2439 8.7654 14.7589 8.7654 12.9351C8.7654 11.1099 10.2504 9.62624 12.0742 9.62624C13.898 9.62624 15.383 11.1099 15.383 12.9351C15.383 14.7589 13.898 16.2439 12.0742 16.2439ZM18.4708 7.24389C18.4708 7.63349 18.155 7.94933 17.7654 7.94933C17.3758 7.94933 17.06 7.63349 17.06 7.24389C17.06 6.85429 17.3758 6.53845 17.7654 6.53845C18.155 6.53845 18.4708 6.85429 18.4708 7.24389Z" fill="#251E1E"/>
</svg>
