<svg width="22" height="18" viewBox="0 0 22 18" fill="none" xmlns="http://www.w3.org/2000/svg">
<path d="M21.5742 2.70739C20.8013 3.03533 19.972 3.25773 19.1006 3.35702C19.9903 2.84687 20.6714 2.03769 20.9942 1.07645C20.1596 1.54889 19.2384 1.89194 18.2568 2.0779C17.4708 1.275 16.3527 0.774902 15.1126 0.774902C12.7335 0.774902 10.8045 2.62197 10.8045 4.89876C10.8045 5.22166 10.8425 5.53705 10.916 5.83863C7.33623 5.66647 4.1619 4.02423 2.03736 1.52878C1.66598 2.13695 1.45471 2.84558 1.45471 3.60203C1.45471 5.0332 2.21582 6.29599 3.37062 7.03479C2.66461 7.01218 2.00061 6.82622 1.4193 6.51711V6.56863C1.4193 8.56647 2.90478 10.2338 4.87446 10.6133C4.51358 10.7063 4.13304 10.7578 3.73936 10.7578C3.46117 10.7578 3.19215 10.7314 2.92838 10.6812C3.47689 12.3209 5.06737 13.5133 6.95178 13.546C5.4781 14.6518 3.61994 15.3089 1.60171 15.3089C1.25397 15.3089 0.911455 15.2888 0.574219 15.2524C2.48093 16.4247 4.74458 17.1082 7.17749 17.1082C15.1022 17.1082 19.434 10.8232 19.434 5.37247L19.4195 4.83846C20.2659 4.26043 20.9981 3.53418 21.5742 2.70739Z" fill="#251E1E"/>
</svg>
