<svg width="106" height="106" viewBox="0 0 106 106" fill="none" xmlns="http://www.w3.org/2000/svg">
<path d="M105.127 52.9995C105.127 24.2103 81.7892 0.87207 53.0001 0.87207C24.2109 0.87207 0.872681 24.2103 0.872681 52.9995C0.872681 81.7886 24.2109 105.127 53.0001 105.127C81.7892 105.127 105.127 81.7886 105.127 52.9995Z" fill="#FAC734"/>
<path d="M52.8767 101.236C79.5857 101.236 101.238 79.5843 101.238 52.8754C101.238 26.1665 79.5857 4.51465 52.8767 4.51465C26.1678 4.51465 4.51599 26.1665 4.51599 52.8754C4.51599 79.5843 26.1678 101.236 52.8767 101.236Z" fill="#FFF5D0" stroke="white" stroke-width="2.17"/>
<path d="M73.9406 72.2113C71.8891 71.7965 69.9273 71.3257 68.2906 71.0006L65.5441 70.3953L65.8692 67.5927C65.8692 67.4582 65.9141 67.3237 65.9141 67.1779C65.9236 66.5864 65.813 65.9991 65.589 65.4516L64.9388 63.9606L65.8244 62.5705C66.3401 61.7298 66.5643 60.7881 66.5643 59.7232C66.5643 58.6021 66.2392 57.6269 65.6338 56.7861L64.5689 55.3288L65.2639 53.6584C65.5441 53.0083 65.6787 52.3132 65.6787 51.607C65.6787 50.6317 65.6787 47.6834 61.0713 45.9234C59.6536 45.4648 58.1776 45.2118 56.6881 45.1723L51.6996 44.8472L54.0761 40.5089C55.9819 37.0562 57.058 33.9397 57.058 31.7425C57.058 29.7359 56.4078 27.9647 54.9169 27.3706C49.7378 25.1285 46.0608 28.6149 43.4376 32.9084C41.1862 36.5827 39.088 40.3488 37.1487 44.1971C33.7408 51.3716 28.7075 56.5507 28.7075 63.7252C28.7075 70.2607 33.0906 75.3838 41.1059 78.0967C50.9485 81.4037 65.6338 82.2893 72.0236 82.2893C76.5974 82.2893 79.1085 80.518 79.1085 77.2447C79.1085 73.848 75.8912 72.6373 73.9406 72.2225V72.2113Z" fill="#FFD338"/>
<path d="M71.8892 69.3329L62.0018 67.1806C62.7865 66.6201 63.6273 65.4542 63.6273 64.0081C63.6273 62.3266 62.7417 61.3513 62.0467 60.8468C62.7337 60.3736 63.2936 59.7384 63.6768 58.9974C64.06 58.2563 64.2548 57.4323 64.2439 56.5981C64.2439 54.1319 62.5623 52.8652 61.6655 52.2598C62.1876 51.7773 62.606 51.1935 62.8951 50.544C63.1842 49.8944 63.338 49.1929 63.347 48.482C63.347 45.2647 60.8808 43.8185 58.8742 43.0338C57.2487 42.4285 54.1659 42.1931 51.4642 42.1931C47.0362 42.1931 43.023 42.5182 41.106 42.5182C38.8304 42.5182 39.1106 41.3523 39.9402 40.2761C40.4558 39.6708 46.9353 31.1398 48.1572 29.604C48.9868 28.483 49.9733 27.4068 50.7132 27.8328C51.5091 28.2476 51.184 30.2094 50.3432 32.3505C49.0877 35.7136 47.3165 37.8547 46.8905 38.6058L49.8724 40.4218C51.0382 38.9645 54.8161 32.6868 54.8161 28.6175C54.8161 26.8015 54.1211 25.2657 52.7646 24.4249C52.0521 24.0341 51.2464 23.8452 50.4344 23.8788C49.6224 23.9124 48.835 24.1671 48.1572 24.6155C47.0237 25.2994 46.0245 26.1846 45.209 27.2275C42.8772 30.2094 37.9447 36.4534 36.1287 38.7852C33.5055 42.1931 34.7274 46.3857 40.2765 46.3857C42.227 46.3857 48.6169 45.9261 51.0943 45.9261C53.9305 45.9261 55.3318 46.0606 56.307 46.2063C58.1791 46.4866 59.2441 47.3273 59.2441 48.4483C59.2441 49.2331 58.8742 49.7936 58.224 50.2532C57.5738 50.724 56.9684 51.419 56.9684 52.4055C56.9684 53.5714 58.0334 54.031 58.7397 54.5018C59.6701 55.1072 60.2306 55.522 60.2306 56.5085C60.2306 57.3941 59.5804 57.9097 58.8293 58.459C58.224 58.9299 57.4281 59.4455 57.4281 60.5105C57.4281 61.497 58.1343 61.9678 58.5939 62.3378C59.0647 62.7077 59.5804 63.1225 59.5804 63.9184C59.5804 64.7031 59.1993 65.0843 58.2688 65.6448C57.5289 66.0596 56.4528 66.8555 56.4528 67.9765C56.4528 69.232 57.3384 69.7925 58.4146 70.0728C60.9705 70.6782 68.6158 72.3148 71.2278 72.9202C72.0686 73.1108 72.9093 73.3798 72.9093 74.086C72.9093 74.7811 71.7883 75.1062 70.2077 75.1062C64.7147 75.1062 49.4128 73.9852 40.411 70.8687C34.3014 68.8173 30.9496 65.0394 30.9496 60.5105C30.9496 56.5981 33.5616 53.1118 36.3977 51.094L33.8418 48.482C29.7389 51.3294 26.9363 55.8583 26.9363 60.6114C26.9363 66.1044 30.1985 71.7095 39.2003 74.7362C48.7626 77.9536 63.2574 78.9288 70.0283 78.9288C74.6357 78.9288 76.8665 77.0231 76.8665 74.1309C76.8329 71.3844 74.5909 69.8934 71.8892 69.3329Z" fill="#222222"/>
</svg>
