<svg width="18" height="16" viewBox="0 0 18 16" fill="none" xmlns="http://www.w3.org/2000/svg">
<path d="M7.614 1.92482L3.528 6.82982H16.875C17.1734 6.82982 17.4595 6.94835 17.6705 7.15933C17.8815 7.37031 18 7.65646 18 7.95482C18 8.25319 17.8815 8.53934 17.6705 8.75032C17.4595 8.9613 17.1734 9.07982 16.875 9.07982H3.5262L7.614 13.9848C7.71277 14.0977 7.78797 14.2292 7.83516 14.3716C7.88235 14.514 7.90059 14.6644 7.88881 14.814C7.87702 14.9635 7.83544 15.1092 7.76652 15.2424C7.6976 15.3757 7.60273 15.4938 7.48749 15.5898C7.37225 15.6858 7.23897 15.7579 7.09549 15.8016C6.952 15.8454 6.80121 15.86 6.65199 15.8446C6.50278 15.8293 6.35814 15.7842 6.22659 15.7121C6.09504 15.64 5.97924 15.5423 5.886 15.4248L0.261 8.67482C0.2304 8.63882 0.2106 8.59742 0.189 8.55782C0.172586 8.52281 0.154567 8.48858 0.135 8.45522C0.1152 8.42642 0.0954 8.39582 0.081 8.36162C0.0297097 8.23333 0.00284859 8.09658 0.0018 7.95842V7.95662L0 7.95482V7.95122C0 7.81262 0.0306 7.67762 0.0828 7.54802C0.0954 7.51202 0.1152 7.48322 0.1332 7.45442L0.162 7.40762L0.1908 7.35362C0.2106 7.31222 0.2304 7.27082 0.261 7.23482L5.886 0.484824C5.97924 0.367312 6.09504 0.269634 6.22659 0.197536C6.35814 0.125439 6.50278 0.0803783 6.65199 0.0650053C6.80121 0.0496322 6.952 0.0642572 7.09549 0.10802C7.23897 0.151783 7.37225 0.223799 7.48749 0.319833C7.60273 0.415867 7.6976 0.533978 7.76652 0.667218C7.83544 0.800458 7.87702 0.946137 7.88881 1.09568C7.90059 1.24523 7.88235 1.39562 7.83516 1.53801C7.78797 1.68041 7.71277 1.81192 7.614 1.92482Z" fill="black"/>
</svg>
