<svg width="18" height="16" viewBox="0 0 18 16" fill="none" xmlns="http://www.w3.org/2000/svg">
<path d="M10.386 14.0752L14.472 9.17018L1.125 9.17018C0.826632 9.17018 0.540482 9.05165 0.329504 8.84067C0.118526 8.62969 0 8.34354 0 8.04518C0 7.74681 0.118526 7.46066 0.329504 7.24968C0.540482 7.0387 0.826632 6.92018 1.125 6.92018L14.4738 6.92018L10.386 2.01518C10.2872 1.90227 10.212 1.77076 10.1648 1.62837C10.1176 1.48597 10.0994 1.33558 10.1112 1.18603C10.123 1.03649 10.1646 0.89081 10.2335 0.75757C10.3024 0.62433 10.3973 0.506219 10.5125 0.410185C10.6277 0.314152 10.761 0.242136 10.9045 0.198373C11.048 0.15461 11.1988 0.139984 11.348 0.155357C11.4972 0.170731 11.6419 0.215792 11.7734 0.287889C11.905 0.359987 12.0208 0.457664 12.114 0.575176L17.739 7.32518C17.7696 7.36118 17.7894 7.40258 17.811 7.44218C17.8274 7.47719 17.8454 7.51142 17.865 7.54478C17.8848 7.57358 17.9046 7.60418 17.919 7.63838C17.9703 7.76667 17.9972 7.90342 17.9982 8.04158V8.04338L18 8.04518V8.04878C18 8.18738 17.9694 8.32238 17.9172 8.45198C17.9046 8.48798 17.8848 8.51678 17.8668 8.54558L17.838 8.59238L17.8092 8.64638C17.7894 8.68778 17.7696 8.72918 17.739 8.76518L12.114 15.5152C12.0208 15.6327 11.905 15.7304 11.7734 15.8025C11.6419 15.8746 11.4972 15.9196 11.348 15.935C11.1988 15.9504 11.048 15.9357 10.9045 15.892C10.761 15.8482 10.6277 15.7762 10.5125 15.6802C10.3973 15.5841 10.3024 15.466 10.2335 15.3328C10.1646 15.1995 10.123 15.0539 10.1112 14.9043C10.0994 14.7548 10.1176 14.6044 10.1648 14.462C10.212 14.3196 10.2872 14.1881 10.386 14.0752Z" fill="black"/>
</svg>
