<svg width="25" height="23" viewBox="0 0 25 23" fill="none" xmlns="http://www.w3.org/2000/svg">
<path fill-rule="evenodd" clip-rule="evenodd" d="M23.0201 7.72014C23.0201 14.8401 17.4201 22.3201 7.76006 22.3201C5.52676 22.3207 3.32327 21.8074 1.32006 20.8201C0.800056 20.5801 0.940056 19.8201 1.52006 19.7001C4.04006 19.3001 6.32006 18.3001 7.46006 16.6401C0.780056 12.7601 0.900056 6.00014 1.26006 3.24014C1.34006 2.74014 1.94006 2.54014 2.26006 2.90014C4.78006 5.82014 7.86005 7.92014 12.3201 7.62014C11.9201 5.74014 12.4801 3.78014 13.8401 2.46014C14.3375 1.97445 14.928 1.59429 15.576 1.34249C16.2241 1.09069 16.9163 0.972455 17.6112 0.99487C18.3061 1.01729 18.9893 1.17989 19.6197 1.47293C20.2502 1.76597 20.8149 2.18339 21.2801 2.70014C21.8001 3.30014 22.9801 3.74014 24.1601 3.20014C24.6201 3.00014 25.1001 3.40014 24.9801 3.88014C24.5401 5.72014 23.6601 6.84014 23.2401 7.38014C23.1001 7.56014 23.0201 7.66014 23.0201 7.72014Z" fill="black"/>
</svg>
