<svg width="266" height="30" viewBox="0 0 266 30" fill="none" xmlns="http://www.w3.org/2000/svg">
<path fill-rule="evenodd" clip-rule="evenodd" d="M252.67 0.571805C252.67 0.953623 252.511 1.25362 252.313 1.25362C252.114 1.25362 251.946 1.0218 251.946 0.708168C251.946 0.367259 250.377 0.203623 247.579 0.258168C244.651 0.312714 243.211 0.530896 243.211 0.939987C243.211 1.26726 243.053 1.18544 242.874 0.762714C242.636 0.230896 242.397 0.162714 242.06 0.530896C241.792 0.817259 240.432 1.1309 239.023 1.21271C237.633 1.30817 236.403 1.52635 236.293 1.71726C236.194 1.90817 234.725 2.12635 233.018 2.20817C231.321 2.27635 229.683 2.4809 229.385 2.64453C229.088 2.80817 227.936 3.02635 226.834 3.1218C225.743 3.21726 224.343 3.40817 223.738 3.5309C222.031 3.91271 219.192 4.4309 217.028 4.75817C215.936 4.9218 214.924 5.16726 214.785 5.30362C214.636 5.42635 213.594 5.64453 212.463 5.7809C211.641 5.83625 210.827 6.03325 210.041 6.36726C209.842 6.55817 208.909 6.80362 207.976 6.91271C207.033 7.04908 205.862 7.2809 205.366 7.45817C204.87 7.63544 203.877 7.86726 203.182 7.96271C199.053 8.57635 197.842 8.80817 197.356 9.09453C197.058 9.2718 196.681 9.47635 196.532 9.5309C196.383 9.59908 196.225 9.70817 196.175 9.77635C196.125 9.84453 195.421 9.95362 194.617 10.0218C193.823 10.1036 192.175 10.3491 190.974 10.5809C189.783 10.8127 188.145 11.0582 187.341 11.1264C184.731 11.3309 181.188 11.9718 180.83 12.3127C180.632 12.49 177.724 12.5854 174.359 12.5173C169.615 12.4354 168.235 12.5718 168.235 13.09C168.235 13.6354 168.166 13.6354 167.937 13.09C167.64 12.4082 162.578 12.0127 162.161 12.64C162.062 12.7764 161.595 12.6945 161.119 12.4218C160.563 12.1218 160.176 12.1491 160.027 12.5173C159.858 12.8991 159.679 12.8582 159.491 12.3945C159.263 11.8764 159.074 11.8491 158.687 12.3264C158.349 12.7354 158.062 12.7764 157.813 12.4082C157.377 11.7809 156.196 11.4945 151.312 10.8536C148.998 10.5232 146.693 10.0683 144.404 9.48999C142.598 9.01271 140.633 8.53544 140.037 8.41271C138.264 8.08899 136.502 7.65674 134.757 7.11726C133.655 6.78999 131.779 6.43544 130.568 6.32635C129.638 6.28019 128.714 6.1066 127.809 5.80817C127.482 5.61726 127.075 5.5218 126.896 5.58999C126.717 5.64453 126.161 5.54908 125.655 5.35817C125.159 5.16726 124.008 4.89453 123.114 4.75817C122.211 4.6218 119.998 4.23999 118.201 3.93999L113.646 3.13544C113.217 3.08763 112.792 2.99186 112.375 2.84908C112.375 2.43999 110.122 2.6718 109.924 3.09453C109.745 3.47635 109.656 3.44908 109.646 2.99908C109.646 2.54908 108.852 2.34453 107.005 2.34453C105.556 2.34453 103.452 2.15362 102.341 1.90817C100.107 1.4309 94.956 1.52635 94.3705 2.04453C94.162 2.23544 93.9933 2.13999 93.9933 1.81271C93.9933 1.45817 93.626 1.38999 93.0007 1.6218C92.4449 1.82635 91.6608 1.93544 91.2638 1.86726C90.2316 1.67635 90.4995 1.67635 82.8967 2.0309C75.7306 2.35817 75.2542 2.42635 72.5247 3.28544C71.6215 3.57181 70.6389 3.8309 70.3411 3.8309C67.562 3.96726 62.5795 4.86726 56.8724 6.28544C56.3761 6.4218 54.8377 6.77635 53.4481 7.10362C52.0685 7.4309 50.6393 7.9218 50.272 8.22181C49.8949 8.5218 49.5872 8.56271 49.5872 8.3309C49.5872 8.09908 49.4284 8.27635 49.2299 8.71271C48.9718 9.29908 48.8725 9.32635 48.8725 8.80817C48.8725 8.12635 47.4135 8.09908 47.0463 8.79453C46.947 8.9718 45.9545 9.2718 44.8627 9.43544C42.7387 9.74908 35.9497 11.6854 35.4832 12.0945C35.3343 12.2309 34.3021 12.49 33.2004 12.6673C32.0887 12.8445 30.6992 13.1854 30.1037 13.4309C29.5081 13.6764 28.8233 13.7718 28.5752 13.6491C28.327 13.5127 28.1186 13.69 28.1186 14.0173C28.1186 14.3582 27.9499 14.4809 27.7414 14.29C27.533 14.0991 27.1658 14.1809 26.9176 14.4673C26.6794 14.74 25.8258 15.1218 25.0318 15.2854C24.2278 15.4354 22.9971 15.79 22.3023 16.0491L20.754 16.6218L19.3644 17.0445C18.7391 17.2354 18.1535 17.6854 18.0543 18.0536C17.955 18.4627 17.4984 18.64 16.9922 18.5036C16.1485 18.4932 15.3173 18.7846 14.5804 19.3491C13.7467 19.9354 12.7243 20.4264 12.3075 20.44C11.3149 20.44 10.2926 21.4627 10.9179 21.8309C11.176 21.9809 11.3745 22.3354 11.3745 22.6082C11.3745 22.9218 11.1363 22.9354 10.7393 22.6354C9.94523 22.0491 8.27777 22.3627 7.24553 23.3173C6.81874 23.6991 5.98501 24.1763 5.39941 24.3809C4.81382 24.5854 3.29523 25.4582 2.03471 26.3173C-0.0793931 27.7627 -0.228274 27.9673 0.188592 28.9491C0.436726 29.5218 0.754338 29.9991 0.893293 29.9991C1.44911 29.9991 3.0074 28.7445 3.0074 28.2809C3.0074 28.0218 3.17613 27.9673 3.38456 28.1445C3.59299 28.3354 4.00986 28.1991 4.2977 27.8582C4.59546 27.5036 4.82374 27.3536 4.82374 27.5309C4.82374 27.7082 5.68725 27.3536 6.73934 26.7536C8.32707 25.8749 9.93589 25.0699 11.5631 24.34L16.1089 22.2945C17.0022 21.8854 18.491 21.3945 19.3843 21.2036C20.2775 20.9991 21.677 20.5218 22.481 20.1536C23.275 19.7718 24.5355 19.3218 25.2799 19.1309C26.3816 18.8582 26.6496 18.5309 26.7687 17.3445L26.9176 15.8991L26.9772 17.29L27.0268 18.6809L29.6669 17.9582L35.2252 16.4036C36.8132 15.9536 38.6196 15.49 39.2251 15.3673C40.7933 15.0536 43.7113 14.1945 45.4483 13.5536C46.9569 12.9945 48.8825 12.5036 50.8675 12.19C51.4631 12.0945 53.0213 11.7264 54.3216 11.3718C55.6218 11.0173 56.9319 10.7309 57.2396 10.7309C57.5374 10.7309 59.6614 10.3082 61.9641 9.77635C65.8449 8.86271 66.9268 8.65817 71.4329 7.9218L74.5197 7.40362C76.3559 7.10362 83.3235 6.48999 86.0331 6.39453C87.5021 6.33999 88.0281 6.1218 87.8991 5.65817C87.7999 5.28999 87.909 4.98999 88.1373 4.98999C88.3557 4.98999 88.5343 5.19453 88.5343 5.43999C88.5343 5.91726 88.5939 5.9309 91.1745 6.39453C92.4052 6.61271 92.9015 6.50362 92.9015 6.03999C92.9015 5.60362 93.0504 5.56271 93.3581 5.90362C93.6062 6.17635 96.7625 6.44908 100.365 6.51726C107.849 6.65362 109.318 6.76271 109.844 7.23999C110.053 7.4309 110.708 7.51271 111.293 7.40362C111.879 7.3218 112.732 7.44453 113.179 7.70362C113.646 7.94908 114.797 8.27635 115.74 8.41271C118.41 8.82181 125.625 10.1854 132.573 11.59C133.069 11.6854 134.459 12.0264 135.67 12.3536C140.384 13.5945 142.578 13.8945 143.035 13.3764C143.342 13.0082 143.491 13.0354 143.491 13.4445C143.491 13.7718 143.908 14.0309 144.404 14.0309C144.901 14.0309 145.655 14.3309 146.052 14.7127C146.647 15.2445 146.846 15.2309 147.094 14.6445C147.273 14.2218 147.461 14.14 147.541 14.4673C147.62 14.7673 148.414 15.1491 149.317 15.3264L153.684 16.1854C163.61 18.1354 183.262 17.8491 192.264 15.64C193.356 15.3673 195.242 14.9991 196.443 14.8218C197.644 14.6445 199.619 14.1673 200.81 13.7718C202.669 13.2184 204.543 12.7681 206.428 12.4218C209.232 11.9145 212.031 11.3554 214.825 10.7445C216.522 10.4036 218.001 9.9809 218.1 9.81726C218.199 9.65362 219.093 9.48999 220.105 9.44908C221.098 9.40817 223.887 8.95817 226.289 8.43999C228.691 7.9218 230.944 7.48544 231.291 7.45817C231.638 7.44453 231.926 7.1309 231.926 6.77635C231.934 6.57628 231.973 6.38091 232.042 6.20415C232.11 6.02738 232.206 5.87356 232.323 5.75362C232.601 5.50817 232.661 5.75362 232.502 6.44908C232.284 7.44453 232.373 7.48544 233.882 7.07635C234.765 6.84453 237.187 6.50362 239.261 6.33999C241.335 6.17635 244.015 5.90362 245.216 5.75362C249.722 5.15362 253.871 4.96271 260.462 5.04453L263.34 5.08544L264.7 2.76726C265.454 1.51271 266.04 0.421805 265.99 0.353623C265.782 0.0127139 260.63 -0.096377 260.482 0.244532C260.382 0.47635 259.906 0.558168 259.41 0.421805C258.913 0.285441 257.206 0.121805 255.598 0.0399866C253.395 -0.0827407 252.67 0.053623 252.67 0.585441V0.571805ZM142.806 12.5718C142.449 13.1036 142.409 13.0491 142.608 12.2854C142.737 11.7536 142.945 11.4673 143.054 11.6309C143.174 11.7945 143.054 12.2173 142.806 12.5854V12.5718Z" fill="#FFD338"/>
</svg>
