<svg width="28" height="32" viewBox="0 0 28 32" fill="none" xmlns="http://www.w3.org/2000/svg">
<path d="M28 32C28 32 23.286 30.145 19.473 28.66H3.437C1.54 28.66 0 27.026 0 25.013V3.644C0 1.633 1.54 0 3.437 0H24.562C26.46 0 27.999 1.632 27.999 3.645V22.049H28V32ZM23.861 20.018C23.7861 19.9219 23.6921 19.8423 23.5848 19.7844C23.4776 19.7266 23.3595 19.6916 23.2381 19.6817C23.1166 19.6718 22.9944 19.6873 22.8792 19.7271C22.7641 19.7669 22.6584 19.8302 22.569 19.913C22.539 19.939 19.554 22.594 13.999 22.594C8.513 22.594 5.482 19.958 5.428 19.91C5.33847 19.8277 5.23285 19.7648 5.1178 19.7253C5.00275 19.6859 4.88076 19.6707 4.75954 19.6807C4.63833 19.6908 4.52051 19.7258 4.41353 19.7837C4.30655 19.8416 4.21274 19.921 4.138 20.017C3.97793 20.2167 3.89965 20.4698 3.919 20.725C3.9359 20.9789 4.04975 21.2167 4.237 21.389C4.379 21.517 7.774 24.539 13.999 24.539C20.225 24.539 23.62 21.517 23.762 21.389C23.9489 21.2165 24.0624 20.9788 24.079 20.725C24.0984 20.4702 24.0205 20.2176 23.861 20.018Z" fill="black"/>
</svg>
