<svg width="415" height="52" viewBox="0 0 415 52" fill="none" xmlns="http://www.w3.org/2000/svg">
<path fill-rule="evenodd" clip-rule="evenodd" d="M204.228 0.373685C204.114 0.560885 202.062 0.935285 199.667 1.20568C195.859 1.62168 190.695 3.28568 188.323 4.86648C187.913 5.13688 187.024 5.46969 186.328 5.61528C184.094 6.05208 182.11 7.09208 181.768 8.00729C181.54 8.58969 181.186 8.52729 180.685 7.82009C180.263 7.23769 179.818 7.11289 179.659 7.54969C179.419 8.23609 174.699 9.85849 173.798 9.56729C173.616 9.52569 173.228 9.98328 172.932 10.6073C172.59 11.2937 171.655 11.6057 170.424 11.3977C169.363 11.1897 168.337 11.4601 168.166 11.9385C167.984 12.4377 167.311 12.8329 166.65 12.8329C166 12.8329 165.327 13.2281 165.156 13.7065C164.985 14.1849 164.666 14.3929 164.472 14.1641C164.256 13.9561 162.306 14.5385 160.14 15.4537C157.974 16.3897 155.534 17.3257 154.702 17.5961C153.881 17.8249 151.737 18.6153 149.959 19.3017C148.18 20.0089 145.934 20.7993 144.976 21.0697C144.019 21.3193 141.442 22.1929 139.253 22.9833C136.939 23.8361 133.21 24.4393 130.406 24.3977C127.612 24.3769 125.458 24.7097 125.344 25.2089C125.207 25.7289 124.967 25.6873 124.717 25.0633C124.454 24.4393 122.778 24.0857 120.316 24.1065C116.804 24.1273 109.485 22.2761 102.633 19.5929C101.401 19.1145 99.8964 18.5945 99.2922 18.4281C95.7806 17.4297 89.8407 15.0169 89.3618 14.3929C88.5753 13.7651 87.7336 13.3988 86.8764 13.3113C85.8161 13.1449 83.5929 12.6041 81.9511 12.1465C78.1431 11.0649 68.874 10.9401 68.4978 11.9801C68.3496 12.3961 67.8593 12.5209 67.4033 12.2297C66.799 11.8137 66.7078 12.0009 67.0157 12.8953C67.3577 13.8729 67.3007 13.9145 66.7306 13.1241C66.1834 12.3961 64.9179 12.4585 61.5317 13.3945C59.6816 13.8387 57.8496 14.5057 56.0478 15.3913C55.5006 15.8073 54.0412 16.3689 52.8099 16.6601C49.1349 17.7957 45.5247 19.5433 42.0245 21.8809C41.158 22.5465 40.2117 23.0665 39.9267 23.0665C39.6416 23.0665 37.692 24.4185 35.5942 26.0617C33.4736 27.7049 31.3758 29.0361 30.8856 29.0361C30.4181 29.0361 29.449 29.8057 28.7536 30.7417C28.0695 31.6777 27.1688 32.4473 26.7812 32.4473C26.3935 32.4473 25.9033 32.7385 25.6981 33.0921C25.4929 33.4457 25.1736 33.7577 24.9912 33.7785C23.167 34.0073 20.636 36.9609 21.1148 38.2921C21.2631 38.7081 20.8868 38.8745 20.2826 38.6665C19.0284 38.2505 17.8085 39.0409 14.1488 42.6185C12.8014 44.0116 11.3032 44.8494 9.75934 45.0729C8.73324 45.0729 7.52473 45.6553 7.06868 46.3625C6.15659 47.7561 2.77047 48.5881 2.17761 47.5689C1.98379 47.2361 1.41374 46.9449 0.91209 46.9449C-0.285026 46.9449 -0.307828 50.0649 0.866485 51.0633C2.46264 52.4361 6.84066 52.2489 8.17459 50.7721C8.58528 50.2966 9.0445 49.9777 9.52457 49.8347C10.0046 49.6917 10.4956 49.7276 10.9679 49.9401C12.4272 50.5017 16.0756 47.9017 26.5646 38.7913C27.2021 38.1929 27.8867 37.7789 28.594 37.5641C28.936 37.5641 30.3611 36.6073 31.7863 35.4425C32.7685 34.545 33.7955 33.8207 34.8532 33.2793C35.332 33.2793 36.3353 32.6137 41.2378 28.9529C42.6857 27.8713 44.2591 26.8937 44.7265 26.7897C46.4367 26.3737 49.1159 24.9593 51.0655 23.4409C52.16 22.5881 53.3913 21.8185 53.8018 21.7353C54.2122 21.6521 54.6683 21.5273 54.8051 21.4025C54.9419 21.3193 56.0592 21.0905 57.2905 20.9449C58.5218 20.7785 60.7679 20.0505 62.2728 19.3225C67.2665 16.9097 80.754 16.2857 83.7525 18.3449C84.1857 18.6361 84.7444 18.8025 84.9952 18.7193C85.2346 18.6153 85.7819 18.7609 86.1923 19.0313C86.6027 19.3225 87.7201 19.7177 88.6777 19.9465C91.756 20.6537 93.888 21.5065 94.8571 22.4009C95.3816 22.8793 96.8295 23.4409 98.0951 23.6697C99.3492 23.8777 100.649 24.4601 100.98 24.9177C101.299 25.3545 101.857 25.6249 102.222 25.5001C102.587 25.3545 103.887 25.7081 105.118 26.2281C111.685 29.1401 124.705 31.1993 129.163 30.0553C130.873 29.6393 132.025 29.6393 132.025 30.0969C132.025 30.5337 132.732 30.6169 133.644 30.2633C134.533 29.9097 135.605 29.6601 136.015 29.7017C136.768 29.7849 142.856 28.0793 147.963 26.3737C157.281 23.1522 166.536 19.3575 175.714 14.9961C176.911 14.5801 177.241 14.0601 177.036 12.9785C176.831 11.8553 176.877 11.7929 177.264 12.7289C177.618 13.5817 178.279 13.7481 179.681 13.2905L182.851 12.2713C183.535 12.0633 185.325 11.3561 186.841 10.7113C188.335 10.0457 191.926 8.88089 194.799 8.11129C197.684 7.34169 200.374 6.48888 200.785 6.23928C201.195 5.96888 202.871 5.57368 204.513 5.36568C206.166 5.15768 207.682 4.53368 207.888 3.99288C208.116 3.36888 208.389 3.30648 208.629 3.86808C209.279 5.32408 210.248 5.22008 210.282 3.66008C210.316 2.47448 210.396 2.41208 210.613 3.45208C211.034 5.34488 211.832 5.98969 212.756 5.11609C213.418 4.69718 214.121 4.53448 214.82 4.63833C215.519 4.74218 216.198 5.11031 216.815 5.71929C217.864 7.07129 220.816 9.19288 222.584 9.81688C223.473 10.1497 224.203 10.7529 224.203 11.1897C224.203 11.6057 224.875 11.9801 225.685 11.9801C226.517 11.9801 227.19 12.3545 227.19 12.8121C227.19 13.9561 232.024 16.2441 236.311 17.1177C238.283 17.5337 240.791 18.1577 241.897 18.5113C244.77 19.4889 252.021 19.2809 252.648 18.2201C253.025 17.5753 253.857 17.6585 255.499 18.5113C256.924 19.2393 257.893 19.3849 257.984 18.8649C258.087 18.3449 258.588 18.3241 259.318 18.8025C260.159 19.2543 261.054 19.2543 261.895 18.8025C262.681 18.3657 266.683 17.4297 270.788 16.7017C274.892 15.9737 278.814 15.1833 279.498 14.9129C280.182 14.6425 281.311 14.3097 281.995 14.1641C282.679 14.0185 284.355 13.6025 285.734 13.2073C287.102 12.8121 288.528 12.5833 288.892 12.7289C289.269 12.8537 289.941 12.6873 290.386 12.3753C290.842 12.0425 292.963 11.6681 295.095 11.5433C297.238 11.3769 299.267 10.8777 299.598 10.3785C299.952 9.87928 300.943 9.75449 301.935 10.1289C302.893 10.4617 304.672 10.5449 305.914 10.2953C307.146 10.0457 309.095 10.0873 310.247 10.3369C311.398 10.6281 312.219 10.5033 312.071 10.1081C311.934 9.69209 312.721 9.48409 313.838 9.60888C314.955 9.73369 315.879 10.1081 315.879 10.4409C315.879 10.7529 317.429 11.2729 319.333 11.6057C321.557 11.9801 322.879 12.6041 323.05 13.3529C323.198 14.0185 323.666 14.5385 324.099 14.5385C324.76 14.5385 327.474 17.2841 328.329 18.8233C329.948 21.7353 340.562 29.5769 343.834 30.3049L348.258 31.2825C349.216 31.4905 349.774 31.3657 349.512 30.9913C349.227 30.6169 349.01 29.5769 349.01 28.6409C349.01 27.3097 348.634 26.9769 347.106 26.8729C345.944 26.7897 345.465 27.0185 345.864 27.4553C346.32 27.9545 346.343 28.1625 345.921 28.1833C345.59 28.1833 345.191 27.8089 345.009 27.3305C344.564 26.0825 341.474 24.0025 339.57 23.6697C338.658 23.5033 336.834 22.1513 335.512 20.6329C334.408 19.3196 333.226 18.2381 331.989 17.4089C331.384 17.1593 330.769 16.4105 330.62 15.7449C330.539 15.4086 330.409 15.119 330.244 14.9066C330.08 14.6942 329.887 14.567 329.686 14.5385C329.321 14.5385 328.58 13.8521 328.055 12.9993C327.098 11.5017 324.521 9.50489 320.61 7.25849C318.33 5.94808 302.426 5.03289 298.709 6.01049C297.409 6.34329 296.144 7.15449 295.904 7.79928C295.573 8.67288 295.459 8.71449 295.448 7.90329C295.448 7.07128 294.354 6.94649 290.591 7.38329C287.923 7.69528 285.347 8.29848 284.856 8.71449C284.378 9.13049 282.588 9.67129 280.866 9.90009C276.944 10.4409 274.516 11.0233 274.014 11.5641C273.786 11.7721 271.745 12.1881 269.454 12.4169C267.173 12.6665 263.616 13.2489 261.564 13.6857C259.512 14.1641 257.232 14.3305 256.491 14.1017C255.749 13.8729 255.043 13.9769 254.917 14.3513C254.78 14.7049 253.367 14.9129 251.77 14.7881L242.878 14.2473C237.223 13.9145 235.923 13.6025 234.167 12.0425C233.757 11.6889 232.183 10.8985 230.678 10.3161C229.022 9.62202 227.416 8.5821 225.89 7.21689C224.75 6.11449 223.724 5.40729 223.576 5.65689C223.427 5.90649 222.47 5.51128 221.455 4.78328C220.511 4.08156 219.516 3.63316 218.502 3.45208C217.909 3.45208 217.18 3.03608 216.872 2.51608C216.138 1.76287 215.318 1.33533 214.477 1.26808C213.754 1.22149 213.038 0.968844 212.357 0.519285C212.22 0.290485 211.696 0.477685 211.183 0.935285C210.521 1.55928 210.248 1.51768 210.248 0.810485C210.248 0.0616846 210.077 0.0616846 209.541 0.810485C209.062 1.49688 208.743 1.53848 208.515 0.935285C208.218 0.103285 204.684 -0.375115 204.228 0.373685ZM174.209 13.1865C174.209 13.8521 173.901 14.1849 173.502 13.9145C172.932 13.5193 172.909 13.3113 173.468 12.7289C173.833 12.3129 174.152 12.0009 174.163 12.0009C174.186 12.0009 174.209 12.5209 174.209 13.1865ZM171.883 13.6857C171.883 14.1433 171.792 14.5177 171.655 14.5177C171.541 14.5177 171.313 14.1433 171.142 13.6857C170.971 13.2073 171.062 12.8329 171.359 12.8329C171.644 12.8329 171.883 13.2073 171.883 13.6649V13.6857ZM169.637 14.5177C169.477 15.0169 169.067 15.3913 168.736 15.3705C168.394 15.3705 168.451 15.0377 168.896 14.5385C169.854 13.4777 170.025 13.4777 169.648 14.5385L169.637 14.5177ZM404.066 16.0361C403.109 16.2441 402.037 16.7849 401.695 17.2841C401.273 17.8665 400.863 17.8665 400.441 17.3049C400.099 16.8265 399.392 16.7433 398.833 17.1385C398.286 17.5129 397.009 17.8665 395.994 17.8873C394.98 17.9289 394.011 18.3657 393.828 18.8649C393.646 19.3641 393.19 19.5721 392.813 19.3225C392.05 18.8233 386.144 20.4041 385.38 21.3193C384.429 21.834 383.441 22.0795 382.45 22.0473C381.116 22.1305 379.759 22.5673 379.44 23.0041C379.121 23.4617 378.425 23.7113 377.889 23.5657C377.053 23.4954 376.217 23.6854 375.415 24.1273C373.705 25.0425 373.238 25.1257 364.448 26.3737C360.89 26.8729 356.512 27.1849 354.734 27.0601C351.04 26.8313 349.774 27.5177 350.014 29.6809L350.219 31.6985C350.265 32.3641 363.102 32.0105 366.694 31.2409C373.204 29.8265 376.464 28.7449 377.445 27.6425C378.038 26.9769 379.543 26.5401 380.934 26.6233C382.279 26.7273 384.502 26.3529 385.87 25.8121C388.378 24.8345 392.426 23.4617 396.587 22.1929C397.819 21.8185 399.78 21.0905 400.954 20.5705C402.128 20.0713 405.628 19.5305 408.764 19.4265C414.396 19.2185 415.673 18.7193 414.715 17.0761C414.179 16.1609 406.962 15.4745 404.066 16.0361Z" fill="#AE99FF"/>
</svg>
