<svg width="32" height="32" viewBox="0 0 32 32" fill="none" xmlns="http://www.w3.org/2000/svg">
<path d="M16 4C12.74 4 12.34 4 11.06 4.08C9.78 4.14 8.9 4.34 8.14 4.62C7.34 4.94 6.68 5.34 6.02 6.02C5.34 6.68 4.94 7.36 4.62 8.14C4.34 8.9 4.14 9.78 4.08 11.06C4 12.34 4 12.74 4 16C4 19.26 4 19.66 4.08 20.94C4.14 22.22 4.34 23.1 4.62 23.86C4.94 24.66 5.34 25.32 6.02 25.98C6.68 26.66 7.36 27.06 8.14 27.38C8.9 27.66 9.78 27.86 11.06 27.92C12.34 27.98 12.74 28 16 28C19.26 28 19.66 28 20.94 27.92C21.9379 27.8988 22.9251 27.7094 23.86 27.36C24.66 27.06 25.32 26.66 25.98 25.98C26.66 25.32 27.06 24.66 27.38 23.86C27.66 23.1 27.86 22.22 27.92 20.94C28 19.66 28 19.26 28 16C28 12.74 28 12.34 27.92 11.06C27.8988 10.0621 27.7094 9.07494 27.36 8.14C27.06 7.34 26.66 6.68 25.98 6.02C25.3846 5.40342 24.6608 4.92544 23.86 4.62C22.9242 4.27627 21.9369 4.09368 20.94 4.08C19.66 4 19.26 4 16 4ZM16 6.16C19.2 6.16 19.6 6.16 20.86 6.24C22.02 6.28 22.66 6.48 23.06 6.64C23.64 6.86 24.04 7.12 24.46 7.54C24.86 7.96 25.14 8.36 25.36 8.94C25.52 9.34 25.72 9.98 25.76 11.14C25.82 12.42 25.84 12.8 25.84 16C25.84 19.2 25.84 19.6 25.76 20.86C25.7 22.02 25.5 22.66 25.36 23.06C25.1613 23.5893 24.847 24.0676 24.44 24.46C24.04 24.86 23.62 25.14 23.06 25.36C22.66 25.52 22 25.72 20.82 25.76C19.56 25.82 19.18 25.84 15.98 25.84C12.76 25.84 12.38 25.84 11.12 25.76C10.3562 25.7534 9.5989 25.6182 8.88 25.36C8.34945 25.1638 7.87065 24.8491 7.48 24.44C7.08571 24.0528 6.78477 23.5808 6.6 23.06C6.33498 22.3423 6.19299 21.585 6.18 20.82C6.14 19.56 6.12 19.18 6.12 15.98C6.12 12.78 6.12 12.38 6.18 11.12C6.24 9.96 6.44 9.32 6.58 8.9C6.8 8.32 7.08 7.92 7.5 7.5C7.9 7.1 8.3 6.82 8.88 6.62C9.28 6.44 9.92 6.24 11.08 6.2C12.38 6.14 12.74 6.12 15.96 6.12L16 6.16V6.16ZM16 9.84C14.3663 9.84 12.7994 10.489 11.6442 11.6442C10.489 12.7994 9.84 14.3663 9.84 16C9.84 17.6337 10.489 19.2006 11.6442 20.3558C12.7994 21.511 14.3663 22.16 16 22.16C17.6337 22.16 19.2006 21.511 20.3558 20.3558C21.511 19.2006 22.16 17.6337 22.16 16C22.16 14.3663 21.511 12.7994 20.3558 11.6442C19.2006 10.489 17.6337 9.84 16 9.84ZM16 20C14.9391 20 13.9217 19.5786 13.1716 18.8284C12.4214 18.0783 12 17.0609 12 16C12 14.9391 12.4214 13.9217 13.1716 13.1716C13.9217 12.4214 14.9391 12 16 12C17.0609 12 18.0783 12.4214 18.8284 13.1716C19.5786 13.9217 20 14.9391 20 16C20 17.0609 19.5786 18.0783 18.8284 18.8284C18.0783 19.5786 17.0609 20 16 20ZM23.84 9.6C23.84 9.7891 23.8028 9.97636 23.7304 10.1511C23.658 10.3258 23.552 10.4845 23.4182 10.6182C23.2845 10.752 23.1258 10.858 22.9511 10.9304C22.7764 11.0028 22.5891 11.04 22.4 11.04C22.2109 11.04 22.0236 11.0028 21.8489 10.9304C21.6742 10.858 21.5155 10.752 21.3818 10.6182C21.248 10.4845 21.142 10.3258 21.0696 10.1511C20.9972 9.97636 20.96 9.7891 20.96 9.6C20.96 9.21809 21.1117 8.85182 21.3818 8.58177C21.6518 8.31171 22.0181 8.16 22.4 8.16C22.7819 8.16 23.1482 8.31171 23.4182 8.58177C23.6883 8.85182 23.84 9.21809 23.84 9.6V9.6Z" fill="black"/>
</svg>
