<svg width="92" height="70" viewBox="0 0 92 70" fill="none" xmlns="http://www.w3.org/2000/svg">
<path fill-rule="evenodd" clip-rule="evenodd" d="M0.36002 11.1002C0.112319 9.60307 -0.00811124 8.08765 1.94956e-05 6.57019C1.94956e-05 5.21019 0.62002 4.09019 1.98002 3.59019C3.13002 3.19019 4.71002 4.02019 5.30002 5.51019C6.10002 7.51019 6.88002 9.55019 7.34002 11.6402C8.74002 17.9502 10.01 24.3202 11.25 30.6702C11.65 32.7702 11.93 34.9202 12.15 37.0702C12.21 37.8202 12.16 38.6202 11.91 39.2902C11.25 41.1502 9.24002 41.5502 8.01002 40.0602C7.32459 39.1698 6.82782 38.149 6.55002 37.0602C5.47002 33.6402 1.33002 16.3302 0.35002 11.1002H0.36002ZM37.98 44.4802L38.02 45.9002C38.35 47.1302 39.08 47.3302 39.82 47.5402L40.06 47.6002C41.32 47.9602 42.24 47.0902 42.69 45.9102C43.1 44.8702 43.47 43.7802 43.77 42.6802L44.38 40.5302C45.12 37.9502 45.86 35.3602 46.54 32.7802C48.84 23.9302 51.05 15.0702 53.24 6.18019C53.57 4.84019 53.68 3.38019 53.54 2.03019C53.49 1.32019 52.76 0.230193 52.13 0.0701934C51.28 -0.129807 49.97 0.150193 49.43 0.720193C48.42 1.79019 47.63 3.19019 47.09 4.59019C42.43 16.5902 38.81 28.8602 37.98 41.7902C37.92 42.6502 37.95 43.5202 37.98 44.4802ZM85.04 68.6202L86.66 68.4402C87.1 68.2902 87.51 68.1702 87.9 68.0502C88.58 67.8502 89.2 67.6802 89.72 67.3902C91.85 66.1902 91.77 63.6702 89.57 62.6402C88.6463 62.2257 87.6423 62.0208 86.63 62.0402C77.78 62.0602 68.9 62.1302 60.03 62.2502C58.69 62.2802 57.26 62.6302 55.95 63.0202C54.01 63.5702 53.13 64.7302 53.23 66.1902C53.32 67.6602 54.25 68.7602 56.18 69.2002C57.63 69.5402 59.18 69.7602 60.68 69.7202C67.64 69.5102 74.6 69.2202 81.57 68.9502C82.75 68.9002 83.93 68.7502 85.04 68.6202Z" fill="#FFD338"/>
</svg>
