<svg width="592" height="31" viewBox="0 0 592 31" fill="none" xmlns="http://www.w3.org/2000/svg">
<path fill-rule="evenodd" clip-rule="evenodd" d="M236.542 0.145084C236.383 0.270983 234.248 0.367828 231.783 0.367828C229.329 0.367828 227.109 0.62931 226.851 0.9489C226.606 1.26849 225.576 1.52997 224.57 1.52997C223.576 1.52997 222.521 1.71398 222.239 1.93672C221.945 2.15947 219.626 2.43063 217.087 2.53716C212.597 2.73085 196.135 5.40378 194.467 6.21728C193.608 6.62403 192.835 6.77899 186.089 7.82492C183.93 8.15419 181.771 8.67716 181.28 8.98706C180.789 9.29697 178.778 9.68435 176.79 9.85867C174.815 10.0427 169.577 10.8271 165.174 11.6213C159.46 12.649 153.614 13.143 147.755 13.0933L138.37 13.132L136.138 10.9918C130.078 5.18104 130.127 5.19072 123.294 5.32631C119.884 5.3941 115.812 5.68464 114.278 5.96549C112.733 6.23665 109.678 6.60467 107.482 6.7693C105.287 6.94362 103.398 7.32132 103.263 7.61186C103.14 7.90239 101.692 8.04766 100.036 7.92176C98.2209 7.79586 95.5345 8.2123 93.2283 8.98706C91.1429 9.69403 88.9103 10.1201 88.297 9.92646C87.6836 9.74245 86.9476 9.89741 86.6532 10.2654C86.3588 10.6334 84.7273 10.9433 83.01 10.9433C81.2926 10.9433 79.6856 11.2145 79.4035 11.5631C79.1336 11.9118 78.0296 12.1926 76.9501 12.1926C75.8829 12.1926 74.9874 12.4154 74.9874 12.6769C74.9874 12.9577 74.2514 13.2192 73.3314 13.2773C69.8967 13.471 59.5925 16.202 59.1999 17.0155C58.9301 17.5676 58.4639 17.6644 57.8751 17.277C57.0778 16.7637 48.0371 18.7781 41.7319 20.87C38.8246 21.8384 34.5558 22.9715 32.5194 23.3105C31.4154 23.4945 30.1274 23.8916 29.649 24.1821C29.1706 24.4726 28.0911 24.8116 27.2447 24.9375C26.386 25.0634 24.9876 25.3927 24.1044 25.6638L19.8968 26.9809C18.4616 27.4361 17.284 28.0365 17.284 28.3271C17.284 28.6176 15.2477 28.8403 12.7452 28.821C9.80117 28.821 8.08381 29.0825 7.87527 29.5957C7.45819 30.5642 5.98617 30.6417 6.26831 29.6732C6.37871 29.2858 5.77763 28.8791 4.91895 28.7726C4.06027 28.6563 2.47784 28.3949 1.41062 28.1915C-0.220879 27.8622 -0.355814 27.9397 0.588736 28.6176C3.06665 30.3996 5.44642 31 10.0342 31C14.757 31 19.1853 30.0025 18.4739 29.0921C18.2653 28.8307 18.6333 28.4627 19.2957 28.2593C19.9582 28.0656 20.4979 28.1915 20.4979 28.5498C20.4979 28.9081 20.9395 28.9759 21.4792 28.7144C22.1854 28.4119 22.9613 28.2242 23.7609 28.1624C24.4724 28.1237 28.3978 27.2715 32.4704 26.2739C38.1622 24.8794 40.0636 24.1434 40.5665 23.0781C41.5111 21.1508 42.5047 20.8409 44.9335 21.7125C46.6264 22.313 47.1906 22.2936 47.6936 21.6641C48.0371 21.2186 48.5523 20.8893 48.8344 20.9184C51.3123 21.1702 54.2318 20.8216 55.1028 20.163C55.6916 19.7272 57.1882 19.3011 58.4394 19.2236C59.532 19.1849 60.6074 18.9948 61.6165 18.6619C62.1072 18.4198 63.3584 18.1583 64.4011 18.0711C65.4438 17.9743 66.7931 17.5869 67.3819 17.1995C67.9953 16.8122 69.5655 16.386 70.9025 16.2601C74.4652 15.7865 77.9789 15.1068 81.4153 14.2264C82.0777 14.0424 83.1572 13.8196 83.8196 13.7422C84.482 13.6453 88.4442 12.9674 92.6272 12.2314C106.734 9.75214 111.432 9.1517 120.105 8.70621C127.772 8.30914 128.913 8.37694 130.323 9.38413C131.194 9.99425 131.918 10.8755 131.918 11.321C131.918 11.7859 132.985 12.5994 134.31 13.132C135.635 13.6647 136.714 14.362 136.714 14.6816C136.714 15.6597 142.762 16.6185 147.914 16.4635C150.588 16.386 152.759 16.0277 152.759 15.6597C152.759 15.3014 153.091 15.3982 153.471 15.8824C154.06 16.6088 155.066 16.6185 159.678 15.9502C161.949 15.6687 164.188 15.2477 166.376 14.6912C167.978 14.2568 169.636 13.9644 171.319 13.8196C173.38 13.5969 176.373 12.9965 177.968 12.4638C179.563 11.9505 181.157 11.66 181.501 11.8246C182.359 12.2411 188.039 10.8562 187.634 10.3429C187.463 10.1201 188.652 9.91677 190.272 9.88772C193.007 9.84898 195.191 9.51971 204.845 7.68933C210.477 6.57329 216.16 5.62675 221.883 4.85177C224.275 4.59028 224.889 4.25132 224.913 3.17634C224.926 2.09167 225.073 2.0142 225.649 2.78896C226.165 3.47656 227.551 3.71868 230.63 3.6412L240.517 3.3894C246.135 3.24413 252.183 3.84457 252.943 4.61934C253.802 5.52 259.445 8.58999 262.327 9.74245C266.044 11.2242 281.807 12.1152 285.671 11.0595C287.266 10.6237 288.21 10.6044 288.37 11.0111C288.542 11.3985 290.014 11.2823 292.234 10.7206C294.221 10.2073 297.779 9.88772 300.207 9.99425C302.624 10.1105 304.967 10.0136 305.421 9.80056C305.875 9.56813 307.506 9.36476 309.052 9.34539C315.394 9.25823 318.326 8.99674 319.479 8.3963C322.877 6.61435 313.345 5.07451 307.764 6.50782C306.488 6.83709 303.213 7.23416 300.49 7.37943C295.215 7.67965 293.51 8.15419 294.258 9.08391C294.503 9.41318 294.332 9.66498 293.866 9.66498C293.399 9.66498 293.007 9.24854 293.007 8.73526C293.007 7.73776 291.78 7.44722 291.118 8.28009C290.406 9.18075 269.847 8.47378 265.075 7.38911C260.892 6.43034 254.489 3.70899 253.875 2.60495C253.115 1.26849 248.208 0.125715 242.749 0.0288694C239.499 -0.0389223 236.702 0.0191849 236.542 0.135399V0.145084ZM388.897 4.48375C388.811 4.55155 383.156 4.77429 376.348 4.9583C369.528 5.15199 363.591 5.34568 363.149 5.3941C362.263 5.38832 361.384 5.26725 360.548 5.03577C359.334 4.73555 358.745 4.84208 358.745 5.35536C358.745 5.78148 358.512 5.94612 358.242 5.73306C357.96 5.52 357.052 5.61684 356.23 5.96549C355.224 6.39161 354.734 6.38192 354.734 5.94612C354.734 5.00672 348.539 5.13262 348.048 6.07202C347.729 6.70151 347.631 6.70151 347.582 6.07202C347.545 5.6459 346.625 5.29725 345.521 5.29725C343.277 5.29725 343.154 5.49094 344.344 7.21479C345.153 8.40599 348.649 8.90958 349.41 7.95081C349.618 7.68933 353.826 7.72807 358.757 8.04766C365.124 8.45441 367.872 8.41567 368.264 7.93145C368.608 7.48596 369.221 7.44722 369.982 7.82492C371.404 8.5222 373.416 8.61905 372.889 7.9605C372.3 7.19542 403.9 7.62154 409.003 8.44473C413.124 9.10327 420.116 11.2823 426.115 13.7712C429.807 15.3111 439.694 17.1318 439.694 16.2892C439.694 15.0012 437.045 13.5775 434.088 13.2773C431.653 12.875 429.294 12.2239 427.072 11.3404C424.765 10.4204 421.049 8.96769 418.816 8.09608C413.063 5.84927 405.2 4.56123 396.552 4.44502C394.005 4.37469 391.455 4.38761 388.909 4.48375H388.897ZM328.642 5.76211C329.071 6.63372 328.986 6.70151 328.176 6.07202C326.79 5.00672 325.085 5.09388 325.085 6.23665C325.085 6.74993 324.557 7.17605 323.919 7.17605C323.294 7.17605 322.558 7.43754 322.3 7.76681C321.662 8.58031 339.523 8.40599 341.228 7.5828C341.964 7.23416 342.369 6.57561 342.148 6.13012C341.645 5.09388 337.352 5.02609 336.922 6.03328C336.689 6.56593 336.039 6.47877 334.665 5.72337C333.39 5.08548 331.928 4.71852 330.421 4.65808C328.556 4.65808 328.213 4.87113 328.642 5.76211ZM320.914 6.34318C321.503 6.53687 322.19 6.50782 322.46 6.29476C322.717 6.09139 322.251 5.94612 321.405 5.96549C320.472 5.99454 320.288 6.14949 320.914 6.35287V6.34318ZM521.061 9.51971C518.852 9.59719 513.627 9.98457 509.432 10.3913C505.249 10.7787 500.734 11.1758 499.409 11.2629C498.097 11.3598 493.583 11.8827 489.4 12.4251C485.204 12.9577 480.518 13.5291 478.973 13.6841C477.427 13.8487 473.318 14.3039 469.834 14.7106C465.909 15.1658 459.284 15.2917 452.403 15.0689C443.779 14.7784 441.301 14.8753 441.301 15.4757C441.301 15.9115 442.405 16.7541 443.755 17.3545C445.877 18.2939 447.852 18.4004 458.634 18.1486C465.479 17.984 471.478 17.6644 471.968 17.4223C472.459 17.1802 474.863 16.8896 477.317 16.7734C479.77 16.6572 486.468 16.018 492.197 15.3595L509.039 13.4323C517.687 12.4638 537.388 12.183 544.294 12.948C548.118 13.4075 551.909 14.0216 555.653 14.7881C558.806 15.4466 562.412 16.1149 563.663 16.2505C564.915 16.3957 567.196 16.8122 568.742 17.1705C572.128 17.9743 578.347 18.0227 579.88 17.2673C580.763 16.8218 580.665 16.5797 579.328 16.018C578.421 15.6403 577.108 15.5047 576.409 15.7081C575.71 15.9212 574.017 15.7372 572.667 15.2917C570.619 14.6331 570.091 14.6428 569.478 15.3885C569.012 15.9406 568.521 16.0374 568.141 15.6403C567 14.4395 559.738 12.1926 557.039 12.1926C555.935 12.1926 554.279 11.8827 553.384 11.5147C552.488 11.1273 550.44 10.74 548.82 10.6431C547.226 10.5366 544.65 10.2848 543.104 10.0717C539.829 9.62624 526.863 9.29696 521.061 9.51971ZM583.168 16.5313C583.168 16.8218 583.72 17.2383 584.382 17.432C585.045 17.6257 585.584 17.5482 585.584 17.2576C585.584 16.9574 585.045 16.5507 584.382 16.3473C583.72 16.1536 583.168 16.2311 583.168 16.5313ZM589.24 17.1414C588.271 17.432 588.013 17.7806 588.565 18.0421C589.62 18.5457 592 17.9259 592 17.1414C592 16.4829 591.387 16.4829 589.24 17.1414Z" fill="#EEEEEE"/>
</svg>
