<svg width="464" height="96" viewBox="0 0 464 96" fill="none" xmlns="http://www.w3.org/2000/svg">
<path d="M122.78 57L114.38 41.4H113.12V57H101.36V14.7H119.9C123.3 14.7 126.18 15.3 128.54 16.5C130.9 17.66 132.68 19.28 133.88 21.36C135.08 23.4 135.68 25.7 135.68 28.26C135.68 31.14 134.88 33.68 133.28 35.88C131.72 38.04 129.42 39.58 126.38 40.5L135.92 57H122.78ZM113.12 33.36H118.94C120.54 33.36 121.74 32.98 122.54 32.22C123.34 31.46 123.74 30.36 123.74 28.92C123.74 27.56 123.32 26.5 122.48 25.74C121.68 24.94 120.5 24.54 118.94 24.54H113.12V33.36ZM156.688 57.42C153.328 57.42 150.308 56.72 147.628 55.32C144.988 53.92 142.908 51.92 141.388 49.32C139.868 46.72 139.108 43.66 139.108 40.14C139.108 36.66 139.868 33.62 141.388 31.02C142.948 28.42 145.048 26.42 147.688 25.02C150.368 23.62 153.388 22.92 156.748 22.92C160.108 22.92 163.108 23.62 165.748 25.02C168.428 26.42 170.528 28.42 172.048 31.02C173.608 33.62 174.388 36.66 174.388 40.14C174.388 43.62 173.608 46.68 172.048 49.32C170.528 51.92 168.428 53.92 165.748 55.32C163.068 56.72 160.048 57.42 156.688 57.42ZM156.688 47.22C158.328 47.22 159.688 46.62 160.768 45.42C161.888 44.18 162.448 42.42 162.448 40.14C162.448 37.86 161.888 36.12 160.768 34.92C159.688 33.72 158.348 33.12 156.748 33.12C155.148 33.12 153.808 33.72 152.728 34.92C151.648 36.12 151.108 37.86 151.108 40.14C151.108 42.46 151.628 44.22 152.668 45.42C153.708 46.62 155.048 47.22 156.688 47.22ZM213.613 23.34V57H201.793V52.2C200.793 53.72 199.413 54.96 197.653 55.92C195.893 56.84 193.873 57.3 191.593 57.3C187.673 57.3 184.573 56.02 182.293 53.46C180.053 50.86 178.933 47.34 178.933 42.9V23.34H190.633V41.4C190.633 43.32 191.133 44.84 192.133 45.96C193.173 47.04 194.533 47.58 196.213 47.58C197.933 47.58 199.293 47.04 200.293 45.96C201.293 44.84 201.793 43.32 201.793 41.4V23.34H213.613ZM242.325 23.04C246.205 23.04 249.285 24.34 251.565 26.94C253.845 29.5 254.985 32.98 254.985 37.38V57H243.225V38.94C243.225 37.02 242.725 35.52 241.725 34.44C240.725 33.32 239.385 32.76 237.705 32.76C235.945 32.76 234.565 33.32 233.565 34.44C232.565 35.52 232.065 37.02 232.065 38.94V57H220.305V23.34H232.065V28.14C233.105 26.62 234.505 25.4 236.265 24.48C238.025 23.52 240.045 23.04 242.325 23.04ZM259.518 40.14C259.518 36.66 260.138 33.62 261.378 31.02C262.658 28.42 264.398 26.42 266.598 25.02C268.798 23.62 271.238 22.92 273.918 22.92C276.078 22.92 277.998 23.38 279.678 24.3C281.398 25.18 282.738 26.4 283.698 27.96V12.6H295.518V57H283.698V52.32C282.778 53.88 281.478 55.12 279.798 56.04C278.118 56.96 276.138 57.42 273.858 57.42C271.178 57.42 268.738 56.72 266.538 55.32C264.378 53.92 262.658 51.92 261.378 49.32C260.138 46.68 259.518 43.62 259.518 40.14ZM283.758 40.14C283.758 37.98 283.158 36.28 281.958 35.04C280.798 33.8 279.358 33.18 277.638 33.18C275.878 33.18 274.418 33.8 273.258 35.04C272.098 36.24 271.518 37.94 271.518 40.14C271.518 42.3 272.098 44.02 273.258 45.3C274.418 46.54 275.878 47.16 277.638 47.16C279.358 47.16 280.798 46.54 281.958 45.3C283.158 44.06 283.758 42.34 283.758 40.14ZM335.124 57L326.724 41.4H325.464V57H313.704V14.7H332.244C335.644 14.7 338.524 15.3 340.884 16.5C343.244 17.66 345.024 19.28 346.224 21.36C347.424 23.4 348.024 25.7 348.024 28.26C348.024 31.14 347.224 33.68 345.624 35.88C344.064 38.04 341.764 39.58 338.724 40.5L348.264 57H335.124ZM325.464 33.36H331.284C332.884 33.36 334.084 32.98 334.884 32.22C335.684 31.46 336.084 30.36 336.084 28.92C336.084 27.56 335.664 26.5 334.824 25.74C334.024 24.94 332.844 24.54 331.284 24.54H325.464V33.36ZM369.032 57.42C365.672 57.42 362.652 56.72 359.972 55.32C357.332 53.92 355.252 51.92 353.732 49.32C352.212 46.72 351.452 43.66 351.452 40.14C351.452 36.66 352.212 33.62 353.732 31.02C355.292 28.42 357.392 26.42 360.032 25.02C362.712 23.62 365.732 22.92 369.092 22.92C372.452 22.92 375.452 23.62 378.092 25.02C380.772 26.42 382.872 28.42 384.392 31.02C385.952 33.62 386.732 36.66 386.732 40.14C386.732 43.62 385.952 46.68 384.392 49.32C382.872 51.92 380.772 53.92 378.092 55.32C375.412 56.72 372.392 57.42 369.032 57.42ZM369.032 47.22C370.672 47.22 372.032 46.62 373.112 45.42C374.232 44.18 374.792 42.42 374.792 40.14C374.792 37.86 374.232 36.12 373.112 34.92C372.032 33.72 370.692 33.12 369.092 33.12C367.492 33.12 366.152 33.72 365.072 34.92C363.992 36.12 363.452 37.86 363.452 40.14C363.452 42.46 363.972 44.22 365.012 45.42C366.052 46.62 367.392 47.22 369.032 47.22ZM389.596 40.14C389.596 36.66 390.316 33.62 391.756 31.02C393.196 28.42 395.196 26.42 397.756 25.02C400.356 23.62 403.316 22.92 406.636 22.92C410.916 22.92 414.516 24.1 417.436 26.46C420.356 28.78 422.236 32.04 423.076 36.24H410.596C409.876 34.04 408.476 32.94 406.396 32.94C404.916 32.94 403.736 33.56 402.856 34.8C402.016 36 401.596 37.78 401.596 40.14C401.596 42.5 402.016 44.3 402.856 45.54C403.736 46.78 404.916 47.4 406.396 47.4C408.516 47.4 409.916 46.3 410.596 44.1H423.076C422.236 48.26 420.356 51.52 417.436 53.88C414.516 56.24 410.916 57.42 406.636 57.42C403.316 57.42 400.356 56.72 397.756 55.32C395.196 53.92 393.196 51.92 391.756 49.32C390.316 46.72 389.596 43.66 389.596 40.14ZM449.022 57L439.722 43.2V57H427.962V12.6H439.722V36.54L449.022 23.34H463.122L449.862 40.26L463.362 57H449.022ZM116.819 69.965L110.123 82.952V89H104.804V82.952L98.108 69.965H104.156L107.504 77.309L110.852 69.965H116.819ZM124.6 81.413C124.6 79.847 124.879 78.479 125.437 77.309C126.013 76.139 126.787 75.239 127.759 74.609C128.749 73.979 129.847 73.664 131.053 73.664C132.097 73.664 132.997 73.871 133.753 74.285C134.509 74.699 135.094 75.257 135.508 75.959V73.853H140.8V89H135.508V86.894C135.094 87.596 134.5 88.154 133.726 88.568C132.97 88.982 132.079 89.189 131.053 89.189C129.847 89.189 128.749 88.874 127.759 88.244C126.787 87.614 126.013 86.714 125.437 85.544C124.879 84.356 124.6 82.979 124.6 81.413ZM135.508 81.413C135.508 80.441 135.238 79.676 134.698 79.118C134.176 78.56 133.528 78.281 132.754 78.281C131.962 78.281 131.305 78.56 130.783 79.118C130.261 79.658 130 80.423 130 81.413C130 82.385 130.261 83.159 130.783 83.735C131.305 84.293 131.962 84.572 132.754 84.572C133.528 84.572 134.176 84.293 134.698 83.735C135.238 83.177 135.508 82.403 135.508 81.413ZM156.127 76.526C156.721 75.662 157.441 74.978 158.287 74.474C159.133 73.97 160.042 73.718 161.014 73.718V79.361H159.529C158.377 79.361 157.522 79.586 156.964 80.036C156.406 80.486 156.127 81.269 156.127 82.385V89H150.835V73.853H156.127V76.526ZM169.067 81.413C169.067 79.847 169.346 78.479 169.904 77.309C170.48 76.139 171.263 75.239 172.253 74.609C173.243 73.979 174.341 73.664 175.547 73.664C176.519 73.664 177.383 73.871 178.139 74.285C178.913 74.681 179.516 75.23 179.948 75.932V69.02H185.267V89H179.948V86.894C179.534 87.596 178.949 88.154 178.193 88.568C177.437 88.982 176.546 89.189 175.52 89.189C174.314 89.189 173.216 88.874 172.226 88.244C171.254 87.614 170.48 86.714 169.904 85.544C169.346 84.356 169.067 82.979 169.067 81.413ZM179.975 81.413C179.975 80.441 179.705 79.676 179.165 79.118C178.643 78.56 177.995 78.281 177.221 78.281C176.429 78.281 175.772 78.56 175.25 79.118C174.728 79.658 174.467 80.423 174.467 81.413C174.467 82.385 174.728 83.159 175.25 83.735C175.772 84.293 176.429 84.572 177.221 84.572C177.995 84.572 178.643 84.293 179.165 83.735C179.705 83.177 179.975 82.403 179.975 81.413ZM229.712 69.965V89H224.42V78.497L220.829 89H216.401L212.783 78.416V89H207.491V69.965H213.89L218.669 82.331L223.34 69.965H229.712ZM238.88 81.413C238.88 79.847 239.159 78.479 239.717 77.309C240.293 76.139 241.067 75.239 242.039 74.609C243.029 73.979 244.127 73.664 245.333 73.664C246.377 73.664 247.277 73.871 248.033 74.285C248.789 74.699 249.374 75.257 249.788 75.959V73.853H255.08V89H249.788V86.894C249.374 87.596 248.78 88.154 248.006 88.568C247.25 88.982 246.359 89.189 245.333 89.189C244.127 89.189 243.029 88.874 242.039 88.244C241.067 87.614 240.293 86.714 239.717 85.544C239.159 84.356 238.88 82.979 238.88 81.413ZM249.788 81.413C249.788 80.441 249.518 79.676 248.978 79.118C248.456 78.56 247.808 78.281 247.034 78.281C246.242 78.281 245.585 78.56 245.063 79.118C244.541 79.658 244.28 80.423 244.28 81.413C244.28 82.385 244.541 83.159 245.063 83.735C245.585 84.293 246.242 84.572 247.034 84.572C247.808 84.572 248.456 84.293 248.978 83.735C249.518 83.177 249.788 82.403 249.788 81.413ZM267.789 72.449C266.853 72.449 266.097 72.197 265.521 71.693C264.963 71.171 264.684 70.523 264.684 69.749C264.684 68.957 264.963 68.3 265.521 67.778C266.097 67.256 266.853 66.995 267.789 66.995C268.707 66.995 269.445 67.256 270.003 67.778C270.579 68.3 270.867 68.957 270.867 69.749C270.867 70.523 270.579 71.171 270.003 71.693C269.445 72.197 268.707 72.449 267.789 72.449ZM270.408 73.853V89H265.116V73.853H270.408ZM290.351 73.718C292.097 73.718 293.483 74.303 294.509 75.473C295.535 76.625 296.048 78.191 296.048 80.171V89H290.756V80.873C290.756 80.009 290.531 79.334 290.081 78.848C289.631 78.344 289.028 78.092 288.272 78.092C287.48 78.092 286.859 78.344 286.409 78.848C285.959 79.334 285.734 80.009 285.734 80.873V89H280.442V73.853H285.734V76.013C286.202 75.329 286.832 74.78 287.624 74.366C288.416 73.934 289.325 73.718 290.351 73.718ZM314.908 84.491V89H312.613C308.743 89 306.808 87.083 306.808 83.249V78.254H304.945V73.853H306.808V70.181H312.127V73.853H314.881V78.254H312.127V83.33C312.127 83.744 312.217 84.041 312.397 84.221C312.595 84.401 312.919 84.491 313.369 84.491H314.908ZM338.828 81.251C338.828 81.665 338.801 82.079 338.747 82.493H328.73C328.784 83.321 329.009 83.942 329.405 84.356C329.819 84.752 330.341 84.95 330.971 84.95C331.853 84.95 332.483 84.554 332.861 83.762H338.504C338.27 84.806 337.811 85.742 337.127 86.57C336.461 87.38 335.615 88.019 334.589 88.487C333.563 88.955 332.429 89.189 331.187 89.189C329.693 89.189 328.361 88.874 327.191 88.244C326.039 87.614 325.13 86.714 324.464 85.544C323.816 84.374 323.492 82.997 323.492 81.413C323.492 79.829 323.816 78.461 324.464 77.309C325.112 76.139 326.012 75.239 327.164 74.609C328.334 73.979 329.675 73.664 331.187 73.664C332.681 73.664 334.004 73.97 335.156 74.582C336.308 75.194 337.208 76.076 337.856 77.228C338.504 78.362 338.828 79.703 338.828 81.251ZM333.428 79.928C333.428 79.28 333.212 78.776 332.78 78.416C332.348 78.038 331.808 77.849 331.16 77.849C330.512 77.849 329.981 78.029 329.567 78.389C329.153 78.731 328.883 79.244 328.757 79.928H333.428ZM357.922 73.718C359.668 73.718 361.054 74.303 362.08 75.473C363.106 76.625 363.619 78.191 363.619 80.171V89H358.327V80.873C358.327 80.009 358.102 79.334 357.652 78.848C357.202 78.344 356.599 78.092 355.843 78.092C355.051 78.092 354.43 78.344 353.98 78.848C353.53 79.334 353.305 80.009 353.305 80.873V89H348.013V73.853H353.305V76.013C353.773 75.329 354.403 74.78 355.195 74.366C355.987 73.934 356.896 73.718 357.922 73.718ZM372.679 81.413C372.679 79.847 372.958 78.479 373.516 77.309C374.092 76.139 374.866 75.239 375.838 74.609C376.828 73.979 377.926 73.664 379.132 73.664C380.176 73.664 381.076 73.871 381.832 74.285C382.588 74.699 383.173 75.257 383.587 75.959V73.853H388.879V89H383.587V86.894C383.173 87.596 382.579 88.154 381.805 88.568C381.049 88.982 380.158 89.189 379.132 89.189C377.926 89.189 376.828 88.874 375.838 88.244C374.866 87.614 374.092 86.714 373.516 85.544C372.958 84.356 372.679 82.979 372.679 81.413ZM383.587 81.413C383.587 80.441 383.317 79.676 382.777 79.118C382.255 78.56 381.607 78.281 380.833 78.281C380.041 78.281 379.384 78.56 378.862 79.118C378.34 79.658 378.079 80.423 378.079 81.413C378.079 82.385 378.34 83.159 378.862 83.735C379.384 84.293 380.041 84.572 380.833 84.572C381.607 84.572 382.255 84.293 382.777 83.735C383.317 83.177 383.587 82.403 383.587 81.413ZM408.824 73.718C410.57 73.718 411.956 74.303 412.982 75.473C414.008 76.625 414.521 78.191 414.521 80.171V89H409.229V80.873C409.229 80.009 409.004 79.334 408.554 78.848C408.104 78.344 407.501 78.092 406.745 78.092C405.953 78.092 405.332 78.344 404.882 78.848C404.432 79.334 404.207 80.009 404.207 80.873V89H398.915V73.853H404.207V76.013C404.675 75.329 405.305 74.78 406.097 74.366C406.889 73.934 407.798 73.718 408.824 73.718ZM423.58 81.413C423.58 79.847 423.904 78.479 424.552 77.309C425.2 76.139 426.1 75.239 427.252 74.609C428.422 73.979 429.754 73.664 431.248 73.664C433.174 73.664 434.794 74.195 436.108 75.257C437.422 76.301 438.268 77.768 438.646 79.658H433.03C432.706 78.668 432.076 78.173 431.14 78.173C430.474 78.173 429.943 78.452 429.547 79.01C429.169 79.55 428.98 80.351 428.98 81.413C428.98 82.475 429.169 83.285 429.547 83.843C429.943 84.401 430.474 84.68 431.14 84.68C432.094 84.68 432.724 84.185 433.03 83.195H438.646C438.268 85.067 437.422 86.534 436.108 87.596C434.794 88.658 433.174 89.189 431.248 89.189C429.754 89.189 428.422 88.874 427.252 88.244C426.1 87.614 425.2 86.714 424.552 85.544C423.904 84.374 423.58 82.997 423.58 81.413ZM462.337 81.251C462.337 81.665 462.31 82.079 462.256 82.493H452.239C452.293 83.321 452.518 83.942 452.914 84.356C453.328 84.752 453.85 84.95 454.48 84.95C455.362 84.95 455.992 84.554 456.37 83.762H462.013C461.779 84.806 461.32 85.742 460.636 86.57C459.97 87.38 459.124 88.019 458.098 88.487C457.072 88.955 455.938 89.189 454.696 89.189C453.202 89.189 451.87 88.874 450.7 88.244C449.548 87.614 448.639 86.714 447.973 85.544C447.325 84.374 447.001 82.997 447.001 81.413C447.001 79.829 447.325 78.461 447.973 77.309C448.621 76.139 449.521 75.239 450.673 74.609C451.843 73.979 453.184 73.664 454.696 73.664C456.19 73.664 457.513 73.97 458.665 74.582C459.817 75.194 460.717 76.076 461.365 77.228C462.013 78.362 462.337 79.703 462.337 81.251ZM456.937 79.928C456.937 79.28 456.721 78.776 456.289 78.416C455.857 78.038 455.317 77.849 454.669 77.849C454.021 77.849 453.49 78.029 453.076 78.389C452.662 78.731 452.392 79.244 452.266 79.928H456.937Z" fill="white"/>
<g clip-path="url(#clip0_1_139)">
<path d="M14.0236 47.88C13.8872 48.115 13.8369 48.3912 13.8817 48.66C13.9265 48.9288 14.0635 49.1729 14.2685 49.3494C21.9224 55.9177 23.7509 66.3685 24.0393 68.3963C24.0783 68.6714 24.2138 68.9231 24.4208 69.1054C24.6279 69.2876 24.8927 69.3883 25.167 69.389C25.2209 69.3884 25.2747 69.3841 25.3281 69.3759C25.627 69.3323 25.8966 69.1703 26.0778 68.9254C26.259 68.6805 26.337 68.3729 26.2947 68.0698C25.9402 65.5783 24.5129 58.1284 19.6122 51.707C22.6151 53.1977 25.6019 55.1651 28.3616 58.2068C31.3129 61.6648 33.1092 66.811 33.1269 66.86C33.1748 67.0051 33.2506 67.1392 33.35 67.2544C33.4494 67.3697 33.5704 67.4637 33.706 67.5312C33.8415 67.5986 33.989 67.6382 34.1397 67.6474C34.2904 67.6567 34.4415 67.6355 34.5841 67.5851C34.7267 67.5348 34.858 67.4562 34.9704 67.354C35.0828 67.2518 35.1741 67.128 35.2389 66.9897C35.3037 66.8515 35.3408 66.7016 35.348 66.5487C35.3552 66.3958 35.3324 66.243 35.2808 66.0992C35.2051 65.8771 33.4201 60.7554 30.3254 56.979C30.0902 53.6271 29.2637 46.9331 26.3817 40.7387C29.0217 43.2153 31.3189 46.0426 33.2107 49.1437L33.2316 49.1813C35.1312 52.3122 36.6502 55.6645 37.7553 59.1651V59.1766V59.1929C38.2386 60.7162 38.8218 63.2158 39.2053 65.0477C39.2598 65.3068 39.4004 65.5391 39.6036 65.7058C39.8068 65.8725 40.0603 65.9635 40.3217 65.9636C40.4018 65.9635 40.4816 65.9553 40.5601 65.9391C40.8562 65.8749 41.1151 65.6943 41.28 65.4369C41.4448 65.1795 41.5023 64.8663 41.4397 64.5661C41.0724 62.8224 40.5295 60.4843 40.0462 58.8647C41.2642 55.4132 42.8903 52.1238 44.8889 49.0686L44.9775 48.9364C46.8955 46.0178 49.1882 43.3708 51.7953 41.0652C48.6216 47.4327 47.6598 54.3944 47.3763 57.5945V57.6108C47.3763 57.619 47.3763 57.6288 47.3763 57.6369C47.1008 62.9497 48.1657 66.6526 48.2108 66.8077C48.3061 67.0899 48.5053 67.3239 48.7667 67.4609C49.0281 67.5979 49.3315 67.6273 49.6139 67.5431C49.8962 67.4589 50.1355 67.2675 50.282 67.0088C50.4285 66.7502 50.4708 66.4442 50.4001 66.1547C50.3905 66.122 49.4625 62.8566 49.6365 58.1986C52.0751 55.685 54.8824 53.5686 57.959 51.9242C56.1417 54.4108 54.774 57.3692 53.9218 60.695C52.8537 64.8763 52.9793 68.1465 52.9858 68.2837C52.9986 68.5811 53.1243 68.8621 53.3364 69.068C53.5486 69.2739 53.831 69.3889 54.1248 69.389H54.1763C54.4788 69.3755 54.7635 69.2407 54.968 69.0145C55.1726 68.7883 55.2801 68.489 55.267 68.1825C55.267 68.0616 54.8465 55.9814 63.6539 49.4066C63.8742 49.2422 64.029 49.0031 64.0901 48.7328C64.1511 48.4625 64.1144 48.1789 63.9866 47.9337C63.8588 47.6885 63.6484 47.498 63.3937 47.3967C63.139 47.2955 62.8568 47.2903 62.5986 47.3821C57.7076 49.1209 53.6527 51.4638 50.0538 54.6442C50.7835 49.9095 52.5685 42.6554 56.9054 37.3019C57.0765 37.092 57.1692 36.8277 57.1669 36.5555C57.1646 36.2833 57.0676 36.0206 56.893 35.8137C56.7183 35.6069 56.4772 35.4691 56.2122 35.4248C55.9472 35.3804 55.6752 35.4323 55.4442 35.5712C52.5186 37.3051 48.3815 40.4317 44.4636 45.6971C42.5835 39.0701 42.3483 35.1418 44.085 28.1768C44.1461 27.9302 44.1254 27.67 44.0261 27.4365C43.9268 27.203 43.7544 27.0092 43.5355 26.8849C43.3166 26.7606 43.0635 26.7128 42.8151 26.7489C42.5668 26.785 42.3371 26.9029 42.1614 27.0845C36.1701 33.2887 33.9614 39.8929 33.3009 45.1355C29.6246 40.0235 25.7066 36.9035 22.8874 35.1206C22.6599 34.9774 22.39 34.9197 22.1248 34.9576C21.8597 34.9956 21.6161 35.1268 21.4366 35.3283C21.2572 35.5297 21.1533 35.7887 21.1432 36.0599C21.133 36.3312 21.2172 36.5974 21.3811 36.8121C25.5923 42.3044 27.1807 49.6384 27.7784 54.3928C23.7654 50.8107 19.4898 48.9641 15.4075 47.387C15.1565 47.2907 14.88 47.2874 14.6268 47.3777C14.3736 47.4679 14.16 47.6458 14.0236 47.88ZM42.7962 48.1119C41.2823 50.4609 39.9791 52.9427 38.9024 55.5275C37.9287 53.0061 36.743 50.5743 35.3582 48.2588C35.4661 43.9355 36.6131 37.9729 40.9693 32.0479C40.1461 37.5468 40.8469 41.666 42.7962 48.1119Z" fill="white"/>
<path d="M74.4476 65.3122C72.8849 64.1122 70.0801 65.3579 66.5536 68.8208C66.5257 68.8475 66.4993 68.8759 66.4747 68.9057C63.8423 72.0715 54.1876 78.3557 47.7113 79.83L47.6743 79.8382C44.1897 80.7541 42.8558 80.6806 42.4047 80.5859C42.5658 80.212 43.0571 79.5231 43.8868 78.7524C45.9698 76.8161 48.222 74.354 47.1314 72.4846C46.2115 70.9106 43.5034 70.091 30.037 74.7197C23.7235 76.8895 17.1361 75.3483 10.4585 70.1368C7.28275 67.6239 4.46763 64.6753 2.09413 61.3758C1.95846 61.1683 1.76041 61.0107 1.52937 60.9263C1.29833 60.8419 1.04659 60.8352 0.8115 60.9072C0.576411 60.9792 0.370489 61.1261 0.22428 61.3261C0.0780701 61.5261 -0.000640215 61.7685 -0.00017646 62.0174C-0.0079986 62.1808 0.0246784 62.3436 0.0948728 62.4909C2.77789 69.8917 7.46215 76.3777 13.6118 81.207C19.7615 86.0363 27.1282 89.0139 34.8693 89.7991C42.6105 90.5844 50.4134 89.1456 57.3855 85.6473C64.3576 82.1491 70.2174 76.7326 74.2945 70.0176C74.2966 70.0124 74.2993 70.0074 74.3026 70.0029L74.5893 69.5131L74.6135 69.4706C75.5688 67.6812 75.506 66.1253 74.4476 65.3122ZM72.6158 68.3522L72.3452 68.8094C65.1521 80.63 52.6909 87.6848 38.9974 87.6848C25.465 87.6848 13.0264 80.5402 5.9396 69.2714C7.24596 70.5202 8.63171 71.6808 10.0879 72.7458C13.1633 74.9793 16.2951 76.5189 19.3995 77.3173C23.1465 78.3191 27.102 78.1777 30.77 76.9108C42.0116 73.0478 44.5908 73.4593 45.1079 73.6699C45.0274 73.9785 44.5989 74.9499 42.3418 77.0479C40.9499 78.3394 39.4646 80.2023 40.2878 81.7386C41.111 83.275 43.3987 83.3501 48.2285 82.0831C55.2025 80.4896 65.2407 73.9295 68.1791 70.4437C70.9291 67.7563 72.4982 67.1783 73.0025 67.1783C72.9993 67.3661 72.9268 67.7628 72.6158 68.3522Z" fill="white"/>
<path d="M77.9046 33.514C75.2231 26.112 70.5397 19.6245 64.3902 14.7938C58.2408 9.96318 50.8737 6.98454 43.132 6.19873C35.3904 5.41291 27.5868 6.85167 20.6142 10.3504C13.6416 13.8491 7.78165 19.2664 3.70492 25.9824L3.69686 25.9955L3.4101 26.4853L3.38594 26.5294C2.43061 28.3253 2.49183 29.8764 3.54704 30.6894C5.10971 31.8895 7.91447 30.6454 11.441 27.1824C11.4693 27.1556 11.4957 27.1267 11.5199 27.0959C14.1603 23.9269 23.8151 17.6427 30.2865 16.17L30.3235 16.1602C33.8081 15.2459 35.1421 15.3194 35.5931 15.414C35.432 15.7879 34.9407 16.4769 34.1126 17.2459C32.028 19.1823 29.7758 21.6444 30.8681 23.5154C31.7879 25.0893 34.4944 25.9089 47.9608 21.2803C54.2743 19.1104 60.8617 20.6517 67.541 25.8616C70.7169 28.3743 73.5316 31.3236 75.9037 34.6242C76.0083 34.782 76.1495 34.9115 76.3149 35.0011C76.4804 35.0908 76.665 35.138 76.8526 35.1385C76.9195 35.1382 76.9864 35.1322 77.0523 35.1206C77.3172 35.0732 77.557 34.9326 77.7294 34.7234C77.9018 34.5143 77.9958 34.2502 77.9948 33.9777C78.0029 33.8179 77.9719 33.6586 77.9046 33.514ZM67.9083 23.2526C64.8345 21.0207 61.7011 19.4811 58.5983 18.6794C54.8525 17.6792 50.8988 17.8217 47.2326 19.0892C35.9911 22.9522 33.4135 22.5407 32.8947 22.3301C32.9753 22.0215 33.4038 21.0501 35.6608 18.9521C37.0527 17.659 38.5364 15.7961 37.7132 14.2614C36.89 12.7266 34.6024 12.6483 29.7726 13.9169C22.8002 15.5104 12.7604 22.0689 9.82673 25.5547C7.07675 28.2421 5.50763 28.82 5.00339 28.82C5.00339 28.6274 5.07749 28.2323 5.39003 27.6412L5.65907 27.1857C12.8538 15.3651 25.3133 8.3086 39.0069 8.3086C52.5393 8.3086 64.9762 15.4532 72.0631 26.7237C70.7552 25.475 69.3672 24.3155 67.9083 23.2526Z" fill="white"/>
</g>
<defs>
<clipPath id="clip0_1_139">
<rect width="78" height="84" fill="white" transform="translate(0 6)"/>
</clipPath>
</defs>
</svg>
