<svg width="112" height="15" viewBox="0 0 112 15" fill="none" xmlns="http://www.w3.org/2000/svg">
<path d="M14.9627 5.20688L10.4996 4.55825L8.50448 0.51352C8.44999 0.402777 8.36034 0.313129 8.2496 0.258637C7.97186 0.121528 7.63436 0.235785 7.4955 0.51352L5.50038 4.55825L1.03729 5.20688C0.914245 5.22446 0.801745 5.28246 0.715612 5.37036C0.611482 5.47738 0.554102 5.62137 0.55608 5.77068C0.558057 5.91999 0.619231 6.06241 0.726159 6.16664L3.95526 9.31489L3.19237 13.7604C3.17448 13.8638 3.18592 13.9702 3.2254 14.0674C3.26488 14.1646 3.33082 14.2489 3.41573 14.3105C3.50065 14.3722 3.60114 14.4089 3.70583 14.4163C3.81051 14.4238 3.91519 14.4018 4.008 14.3528L7.99999 12.2539L11.992 14.3528C12.101 14.4108 12.2275 14.4301 12.3488 14.409C12.6547 14.3563 12.8603 14.0663 12.8076 13.7604L12.0447 9.31489L15.2738 6.16664C15.3617 6.08051 15.4197 5.96801 15.4373 5.84496C15.4848 5.53735 15.2703 5.25258 14.9627 5.20688Z" fill="#6CB981"/>
<path d="M38.9627 5.20688L34.4996 4.55825L32.5045 0.51352C32.45 0.402777 32.3603 0.313129 32.2496 0.258637C31.9719 0.121528 31.6344 0.235785 31.4955 0.51352L29.5004 4.55825L25.0373 5.20688C24.9142 5.22446 24.8017 5.28246 24.7156 5.37036C24.6115 5.47738 24.5541 5.62137 24.5561 5.77068C24.5581 5.91999 24.6192 6.06241 24.7262 6.16664L27.9553 9.31489L27.1924 13.7604C27.1745 13.8638 27.1859 13.9702 27.2254 14.0674C27.2649 14.1646 27.3308 14.2489 27.4157 14.3105C27.5006 14.3722 27.6011 14.4089 27.7058 14.4163C27.8105 14.4238 27.9152 14.4018 28.008 14.3528L32 12.2539L35.992 14.3528C36.101 14.4108 36.2275 14.4301 36.3488 14.409C36.6547 14.3563 36.8603 14.0663 36.8076 13.7604L36.0447 9.31489L39.2738 6.16664C39.3617 6.08051 39.4197 5.96801 39.4373 5.84496C39.4848 5.53735 39.2703 5.25258 38.9627 5.20688Z" fill="#6CB981"/>
<path d="M62.9627 5.20688L58.4996 4.55825L56.5045 0.51352C56.45 0.402777 56.3603 0.313129 56.2496 0.258637C55.9719 0.121528 55.6344 0.235785 55.4955 0.51352L53.5004 4.55825L49.0373 5.20688C48.9142 5.22446 48.8017 5.28246 48.7156 5.37036C48.6115 5.47738 48.5541 5.62137 48.5561 5.77068C48.5581 5.91999 48.6192 6.06241 48.7262 6.16664L51.9553 9.31489L51.1924 13.7604C51.1745 13.8638 51.1859 13.9702 51.2254 14.0674C51.2649 14.1646 51.3308 14.2489 51.4157 14.3105C51.5006 14.3722 51.6011 14.4089 51.7058 14.4163C51.8105 14.4238 51.9152 14.4018 52.008 14.3528L56 12.2539L59.992 14.3528C60.101 14.4108 60.2275 14.4301 60.3488 14.409C60.6547 14.3563 60.8603 14.0663 60.8076 13.7604L60.0447 9.31489L63.2738 6.16664C63.3617 6.08051 63.4197 5.96801 63.4373 5.84496C63.4848 5.53735 63.2703 5.25258 62.9627 5.20688Z" fill="#6CB981"/>
<path d="M86.9627 5.20688L82.4996 4.55825L80.5045 0.51352C80.45 0.402777 80.3603 0.313129 80.2496 0.258637C79.9719 0.121528 79.6344 0.235785 79.4955 0.51352L77.5004 4.55825L73.0373 5.20688C72.9142 5.22446 72.8017 5.28246 72.7156 5.37036C72.6115 5.47738 72.5541 5.62137 72.5561 5.77068C72.5581 5.91999 72.6192 6.06241 72.7262 6.16664L75.9553 9.31489L75.1924 13.7604C75.1745 13.8638 75.1859 13.9702 75.2254 14.0674C75.2649 14.1646 75.3308 14.2489 75.4157 14.3105C75.5006 14.3722 75.6011 14.4089 75.7058 14.4163C75.8105 14.4238 75.9152 14.4018 76.008 14.3528L80 12.2539L83.992 14.3528C84.101 14.4108 84.2275 14.4301 84.3488 14.409C84.6547 14.3563 84.8603 14.0663 84.8076 13.7604L84.0447 9.31489L87.2738 6.16664C87.3617 6.08051 87.4197 5.96801 87.4373 5.84496C87.4848 5.53735 87.2703 5.25258 86.9627 5.20688Z" fill="#6CB981"/>
<path d="M110.963 5.20688L106.5 4.55825L104.504 0.51352C104.45 0.402777 104.36 0.313129 104.25 0.258637C103.972 0.121528 103.634 0.235785 103.495 0.51352L101.5 4.55825L97.0373 5.20688C96.9142 5.22446 96.8017 5.28246 96.7156 5.37036C96.6115 5.47738 96.5541 5.62137 96.5561 5.77068C96.5581 5.91999 96.6192 6.06241 96.7262 6.16664L99.9553 9.31489L99.1924 13.7604C99.1745 13.8638 99.1859 13.9702 99.2254 14.0674C99.2649 14.1646 99.3308 14.2489 99.4157 14.3105C99.5006 14.3722 99.6011 14.4089 99.7058 14.4163C99.8105 14.4238 99.9152 14.4018 100.008 14.3528L104 12.2539L107.992 14.3528C108.101 14.4108 108.228 14.4301 108.349 14.409C108.655 14.3563 108.86 14.0663 108.808 13.7604L108.045 9.31489L111.274 6.16664C111.362 6.08051 111.42 5.96801 111.437 5.84496C111.485 5.53735 111.27 5.25258 110.963 5.20688Z" fill="#6CB981"/>
</svg>
