<svg width="18" height="18" viewBox="0 0 18 18" fill="none" xmlns="http://www.w3.org/2000/svg">
<path d="M16.23 12.26L13.69 11.97C13.3914 11.9349 13.0886 11.968 12.8046 12.0667C12.5206 12.1654 12.2626 12.3273 12.05 12.54L10.21 14.38C7.37123 12.9362 5.06382 10.6288 3.62004 7.79001L5.47004 5.94001C5.90004 5.51001 6.11004 4.91001 6.04004 4.30001L5.75004 1.78001C5.69335 1.29219 5.45923 0.842247 5.09228 0.515858C4.72532 0.18947 4.25115 0.00942751 3.76004 0.0100112H2.03004C0.900041 0.0100112 -0.0399593 0.950011 0.0300407 2.08001C0.560041 10.62 7.39004 17.44 15.92 17.97C17.05 18.04 17.99 17.1 17.99 15.97V14.24C18 13.23 17.24 12.38 16.23 12.26Z" fill="#4D6BB9"/>
</svg>
