<svg width="19" height="21" viewBox="0 0 19 21" fill="none" xmlns="http://www.w3.org/2000/svg">
<path fill-rule="evenodd" clip-rule="evenodd" d="M17.1431 8.5125L17.9131 14.5025C18.4841 18.4125 16.2131 20.0025 13.1631 20.0025H4.87305C1.81405 20.0025 -0.526945 18.9025 0.103055 14.5025L0.883055 8.5125C1.00306 7.6225 1.43305 6.7925 2.10306 6.1825C2.61405 5.7335 3.27306 5.4925 3.95306 5.4925V5.2625C3.87306 3.4125 4.82406 1.6625 6.42306 0.7125C8.02306 -0.2375 10.0231 -0.2375 11.6231 0.7125C13.2231 1.6625 14.1631 3.4125 14.0931 5.2625V5.4925C15.3531 5.4925 16.6831 6.3725 17.1431 8.5125ZM5.47305 5.2625C5.47305 3.3225 7.05305 1.7425 9.00305 1.7425C10.9631 1.7425 12.5431 3.3225 12.5431 5.2625V5.4835H5.47305V5.2625ZM5.20305 9.5925C5.20305 10.0725 5.60306 10.4725 6.09305 10.4725C6.58306 10.4725 6.97305 10.0725 6.97305 9.5925C6.97305 9.1025 6.58306 8.7125 6.09305 8.7125C5.60306 8.7125 5.20305 9.1025 5.20305 9.5925ZM11.8931 10.4725C12.1231 10.4725 12.3531 10.3825 12.5131 10.2125C12.6831 10.0525 12.7731 9.8225 12.7731 9.5925C12.7731 9.1025 12.3731 8.7125 11.8931 8.7125C11.4041 8.7125 11.0031 9.1025 11.0031 9.5925C11.0031 10.0725 11.4041 10.4725 11.8931 10.4725Z" fill="#3672E9" fill-opacity="0.6"/>
</svg>
