<svg width="21" height="20" viewBox="0 0 21 20" fill="none" xmlns="http://www.w3.org/2000/svg">
<path d="M15.9198 11.82C15.6598 12.07 15.5398 12.439 15.6008 12.79L16.4898 17.71C16.5608 18.13 16.3908 18.549 16.0398 18.79C15.6998 19.04 15.2498 19.07 14.8698 18.87L10.4408 16.56C10.2798 16.48 10.1098 16.429 9.94083 16.429H9.66983C9.56983 16.439 9.48083 16.48 9.39983 16.519L4.96983 18.84C4.74983 18.95 4.49983 18.99 4.25983 18.95C3.65983 18.83 3.27083 18.269 3.36983 17.679L4.25983 12.759C4.31983 12.4 4.19983 12.04 3.94083 11.78L0.329831 8.28C0.0298314 7.98 -0.0801686 7.549 0.0608314 7.15C0.190831 6.759 0.529831 6.469 0.949831 6.4L5.91983 5.679C6.29983 5.639 6.62983 5.41 6.79983 5.07L8.98983 0.58C9.03983 0.48 9.10983 0.389 9.19083 0.31L9.27983 0.24C9.31983 0.189 9.37983 0.15 9.44083 0.11L9.54983 0.07L9.71983 0H10.1408C10.5208 0.04 10.8508 0.269 11.0208 0.599L13.2398 5.07C13.3998 5.4 13.7098 5.62 14.0698 5.679L19.0398 6.4C19.4598 6.46 19.8108 6.75 19.9498 7.15C20.0798 7.549 19.9698 7.99 19.6598 8.28L15.9198 11.82Z" fill="#3672E9" fill-opacity="0.6"/>
</svg>
