<svg width="73" height="73" viewBox="0 0 73 73" fill="none" xmlns="http://www.w3.org/2000/svg">
<g clip-path="url(#clip0_2699_356)">
<path d="M72.4712 58.2742V51.9387H65.7133V47.7151H63.4607V44.1953H65.7133V37.8599H48.869V39.9717H63.6015V42.0835H19.9067V44.1953H61.3487V47.7151H15.3813C14.4109 47.7151 13.6215 46.9257 13.6215 45.9552C13.6215 44.9847 14.4109 44.1953 15.3813 44.1953H17.7949V42.0835H15.3813C13.2466 42.0835 11.5097 43.8203 11.5097 45.9552C11.5097 48.0901 13.2466 49.8269 15.3813 49.8269H63.6013V51.9387H27.2076V54.0505H70.3592V56.1624H10.7353C7.43596 56.1624 4.75183 58.8465 4.75183 62.1459C4.75183 65.4452 7.43596 68.1294 10.7353 68.1294H60.4737V66.0175H10.7355C8.60056 66.0175 6.86379 64.2808 6.86379 62.1459C6.86379 60.0109 8.60056 58.2742 10.7355 58.2742H68.1067V61.7939H21.2946V63.9057H68.1067V66.0175H62.5857V68.1294H70.3593V70.2412H10.7355C6.27164 70.2412 2.64015 66.6097 2.64015 62.1459C2.64015 57.682 6.27164 54.0505 10.7355 54.0505H25.0959V51.9387H15.3815C12.0821 51.9387 9.39798 49.2546 9.39798 45.9552C9.39798 42.6558 12.0821 39.9717 15.3815 39.9717H46.7571V37.8599H15.3815C10.9177 37.8599 7.28616 41.4914 7.28616 45.9552C7.28616 48.3404 8.32363 50.4875 9.97043 51.9704C4.69847 52.3633 0.52832 56.7752 0.52832 62.1459C0.52832 67.7742 5.10718 72.353 10.7355 72.353H72.4712V66.0175H70.2185V58.2742H72.4712Z" fill="black"/>
<path d="M17.0713 61.7939H19.1831V63.9058H17.0713V61.7939Z" fill="black"/>
<path d="M19.9567 31.7374L20.4269 32.051C20.6102 32.1732 25.0482 35.0441 36.4993 35.0441C47.9505 35.0441 52.3884 32.1732 52.5717 32.051L53.042 31.7374V13.9595L59.3774 11.8477V21.8168C57.7544 22.2777 56.5617 23.7722 56.5617 25.5409V30.8205H64.305V25.5409C64.305 23.7722 63.1123 22.2777 61.4893 21.8168V11.1437L65.1803 9.9134L54.091 6.21686L53.4231 8.22028L58.5022 9.91326L36.4993 17.2476L14.4965 9.9134L36.4993 2.57917L51.4197 7.55266L52.0876 5.54924L36.4993 0.353027L7.81836 9.9134L19.9567 13.9595V31.7374ZM62.1932 25.5409V28.7086H58.6735V25.5409C58.6735 24.5705 59.4629 23.7811 60.4334 23.7811C61.4038 23.7811 62.1932 24.5705 62.1932 25.5409ZM22.0685 14.6635L36.4993 19.4738L50.9301 14.6635V22.9363H48.3256V25.0481H50.9301V27.16H46.3545V29.2718H50.9301V30.5448C49.5693 31.2075 45.1909 32.9323 36.4993 32.9323C27.8012 32.9323 23.4226 31.2048 22.0685 30.5454V14.6635Z" fill="black"/>
<path d="M12.8477 61.7939H14.9595V63.9058H12.8477V61.7939Z" fill="black"/>
<path d="M42.1309 27.1602H44.2427V29.272H42.1309V27.1602Z" fill="black"/>
</g>
<defs>
<clipPath id="clip0_2699_356">
<rect width="71.9428" height="72" fill="white" transform="translate(0.52832 0.353027)"/>
</clipPath>
</defs>
</svg>
