<svg width="72" height="73" viewBox="0 0 72 73" fill="none" xmlns="http://www.w3.org/2000/svg">
<g clip-path="url(#clip0_2699_316)">
<path d="M70.8 29.153H50.4V25.553C50.4 25.169 50.2163 24.8081 49.9056 24.5822L37.2 15.3422V11.153H50.4C51.0627 11.153 51.6 10.6157 51.6 9.95303V2.75303C51.6 2.09033 51.0627 1.55303 50.4 1.55303H37.2C37.2 0.890327 36.6627 0.353027 36 0.353027C35.3373 0.353027 34.8 0.890327 34.8 1.55303V15.3422L22.0944 24.5822C21.7838 24.8081 21.6 25.169 21.6 25.553V29.153H1.2C0.5373 29.153 0 29.6903 0 30.353V71.153C0 71.8157 0.5373 72.353 1.2 72.353H70.8C71.4627 72.353 72 71.8157 72 71.153V30.353C72 29.6903 71.4627 29.153 70.8 29.153ZM37.2 3.95303H49.2V8.75303H37.2V3.95303ZM21.6 69.953H2.4V31.553H21.6V69.953ZM40.8 69.953H31.2V57.953H40.8V69.953ZM48 69.953H43.2V56.753C43.2 56.0903 42.6627 55.553 42 55.553H30C29.3373 55.553 28.8 56.0903 28.8 56.753V69.953H24V26.1638L36 17.4362L48 26.1638V69.953ZM69.6 69.953H50.4V31.553H69.6V69.953Z" fill="black"/>
<path d="M10.8 35.1528H6V37.5528H10.8V35.1528Z" fill="black"/>
<path d="M18.0002 35.1528H13.2002V37.5528H18.0002V35.1528Z" fill="black"/>
<path d="M10.8 39.9531H6V42.3531H10.8V39.9531Z" fill="black"/>
<path d="M18.0002 39.9531H13.2002V42.3531H18.0002V39.9531Z" fill="black"/>
<path d="M10.8 44.7529H6V47.1529H10.8V44.7529Z" fill="black"/>
<path d="M18.0002 44.7529H13.2002V47.1529H18.0002V44.7529Z" fill="black"/>
<path d="M10.8 49.5532H6V51.9532H10.8V49.5532Z" fill="black"/>
<path d="M18.0002 49.5532H13.2002V51.9532H18.0002V49.5532Z" fill="black"/>
<path d="M10.8 54.353H6V56.753H10.8V54.353Z" fill="black"/>
<path d="M18.0002 54.353H13.2002V56.753H18.0002V54.353Z" fill="black"/>
<path d="M58.8 35.1528H54V37.5528H58.8V35.1528Z" fill="black"/>
<path d="M66.0002 35.1528H61.2002V37.5528H66.0002V35.1528Z" fill="black"/>
<path d="M58.8 39.9531H54V42.3531H58.8V39.9531Z" fill="black"/>
<path d="M66.0002 39.9531H61.2002V42.3531H66.0002V39.9531Z" fill="black"/>
<path d="M58.8 44.7529H54V47.1529H58.8V44.7529Z" fill="black"/>
<path d="M66.0002 44.7529H61.2002V47.1529H66.0002V44.7529Z" fill="black"/>
<path d="M58.8 49.5532H54V51.9532H58.8V49.5532Z" fill="black"/>
<path d="M66.0002 49.5532H61.2002V51.9532H66.0002V49.5532Z" fill="black"/>
<path d="M58.8 54.353H54V56.753H58.8V54.353Z" fill="black"/>
<path d="M66.0002 54.353H61.2002V56.753H66.0002V54.353Z" fill="black"/>
<path d="M27.5996 36.3531C27.6049 40.9901 31.3627 44.7479 35.9996 44.7531C40.6388 44.7531 44.3996 40.9923 44.3996 36.3531C44.3996 31.7139 40.6388 27.9531 35.9996 27.9531C31.3604 27.9531 27.5996 31.7139 27.5996 36.3531ZM41.9996 36.3531C41.9996 39.6668 39.3133 42.3531 35.9996 42.3531C32.686 42.3531 29.9996 39.6668 29.9996 36.3531C30.0035 33.0411 32.6876 30.357 35.9996 30.3531C39.3133 30.3531 41.9996 33.0395 41.9996 36.3531Z" fill="black"/>
<path d="M34.8004 35.1532H32.4004V37.5532H37.2004V31.5532H34.8004V35.1532Z" fill="black"/>
</g>
<defs>
<clipPath id="clip0_2699_316">
<rect width="72" height="72" fill="white" transform="translate(0 0.353027)"/>
</clipPath>
</defs>
</svg>
