<svg width="72" height="72" viewBox="0 0 72 72" fill="none" xmlns="http://www.w3.org/2000/svg">
<g clip-path="url(#clip0_2699_343)">
<path d="M66.1717 38.0954C65.9548 36.9655 64.9666 36.1485 63.8161 36.1478H61.4989L61.3285 35.1266C61.1585 34.1009 60.3504 33.2996 59.3233 33.1382C59.0953 33.1022 58.8649 33.0782 58.6381 33.047C59.031 31.2124 58.7046 29.297 57.7261 27.6962C58.243 26.3552 58.1466 24.855 57.462 23.5912C56.7775 22.3275 55.5737 21.427 54.1681 21.1274C53.2694 16.3178 49.0852 12.8217 44.1925 12.7922C44.0725 12.7922 43.9657 12.8078 43.8517 12.8114C43.0699 11.5836 41.7809 10.7688 40.3365 10.5891C38.8921 10.4095 37.4428 10.8838 36.3841 11.8826C35.0503 11.0156 33.494 10.5534 31.9033 10.5518C29.3401 10.5623 26.9245 11.752 25.3537 13.7774C23.6095 13.2688 21.7287 13.5811 20.2425 14.6261C18.7563 15.671 17.826 17.3352 17.7145 19.1486C15.8825 19.9187 14.6904 21.7117 14.6893 23.699C14.693 24.0435 14.7332 24.3866 14.8093 24.7226C13.1891 27.165 12.7658 30.211 13.6585 33.0026C13.3369 33.047 13.0081 33.0866 12.6985 33.1322C11.666 33.288 10.8507 34.0897 10.6777 35.1194L10.5073 36.1442H8.18406C7.03548 36.145 6.04847 36.9595 5.82966 38.087L0.574864 65.0654C0.369646 66.122 0.647932 67.2149 1.33344 68.0447C2.01895 68.8745 3.03976 69.354 4.11606 69.3518H29.1409C30.1345 70.991 33.1537 71.7518 36.0001 71.7518C38.8165 71.7518 41.8069 71.009 42.8293 69.3518H67.8841C68.9601 69.3539 69.9807 68.8746 70.6661 68.0451C71.3516 67.2156 71.6301 66.123 71.4253 65.0666L66.1717 38.0954ZM18.3181 25.871C17.3437 25.2852 16.8787 24.1222 17.1806 23.0261C17.4824 21.9301 18.4772 21.1691 19.6141 21.1646C20.4097 21.1623 21.1585 21.5405 21.6289 22.1822C21.8844 22.5265 22.3041 22.7083 22.73 22.6591C23.1559 22.61 23.5233 22.3373 23.6936 21.9439C23.864 21.5505 23.8116 21.0961 23.5561 20.7518C22.7412 19.6628 21.5064 18.9661 20.1529 18.8318C20.5106 17.1512 21.9926 15.9481 23.7109 15.9434C23.8573 15.9508 24.0031 15.9669 24.1477 15.9914C24.0511 16.2374 23.967 16.4881 23.8957 16.7426C23.7463 17.3778 24.1319 18.016 24.7637 18.1791C25.3955 18.3423 26.0419 17.9707 26.2189 17.3426C26.3553 16.8152 26.565 16.3095 26.8417 15.8402C27.9061 14.0569 29.8265 12.9611 31.9033 12.9518C33.0335 12.9568 34.138 13.2904 35.0821 13.9118C34.9022 14.4171 34.8069 14.9487 34.8001 15.485C34.8001 16.1478 35.3373 16.685 36.0001 16.685C36.6628 16.685 37.2001 16.1478 37.2001 15.485C37.2001 14.0909 38.3302 12.9608 39.7243 12.9608C41.1183 12.9608 42.2485 14.0909 42.2485 15.485C42.2485 16.1478 42.7857 16.685 43.4485 16.685C44.1112 16.685 44.6485 16.1478 44.6485 15.485C44.6485 15.3926 44.6257 15.305 44.6209 15.2126C48.0569 15.4246 50.9462 17.867 51.7273 21.2198C51.1675 21.3828 50.6416 21.6449 50.1745 21.9938C49.8315 22.251 49.6518 22.6717 49.7031 23.0974C49.7544 23.523 50.0288 23.8889 50.4231 24.0574C50.8173 24.2258 51.2715 24.171 51.6145 23.9138C52.5734 23.2038 53.898 23.2605 54.7929 24.0497C55.6877 24.8389 55.9094 26.1461 55.3249 27.1862C55.0636 27.6455 54.6667 28.0127 54.1885 28.2374C53.687 28.4802 53.4186 29.0363 53.5405 29.58C53.6624 30.1237 54.1425 30.512 54.6997 30.5174C54.8756 30.5177 55.0494 30.4787 55.2085 30.4034C55.5265 30.2493 55.827 30.0614 56.1049 29.843C56.7252 31.6065 56.3361 33.5678 55.0897 34.961L55.0609 34.991C53.4975 36.6845 51.0037 37.1422 48.9409 36.1142C48.7388 36.0075 48.5447 35.8864 48.3601 35.7518C49.2439 34.5126 49.366 32.885 48.6769 31.5278C48.4839 31.1448 48.1013 30.8937 47.6731 30.8693C47.2449 30.8448 46.8362 31.0507 46.6009 31.4093C46.3656 31.7679 46.3395 32.2248 46.5325 32.6078C46.9271 33.4009 46.6809 34.3634 45.9541 34.8698C45.5272 35.154 44.9999 35.2439 44.503 35.1171C44.0061 34.9904 43.5863 34.6589 43.3477 34.205C43.1558 33.8215 42.7739 33.5695 42.3459 33.5439C41.9179 33.5183 41.5087 33.723 41.2725 34.0809C41.0363 34.4388 41.009 34.8955 41.2009 35.279C41.9046 36.6997 43.3547 37.5969 44.9401 37.5926C45.4562 37.5891 45.9671 37.4886 46.4461 37.2962C46.8747 37.6715 47.3469 37.9938 47.8525 38.2562C49.5627 39.1427 51.5515 39.3266 53.3953 38.7686C52.2094 40.3878 50.4346 41.4761 48.4537 41.7986C47.8374 41.8989 47.401 42.4551 47.4502 43.0775C47.4994 43.7 48.0177 44.1807 48.6421 44.183C48.7059 44.183 48.7697 44.1782 48.8329 44.1686C49.5636 44.0421 50.2777 43.8336 50.9617 43.547C51.3313 44.2006 51.6314 44.8912 51.8569 45.6074C51.8982 45.7325 51.9192 45.8633 51.9193 45.995C51.919 46.5137 51.6092 46.9821 51.1321 47.1854C50.5801 47.3989 49.9534 47.2305 49.5829 46.769C48.6535 45.6777 47.4366 44.869 46.0705 44.435C43.4773 43.5662 42.4765 42.7898 42.0517 41.945C42.6743 41.8673 43.2895 41.7389 43.8913 41.561C44.3011 41.435 44.6126 41.0998 44.7084 40.6819C44.8041 40.2639 44.6697 39.8266 44.3556 39.5347C44.0415 39.2428 43.5955 39.1406 43.1857 39.2666C42.5123 39.4732 41.8173 39.6008 41.1145 39.647C39.7605 39.7528 38.4002 39.5476 37.1377 39.047C36.6636 38.8621 36.1245 38.9963 35.7925 39.3818C34.0453 41.3888 31.055 41.7299 28.9008 40.168C26.7465 38.6061 26.141 35.658 27.5053 33.3734C27.7263 33.0045 27.7337 32.5457 27.5247 32.1699C27.3157 31.794 26.9221 31.5582 26.4921 31.5513C26.0621 31.5443 25.6611 31.7673 25.4401 32.1362C25.1538 32.6235 24.9235 33.1416 24.7537 33.6806C23.8087 33.6309 23.0636 32.858 23.0485 31.9118V31.8818C23.0478 31.5652 22.9207 31.2619 22.6954 31.0395C22.47 30.817 22.1651 30.6939 21.8485 30.6974C21.1829 30.704 20.6471 31.2462 20.6485 31.9118C20.6538 34.04 22.2587 35.8237 24.3745 36.053C24.3788 36.4553 24.4153 36.8566 24.4837 37.253C21.8043 37.8328 19.0253 36.8697 17.2793 34.7563C15.5333 32.6428 15.1119 29.732 16.1869 27.2102C16.4553 27.4818 16.755 27.7207 17.0797 27.9218C17.6465 28.2539 18.3751 28.0684 18.7141 27.5056C19.0531 26.9429 18.8766 26.2121 18.3181 25.8662V25.871ZM13.0381 35.5106C13.5913 35.429 14.1625 35.357 14.7301 35.2826C16.9488 38.8282 21.1922 40.5497 25.2541 39.5522C26.3455 41.6236 28.3397 43.0682 30.6482 43.4594C32.9566 43.8507 35.3155 43.1439 37.0285 41.5478C37.844 41.7911 38.6839 41.9432 39.5329 42.0014C40.1125 44.1998 41.7877 45.5318 45.3073 46.7114C46.2561 47.0089 47.1025 47.5664 47.7505 48.3206C48.4708 49.1772 49.5305 49.675 50.6497 49.6826C51.1391 49.6825 51.6236 49.5837 52.0741 49.3922C53.4343 48.8109 54.3167 47.4743 54.3169 45.995C54.318 45.6092 54.2564 45.2258 54.1345 44.8598C53.8646 44.0119 53.5092 43.1937 53.0737 42.4178C55.1142 40.9509 56.5357 38.777 57.0613 36.3194C57.3168 36.0158 57.548 35.6924 57.7525 35.3522C58.1545 35.4038 58.5565 35.4494 58.9609 35.5166L63.2929 61.5734C54.8251 58.7459 45.6679 58.7459 37.2001 61.5734V46.5518C37.2001 45.8891 36.6628 45.3518 36.0001 45.3518C35.3373 45.3518 34.8001 45.8891 34.8001 46.5518V61.5782C26.3332 58.7481 17.1762 58.7447 8.70726 61.5686L13.0381 35.5106ZM3.18126 66.5102C2.95452 66.2363 2.86209 65.8754 2.92926 65.5262L8.18406 38.5478H10.1041L6.33846 61.1786C6.20602 62.0023 6.50932 62.8359 7.14014 63.382C7.77097 63.928 8.63944 64.1086 9.43566 63.8594C15.8329 61.7868 22.6482 61.3544 29.2561 62.6018L28.8985 66.9518H4.11606C3.75405 66.9521 3.41098 66.79 3.18126 66.5102ZM36.0001 69.3518C33.1093 69.3518 31.4509 68.4974 31.2073 68.117L31.6201 63.137C32.9396 63.4655 34.2308 63.8985 35.4817 64.4318C35.6434 64.5098 35.8205 64.5508 36.0001 64.5518C36.1801 64.5515 36.3577 64.5105 36.5197 64.4318C37.7697 63.8954 39.0606 63.4596 40.3801 63.1286L40.7929 68.1158C40.5493 68.4974 38.8909 69.3518 36.0001 69.3518ZM68.8189 66.5102C68.5891 66.79 68.2461 66.9521 67.8841 66.9518H43.1053L42.7453 62.5934C49.3568 61.3486 56.1751 61.7847 62.5741 63.8618C63.3701 64.1077 64.2367 63.9245 64.8651 63.3775C65.4935 62.8304 65.7943 61.9973 65.6605 61.175L61.8985 38.549H63.8185L69.0745 65.525C69.141 65.8751 69.0472 66.2366 68.8189 66.5102Z" fill="black"/>
<path d="M32.0228 28.174C31.5316 28.6185 31.4935 29.3769 31.9376 29.8684C32.9556 30.9923 34.3009 31.7681 35.7836 32.086C35.1121 33.0323 34.0231 33.5938 32.8628 33.592C32.2001 33.592 31.6628 34.1293 31.6628 34.792C31.6628 35.4548 32.2001 35.992 32.8628 35.992C35.347 36.0019 37.576 34.4676 38.4536 32.1436C41.4375 31.6491 43.7998 29.3524 44.378 26.3836C44.4674 25.959 44.3205 25.5192 43.9939 25.2335C43.6674 24.9477 43.212 24.8605 42.803 25.0054C42.394 25.1504 42.095 25.5048 42.0212 25.9324C41.7859 27.1701 41.0718 28.265 40.034 28.9792C38.0375 30.3239 35.3599 30.0187 33.7172 28.2592C33.2728 27.768 32.5143 27.7299 32.0228 28.174Z" fill="black"/>
<path d="M27.8396 26.8723C28.5024 26.8723 29.0396 26.3351 29.0396 25.6723C29.0396 24.8449 29.3684 24.0513 29.9535 23.4662C30.5386 22.8811 31.3322 22.5523 32.1596 22.5523C32.8224 22.5523 33.3596 22.0151 33.3596 21.3523C33.3596 20.6896 32.8224 20.1523 32.1596 20.1523C29.1124 20.1557 26.643 22.6251 26.6396 25.6723C26.6396 25.9906 26.7661 26.2958 26.9911 26.5209C27.2162 26.7459 27.5214 26.8723 27.8396 26.8723Z" fill="black"/>
<path d="M37.1998 3.35215V2.15215C37.1998 1.48941 36.6625 0.952148 35.9998 0.952148C35.3371 0.952148 34.7998 1.48941 34.7998 2.15215V3.35215C34.7998 4.01489 35.3371 4.55215 35.9998 4.55215C36.6625 4.55215 37.1998 4.01489 37.1998 3.35215Z" fill="black"/>
<path d="M55.6924 9.56364L54.4924 10.7636C54.1804 11.0649 54.0553 11.5111 54.1651 11.9306C54.2749 12.3502 54.6026 12.6779 55.0221 12.7877C55.4417 12.8975 55.8879 12.7724 56.1892 12.4604L57.3892 11.2604C57.7011 10.9592 57.8262 10.513 57.7164 10.0934C57.6066 9.67388 57.2789 9.34622 56.8594 9.2364C56.4398 9.12659 55.9936 9.25169 55.6924 9.56364Z" fill="black"/>
<path d="M16.6599 12.812C17.1452 12.8119 17.5826 12.5196 17.7683 12.0712C17.954 11.6229 17.8514 11.1068 17.5083 10.7636L16.3083 9.56364C16.007 9.25169 15.5608 9.12659 15.1413 9.2364C14.7217 9.34622 14.3941 9.67388 14.2843 10.0934C14.1744 10.513 14.2995 10.9592 14.6115 11.2604L15.8115 12.4604C16.0365 12.6855 16.3417 12.812 16.6599 12.812Z" fill="black"/>
<path d="M25.8976 7.76188C26.0553 7.76155 26.2114 7.73057 26.3572 7.67068C26.6514 7.54885 26.885 7.31513 27.0068 7.02098C27.1285 6.72683 27.1284 6.39635 27.0064 6.10228L25.6276 2.77588C25.4697 2.37073 25.1049 2.08273 24.6742 2.02308C24.2434 1.96344 23.8141 2.14148 23.552 2.48846C23.2899 2.83545 23.2361 3.29707 23.4112 3.69508L24.7888 7.02148C24.9747 7.46979 25.4123 7.76201 25.8976 7.76188Z" fill="black"/>
<path d="M47.9403 2.12661C47.3283 1.87341 46.6269 2.16398 46.3731 2.77581L44.9943 6.10221C44.872 6.39641 44.8717 6.7272 44.9935 7.02163C45.1152 7.31607 45.3491 7.54998 45.6435 7.67181C45.7894 7.7317 45.9455 7.76267 46.1031 7.76301C46.5885 7.76313 47.0261 7.47092 47.2119 7.02261L48.5895 3.69621C48.7119 3.40201 48.7122 3.07122 48.5904 2.77679C48.4686 2.48235 48.2348 2.24843 47.9403 2.12661Z" fill="black"/>
<path d="M60.3903 22.0503C60.5481 22.0501 60.7043 22.0187 60.8499 21.9579L64.1751 20.5803C64.5712 20.4164 64.8498 20.0535 64.9059 19.6284C64.9619 19.2034 64.7869 18.7807 64.4469 18.5196C64.1068 18.2586 63.6532 18.1988 63.2571 18.3627L59.9307 19.7403C59.3999 19.9584 59.0977 20.5217 59.2097 21.0845C59.3217 21.6473 59.8165 22.0521 60.3903 22.0503Z" fill="black"/>
<path d="M11.1506 21.9582C11.7629 22.2121 12.4651 21.9214 12.719 21.309C12.9728 20.6967 12.6821 19.9945 12.0698 19.7406L8.74335 18.363C8.13098 18.1095 7.42905 18.4005 7.17555 19.0128C6.92205 19.6252 7.21297 20.3271 7.82535 20.5806L11.1506 21.9582Z" fill="black"/>
</g>
<defs>
<clipPath id="clip0_2699_343">
<rect width="70.9823" height="70.8" fill="white" transform="translate(0.508789 0.952148)"/>
</clipPath>
</defs>
</svg>
