<svg width="25" height="25" viewBox="0 0 25 25" fill="none" xmlns="http://www.w3.org/2000/svg">
<path d="M22.0693 22.9349V22.9341H22.0743V15.5991C22.0743 12.0108 21.3018 9.24658 17.1068 9.24658C15.0901 9.24658 13.7368 10.3533 13.1843 11.4024H13.1259V9.58158H9.14844V22.9341H13.2901V16.3224C13.2901 14.5816 13.6201 12.8983 15.7759 12.8983C17.9001 12.8983 17.9318 14.8849 17.9318 16.4341V22.9349H22.0693Z" fill="#251E1E"/>
<path d="M2.4043 9.58252H6.55096V22.935H2.4043V9.58252Z" fill="#251E1E"/>
<path d="M4.47589 2.93506C3.15005 2.93506 2.07422 4.01089 2.07422 5.33673C2.07422 6.66256 3.15005 7.76089 4.47589 7.76089C5.80172 7.76089 6.87755 6.66256 6.87755 5.33673C6.87672 4.01089 5.80089 2.93506 4.47589 2.93506V2.93506Z" fill="#251E1E"/>
</svg>
