<svg width="33" height="33" viewBox="0 0 33 33" fill="none" xmlns="http://www.w3.org/2000/svg">
<g clip-path="url(#clip0_17_3)">
<path d="M12.3652 15.8232H14.2559V19.5966H12.3652V15.8232Z" fill="white"/>
<path d="M20.8086 32.7684H31.4808V25.1011H20.8086V32.7684ZM25.2072 27.9973H27.0822V29.8723H25.2072V27.9973Z" fill="white"/>
<path d="M15.0761 5.28121L26.145 11.6063C26.4587 11.7855 26.7907 11.8673 27.1142 11.8673C28.1379 11.8673 29.0762 11.0484 29.0762 9.90534V8.76846L15.0762 0.768463L1.07617 8.76846V9.9054C1.07617 11.0483 2.01448 11.8674 3.03811 11.8674C3.36167 11.8674 3.69361 11.7857 4.0073 11.6064L15.0761 5.28121Z" fill="white"/>
<path d="M16.1309 15.8232H18.0215V19.5966H16.1309V15.8232Z" fill="white"/>
<path d="M18.9341 23.2261H21.442V22.8856C21.442 20.2923 23.5518 18.1825 26.1451 18.1825V20.0575C24.5857 20.0575 23.317 21.3262 23.317 22.8856V23.2261H26.1451V20.0575C27.7046 20.0575 28.9733 21.3262 28.9733 22.8856V23.2261H30.8483V22.8856C30.8483 20.2923 28.7384 18.1825 26.1451 18.1825V13.6155C25.8219 13.53 15.0762 7.44077 15.0762 7.44077C15.0762 7.44077 4.33051 13.5301 4.00732 13.6155V28.764H18.9341V23.2261ZM10.4903 13.9481H19.8966V21.4716H10.4903V13.9481Z" fill="white"/>
</g>
<defs>
<clipPath id="clip0_17_3">
<rect width="32" height="32" fill="white" transform="translate(0.278809 0.768463)"/>
</clipPath>
</defs>
</svg>
