<svg width="362" height="350" viewBox="0 0 362 350" fill="none" xmlns="http://www.w3.org/2000/svg">
<rect width="362" height="350" rx="8" fill="#DBDBDB"/>
<path d="M174.6 166.7H187.4C188.449 166.7 189.3 167.551 189.3 168.6V181.4C189.3 182.449 188.449 183.3 187.4 183.3H174.6C173.551 183.3 172.7 182.449 172.7 181.4V168.6C172.7 167.551 173.551 166.7 174.6 166.7Z" fill="#D8D8D8" stroke="#979797"/>
<path fill-rule="evenodd" clip-rule="evenodd" d="M179.24 175.88L175.72 180.28H186.28L183.64 176.76L181.854 179.145L179.24 175.88Z" fill="#C4CACC"/>
<path fill-rule="evenodd" clip-rule="evenodd" d="M185.4 171.92C185.4 171.189 184.81 170.6 184.08 170.6C183.35 170.6 182.76 171.189 182.76 171.92C182.76 172.65 183.35 173.24 184.08 173.24C184.81 173.24 185.4 172.65 185.4 171.92Z" fill="#C4CACC"/>
</svg>
