<svg width="80" height="80" viewBox="0 0 80 80" fill="none" xmlns="http://www.w3.org/2000/svg">
<path fill-rule="evenodd" clip-rule="evenodd" d="M40 80C62.0914 80 80 62.0914 80 40C80 17.9086 62.0914 0 40 0C17.9086 0 0 17.9086 0 40C0 62.0914 17.9086 80 40 80Z" fill="#DBDBDB"/>
<path fill-rule="evenodd" clip-rule="evenodd" d="M40 21.3333C44.4267 21.3333 48 24.9067 48 29.3333C48 33.76 44.4267 37.3333 40 37.3333C35.5733 37.3333 32 33.76 32 29.3333C32 24.9067 35.5733 21.3333 40 21.3333Z" fill="#C4CACC"/>
<path fill-rule="evenodd" clip-rule="evenodd" d="M40 59.2C33.3333 59.2 27.44 55.7867 24 50.6133C24.08 45.3067 34.6667 42.4 40 42.4C45.3067 42.4 55.92 45.3067 56 50.6133C52.56 55.7867 46.6667 59.2 40 59.2Z" fill="#C4CACC"/>
</svg>
