<svg width="48" height="48" viewBox="0 0 48 48" fill="none" xmlns="http://www.w3.org/2000/svg">
<path fill-rule="evenodd" clip-rule="evenodd" d="M24 48C37.2548 48 48 37.2548 48 24C48 10.7452 37.2548 0 24 0C10.7452 0 0 10.7452 0 24C0 37.2548 10.7452 48 24 48Z" fill="#24AFB5"/>
<path opacity="0.4" fill-rule="evenodd" clip-rule="evenodd" d="M16.5517 23.1724H31.4482C34.1906 23.1724 36.4138 25.3955 36.4138 28.1379V33.1034C36.4138 35.8458 34.1906 38.0689 31.4482 38.0689H16.5517C13.8093 38.0689 11.5862 35.8458 11.5862 33.1034V28.1379C11.5862 25.3955 13.8093 23.1724 16.5517 23.1724Z" fill="white"/>
<path opacity="0.6" fill-rule="evenodd" clip-rule="evenodd" d="M16.5517 16.5518H31.4482C34.1906 16.5518 36.4138 18.7749 36.4138 21.5173V26.4828C36.4138 29.2252 34.1906 31.4483 31.4482 31.4483H16.5517C13.8093 31.4483 11.5862 29.2252 11.5862 26.4828V21.5173C11.5862 18.7749 13.8093 16.5518 16.5517 16.5518Z" fill="white"/>
<path opacity="0.8" fill-rule="evenodd" clip-rule="evenodd" d="M16.5517 9.93115H31.4482C34.1906 9.93115 36.4138 12.1543 36.4138 14.8967V19.8622C36.4138 22.6046 34.1906 24.8277 31.4482 24.8277H16.5517C13.8093 24.8277 11.5862 22.6046 11.5862 19.8622V14.8967C11.5862 12.1543 13.8093 9.93115 16.5517 9.93115Z" fill="white"/>
</svg>
