<svg width="191" height="129" viewBox="0 0 191 129" fill="none" xmlns="http://www.w3.org/2000/svg">
<path d="M40.6467 92.8677C40.137 92.8646 39.6392 92.7136 39.2134 92.4329C38.7877 92.1522 38.4523 91.7537 38.2478 91.2859C38.0433 90.8181 37.9786 90.3009 38.0614 89.7969C38.1442 89.293 38.3711 88.8239 38.7144 88.4465C40.6754 86.3053 42.4678 84.0151 44.0755 81.5964C44.4673 81.0238 45.0679 80.6285 45.7479 80.4958C46.4279 80.363 47.1327 80.5035 47.7103 80.8869C48.2878 81.2704 48.6918 81.8659 48.8351 82.5452C48.9784 83.2244 48.8494 83.9329 48.4761 84.5177C46.7168 87.1625 44.7564 89.6672 42.6124 92.0095C42.3635 92.2832 42.0597 92.501 41.7209 92.6489C41.3822 92.7968 41.0161 92.8713 40.6467 92.8677Z" fill="#4D6BB9"/>
<path d="M61.3422 80.7607C57.2469 80.7607 51.8784 79.7198 44.9909 77.6491C36.6216 75.2762 31.8227 72.0041 28.9486 66.7024C28.671 66.0921 28.6352 65.3988 28.8484 64.763C29.0616 64.1272 29.5078 63.5963 30.0968 63.2777C30.6857 62.9591 31.3735 62.8767 32.0209 63.047C32.6682 63.2173 33.2268 63.6277 33.5837 64.1952C35.7467 68.1799 39.4734 70.6125 46.4466 72.5861H46.4875C57.8277 75.9963 64.7301 76.3992 66.4911 73.7577C66.5993 73.5647 66.6665 73.3514 66.6883 73.1311C66.71 72.9108 66.686 72.6884 66.6177 72.4779C66.3459 71.5004 65.3072 70.5341 63.6951 69.7581C61.4316 68.6947 60.1397 68.1724 58.5016 67.5195C57.0384 66.9263 55.378 66.2547 52.6304 65.0347C43.3565 60.994 42.7161 53.6216 42.6938 53.3082L47.9581 52.9351V52.8941C47.9767 53.0807 48.5128 57.4869 54.7563 60.2068C57.4368 61.397 59.0563 62.0499 60.4822 62.6282C62.1278 63.2923 63.5462 63.8669 65.9624 65.0048C69.8306 66.8703 71.2155 69.3327 71.7033 71.0751C71.9733 72.0113 72.042 72.9943 71.9046 73.9591C71.7673 74.9238 71.4271 75.8484 70.9065 76.6716C69.0897 79.3989 66.0369 80.7607 61.3422 80.7607Z" fill="#4D6BB9"/>
<path d="M36.5105 128.066C36.0823 128.066 35.6765 128.066 35.3117 128.028C34.3735 128.006 23.3199 127.748 19.7571 127.532H19.7273C14.3476 127.122 11.1197 125.562 9.8651 122.771C8.1637 118.981 11.1272 115.063 12.0989 113.776L12.1398 113.724C13.1637 112.44 13.1302 111.97 12.9328 111.168C12.7132 110.444 11.9984 109.553 11.1011 108.429C9.16146 106.001 6.30966 102.434 4.39977 95.5987C3.43434 95.4647 2.52674 95.0587 1.78261 94.4279C1.03849 93.7972 0.48845 92.9675 0.196524 92.0356C-0.0109927 91.3131 -0.0548396 90.5533 0.0681865 89.8116C0.191213 89.0699 0.478005 88.3651 0.907613 87.7488C1.4009 87.0293 2.04192 86.4238 2.78772 85.9728C3.24564 74.377 10.1816 58.6995 11.0006 56.8713C12.7343 53.0327 13.7719 48.9153 14.0646 44.7121V44.5106L14.1019 44.3091C19.0013 17.2521 34.8723 7.74564 38.5544 5.88016C42.4002 0.507569 47.3592 -0.533371 50.5275 0.257594C51.0977 0.389047 51.6299 0.651175 52.082 1.0234C52.5342 1.39562 52.8941 1.86781 53.1336 2.4029C53.7776 3.82813 53.5059 5.51453 53.0703 6.84275C53.8484 7.66729 54.8908 8.8127 55.9109 10.0551C59.2355 14.1144 60.3189 16.7709 59.5334 18.905C59.2876 19.5952 61.648 22.1696 64.2988 24.9678L64.444 25.1319C65.0061 25.8371 66.0858 27.8033 63.9823 30.859C62.3554 33.2058 58.5095 36.5151 55.0956 35.3996C54.4664 35.1944 53.6064 34.8959 52.5677 34.5004C52.0427 35.6943 52.0502 37.2165 52.5677 38.9365C52.6943 39.3395 52.8581 39.8208 53.0442 40.3692C54.5381 44.506 55.5792 48.7931 56.1492 53.1552C56.19 53.4999 56.1627 53.8493 56.0688 54.1834C55.9749 54.5175 55.8162 54.8298 55.6019 55.1025C55.3875 55.3751 55.1217 55.6028 54.8196 55.7725C54.5174 55.9422 54.1849 56.0506 53.8409 56.0915C53.497 56.1324 53.1484 56.105 52.815 56.0109C52.4816 55.9168 52.17 55.7578 51.8979 55.543C51.6258 55.3282 51.3986 55.0618 51.2293 54.759C51.0599 54.4562 50.9518 54.123 50.9109 53.7783C50.3874 49.7836 49.4273 45.8587 48.048 42.0743C47.8469 41.4736 47.6757 40.955 47.5342 40.511C46.2386 36.3622 47.121 33.3886 48.0926 31.6238C48.3109 31.2185 48.5598 30.8306 48.8372 30.4635C49.1468 30.059 49.4933 29.6843 49.8722 29.3442L51.0748 28.2846L52.5639 28.8592C54.3063 29.5345 55.6801 30.0382 56.5513 30.3292C57.3405 30.1986 58.9972 28.8069 59.6711 27.7959C55.7285 23.6172 53.3979 20.8824 54.4589 17.4163C54.0866 16.0769 51.2162 12.3982 48.1038 9.3313L46.7189 7.96204L47.6124 6.23087C47.7534 5.94359 47.8778 5.64835 47.9847 5.34663C46.4955 5.53691 44.433 6.54054 42.538 9.4507L42.1024 10.0962L41.3578 10.4096C41.3205 10.4245 37.0391 12.3347 32.1992 17.5581C27.7317 22.3598 21.9127 31.0269 19.3289 45.0926C18.9956 49.9269 17.8029 54.6626 15.807 59.0763C12.9031 65.5047 7.98872 78.6713 8.04084 87.2264C8.06542 87.9057 7.8718 88.5751 7.48845 89.1359C7.10511 89.6967 6.55228 90.1194 5.9113 90.3418C6.50733 90.2812 7.10754 90.4055 7.63085 90.6977C8.15417 90.99 8.57537 91.4361 8.83756 91.9759L8.96786 92.2446L9.0386 92.5356C10.6581 99.4304 13.1823 102.587 15.2076 105.12C16.4436 106.665 17.5084 108 18.0073 109.754L18.0296 109.836C18.6848 112.47 18.1599 114.612 16.2761 116.992C14.3103 119.604 14.6231 120.503 14.664 120.6C14.705 120.697 15.2969 121.887 20.0996 122.256C23.6662 122.477 35.3638 122.745 35.4792 122.749H35.5797C36.2824 122.784 36.9868 122.767 37.6869 122.697C35.751 121.305 32.7726 121.376 30.5649 121.428C29.6177 121.498 28.6655 121.457 27.728 121.305C24.8464 120.663 24.2284 118.943 24.1167 117.977C23.7928 115.112 26.8568 113.037 31.9089 110.616L32.0131 110.567C33.681 109.858 41.9199 105.986 41.1307 99.1804C39.8425 92.4647 37.0354 89.4799 32.5678 85.3759C32.1154 84.8907 31.862 84.2525 31.8579 83.5885C31.8539 82.9245 32.0996 82.2833 32.546 81.7926C32.9924 81.3019 33.6069 80.9978 34.2671 80.9407C34.9272 80.8836 35.5846 81.0777 36.1084 81.4845C41.0897 86.0586 44.7382 89.9426 46.3168 98.2738L46.3428 98.438C47.3704 106.646 40.7137 112.578 34.1203 115.406C33.5842 115.655 33.1039 115.894 32.6795 116.123C35.4382 116.186 38.8969 116.667 41.5625 119.052L41.6407 119.122C43.7628 121.186 44.4292 123.163 43.6213 125.01C42.5193 127.554 39.0868 128.066 36.5105 128.066ZM54.5632 17.0954V17.129V17.0954Z" fill="#4D6BB9"/>
<path d="M149.857 92.8677C149.489 92.8683 149.126 92.792 148.79 92.6435C148.454 92.4951 148.153 92.2779 147.906 92.0058C145.762 89.6642 143.803 87.1594 142.046 84.514C141.659 83.9297 141.52 83.2154 141.659 82.5284C141.798 81.8413 142.204 81.2376 142.787 80.8502C143.37 80.4628 144.082 80.3234 144.768 80.4626C145.454 80.6019 146.056 81.0084 146.443 81.5927C148.051 84.0118 149.844 86.3032 151.804 88.4465C152.149 88.8247 152.377 89.2955 152.46 89.8014C152.543 90.3074 152.477 90.8266 152.271 91.2957C152.065 91.7648 151.726 92.1636 151.298 92.4434C150.869 92.7232 150.368 92.8719 149.857 92.8714V92.8677Z" fill="#4D6BB9"/>
<path d="M129.15 80.7607C124.459 80.7607 121.417 79.4026 119.611 76.6566C119.083 75.8297 118.738 74.8992 118.598 73.9276C118.458 72.956 118.527 71.9657 118.8 71.0229C119.287 69.2842 120.661 66.8181 124.518 64.9675C126.957 63.8184 128.379 63.2438 130.024 62.5797C131.45 62.0014 133.066 61.3485 135.732 60.1657C141.99 57.4384 142.526 53.0321 142.545 52.8456V52.8866L147.809 53.2597C147.787 53.5731 147.146 60.9455 137.854 64.9936C135.125 66.2062 133.468 66.8777 132.001 67.471C130.363 68.1351 129.071 68.6574 126.789 69.7319C125.199 70.4968 124.161 71.4631 123.889 72.4406C123.82 72.6553 123.797 72.882 123.821 73.1062C123.845 73.3304 123.915 73.5472 124.027 73.7427C125.762 76.3544 132.679 75.9589 144.019 72.5488H144.06C151.033 70.5751 154.76 68.1425 156.923 64.1579C157.27 63.567 157.833 63.1343 158.493 62.9513C159.152 62.7682 159.857 62.8491 160.458 63.1767C161.059 63.5043 161.51 64.0532 161.715 64.7075C161.921 65.3617 161.864 66.0703 161.558 66.6837C158.684 71.9854 153.885 75.265 145.516 77.6341C138.617 79.7197 133.252 80.7607 129.15 80.7607Z" fill="#4D6BB9"/>
<path d="M153.989 128.066C151.413 128.066 147.98 127.554 146.863 125.014C146.055 123.167 146.722 121.189 148.844 119.126L148.915 119.04C151.58 116.656 155.039 116.175 157.801 116.112C157.373 115.891 156.893 115.653 156.357 115.395C149.764 112.567 143.107 106.635 144.134 98.4268L144.16 98.2626C145.739 89.9277 149.373 86.0437 154.369 81.4733C154.624 81.2388 154.923 81.0571 155.249 80.9385C155.574 80.8198 155.92 80.7666 156.266 80.7819C156.612 80.7971 156.952 80.8805 157.266 81.0273C157.58 81.1741 157.862 81.3814 158.096 81.6374C158.329 81.8934 158.511 82.1931 158.629 82.5193C158.748 82.8456 158.801 83.192 158.785 83.5388C158.77 83.8856 158.687 84.226 158.541 84.5406C158.394 84.8551 158.187 85.1377 157.932 85.3721C153.464 89.4762 150.65 92.461 149.369 99.1767C148.583 105.982 156.815 109.855 158.486 110.564L158.591 110.612C163.643 113.034 166.711 115.108 166.383 117.973C166.271 118.94 165.657 120.66 162.772 121.301C161.834 121.453 160.882 121.495 159.935 121.424C157.727 121.372 154.749 121.301 152.813 122.693C153.514 122.765 154.22 122.782 154.924 122.745H155.02C155.136 122.745 166.837 122.473 170.4 122.253C175.203 121.88 175.809 120.648 175.836 120.596C175.862 120.544 176.208 119.6 174.223 116.988C172.34 114.608 171.815 112.466 172.47 109.832L172.492 109.75C172.991 107.997 174.06 106.661 175.292 105.116C177.317 102.583 179.841 99.4267 181.461 92.5319L181.532 92.2409L181.662 91.9685C181.925 91.43 182.345 90.9851 182.868 90.6936C183.39 90.4021 183.99 90.278 184.585 90.3381C183.94 90.112 183.386 89.6841 183.003 89.1177C182.62 88.5512 182.429 87.8764 182.459 87.1928C182.5 78.6676 177.597 65.501 174.693 59.0688C172.696 54.6566 171.503 49.922 171.171 45.0889C166.189 17.9797 149.287 10.4693 149.131 10.4096L148.386 10.0962L147.95 9.42831C146.055 6.53681 143.974 5.53318 142.5 5.32425C142.606 5.62874 142.73 5.92652 142.872 6.21595L143.751 7.93966L142.377 9.30892C139.261 12.3758 136.379 16.0582 136.022 17.3977C137.053 20.8749 134.726 23.6023 130.791 27.7735C131.465 28.7846 133.122 30.1762 133.911 30.3068C134.782 30.0158 136.145 29.5084 137.898 28.8368L139.388 28.2622L140.59 29.3218C140.969 29.6626 141.317 30.0373 141.629 30.4411C141.905 30.8101 142.154 31.1992 142.373 31.6052C143.341 33.3662 144.235 36.3398 142.932 40.4923C142.794 40.9289 142.615 41.4549 142.411 42.0519C141.037 45.8379 140.079 49.7623 139.551 53.7559C139.469 54.4521 139.114 55.0868 138.564 55.5206C138.015 55.9545 137.316 56.1518 136.621 56.0691C135.927 55.9865 135.293 55.6307 134.86 55.0801C134.428 54.5294 134.231 53.829 134.313 53.1329C134.883 48.7719 135.924 44.486 137.418 40.3506C137.604 39.7984 137.768 39.3171 137.895 38.9141C138.431 37.1942 138.435 35.6719 137.895 34.478C136.845 34.8735 135.996 35.172 135.37 35.3772C131.938 36.4965 128.096 33.1834 126.476 30.8366C124.373 27.7772 125.452 25.8147 126.018 25.1096L126.16 24.9454C128.811 22.1472 131.171 19.5728 130.914 18.8527C130.14 16.7373 131.223 14.092 134.548 10.0327C135.568 8.79032 136.61 7.64491 137.388 6.82037C136.956 5.49214 136.681 3.80575 137.325 2.38052C137.564 1.84543 137.924 1.37324 138.377 1.00102C138.829 0.628793 139.361 0.366665 139.931 0.235212C143.099 -0.555753 148.058 0.485187 151.901 5.8727C155.583 7.73819 171.454 17.2484 176.353 44.3017L176.39 44.5031V44.7121C176.68 48.9131 177.716 53.0284 179.451 56.8638C180.27 58.6771 187.217 74.377 187.663 85.9654C188.41 86.4139 189.051 87.0183 189.544 87.7376C189.974 88.355 190.261 89.0612 190.383 89.8044C190.506 90.5475 190.46 91.3086 190.251 92.0319C189.96 92.9586 189.413 93.7838 188.674 94.4123C187.935 95.0408 187.033 95.447 186.074 95.5838C184.156 102.419 181.301 105.986 179.372 108.415C178.475 109.534 177.76 110.429 177.541 111.153C177.343 111.955 177.314 112.425 178.334 113.709L178.375 113.761C179.346 115.048 182.31 118.966 180.608 122.756C179.354 125.547 176.141 127.107 170.746 127.517H170.705C167.142 127.734 156.089 127.991 155.151 128.013C154.823 128.051 154.417 128.066 153.989 128.066ZM135.929 17.0656V17.1066V17.0656Z" fill="#4D6BB9"/>
<path d="M129.316 58.5614C128.97 58.5619 128.626 58.4938 128.306 58.3611C127.985 58.2283 127.694 58.0335 127.449 57.7877C127.204 57.542 127.009 57.2502 126.877 56.929C126.744 56.6079 126.676 56.2637 126.677 55.9162V53.0732C126.677 51.8718 125.891 50.857 124.964 50.857H65.5194C64.5924 50.857 63.8105 51.8718 63.8105 53.0732V55.9162C63.8239 56.2716 63.7655 56.6262 63.6389 56.9585C63.5124 57.2909 63.3202 57.5943 63.074 57.8505C62.8277 58.1067 62.5324 58.3106 62.2058 58.4498C61.8791 58.589 61.5278 58.6607 61.1728 58.6607C60.8178 58.6607 60.4665 58.589 60.1398 58.4498C59.8131 58.3106 59.5179 58.1067 59.2716 57.8505C59.0253 57.5943 58.8332 57.2909 58.7066 56.9585C58.5801 56.6262 58.5217 56.2716 58.5351 55.9162V53.0732C58.5351 48.9355 61.6698 45.5702 65.5194 45.5702H124.964C128.817 45.5702 131.956 48.9281 131.956 53.0732V55.9162C131.956 56.6177 131.678 57.2906 131.183 57.7866C130.688 58.2827 130.016 58.5614 129.316 58.5614Z" fill="#4D6BB9"/>
<path d="M124.964 100.195H65.5195C61.6699 100.195 58.5352 96.8374 58.5352 92.696V86.9951C58.5608 86.3112 58.8499 85.6639 59.3418 85.1892C59.8337 84.7144 60.49 84.4492 61.1729 84.4492C61.8558 84.4492 62.5121 84.7144 63.004 85.1892C63.4958 85.6639 63.785 86.3112 63.8106 86.9951V92.696C63.8106 93.8937 64.5924 94.9085 65.5195 94.9085H124.964C125.891 94.9085 126.677 93.8937 126.677 92.696V86.9951C126.677 86.2935 126.955 85.6207 127.45 85.1246C127.945 84.6286 128.616 84.3499 129.316 84.3499C130.016 84.3499 130.688 84.6286 131.183 85.1246C131.678 85.6207 131.956 86.2935 131.956 86.9951V92.696C131.956 96.8299 128.81 100.195 124.964 100.195Z" fill="#4D6BB9"/>
</svg>
