<svg width="550" height="22" viewBox="0 0 550 22" fill="none" xmlns="http://www.w3.org/2000/svg">
<path d="M34.926 14.446H38.146V16H32.966V6.228H34.926V14.446ZM42.8358 16.126C42.0891 16.126 41.4171 15.9627 40.8198 15.636C40.2224 15.3 39.7511 14.8287 39.4058 14.222C39.0698 13.6153 38.9018 12.9153 38.9018 12.122C38.9018 11.3287 39.0744 10.6287 39.4198 10.022C39.7744 9.41533 40.2551 8.94867 40.8618 8.622C41.4684 8.286 42.1451 8.118 42.8918 8.118C43.6384 8.118 44.3151 8.286 44.9218 8.622C45.5284 8.94867 46.0044 9.41533 46.3498 10.022C46.7044 10.6287 46.8818 11.3287 46.8818 12.122C46.8818 12.9153 46.6998 13.6153 46.3358 14.222C45.9811 14.8287 45.4958 15.3 44.8798 15.636C44.2731 15.9627 43.5918 16.126 42.8358 16.126ZM42.8358 14.418C43.1904 14.418 43.5218 14.334 43.8298 14.166C44.1471 13.9887 44.3991 13.7273 44.5858 13.382C44.7724 13.0367 44.8658 12.6167 44.8658 12.122C44.8658 11.3847 44.6698 10.82 44.2778 10.428C43.8951 10.0267 43.4238 9.826 42.8638 9.826C42.3038 9.826 41.8324 10.0267 41.4498 10.428C41.0764 10.82 40.8898 11.3847 40.8898 12.122C40.8898 12.8593 41.0718 13.4287 41.4358 13.83C41.8091 14.222 42.2758 14.418 42.8358 14.418ZM50.2795 9.448C50.5315 9.03733 50.8582 8.71533 51.2595 8.482C51.6702 8.24867 52.1368 8.132 52.6595 8.132V10.19H52.1415C51.5255 10.19 51.0588 10.3347 50.7415 10.624C50.4335 10.9133 50.2795 11.4173 50.2795 12.136V16H48.3195V8.244H50.2795V9.448ZM61.1897 11.954C61.1897 12.234 61.171 12.486 61.1337 12.71H55.4637C55.5103 13.27 55.7063 13.7087 56.0517 14.026C56.397 14.3433 56.8217 14.502 57.3257 14.502C58.0537 14.502 58.5717 14.1893 58.8797 13.564H60.9937C60.7697 14.3107 60.3403 14.9267 59.7057 15.412C59.071 15.888 58.2917 16.126 57.3677 16.126C56.621 16.126 55.949 15.9627 55.3517 15.636C54.7637 15.3 54.3017 14.8287 53.9657 14.222C53.639 13.6153 53.4757 12.9153 53.4757 12.122C53.4757 11.3193 53.639 10.6147 53.9657 10.008C54.2923 9.40133 54.7497 8.93467 55.3377 8.608C55.9257 8.28133 56.6023 8.118 57.3677 8.118C58.105 8.118 58.763 8.27667 59.3417 8.594C59.9297 8.91133 60.3823 9.364 60.6997 9.952C61.0263 10.5307 61.1897 11.198 61.1897 11.954ZM59.1597 11.394C59.1503 10.89 58.9683 10.4887 58.6137 10.19C58.259 9.882 57.825 9.728 57.3117 9.728C56.8263 9.728 56.4157 9.87733 56.0797 10.176C55.753 10.4653 55.5523 10.8713 55.4777 11.394H59.1597ZM72.2523 8.132C73.2043 8.132 73.9696 8.426 74.5483 9.014C75.1363 9.59267 75.4303 10.4047 75.4303 11.45V16H73.4703V11.716C73.4703 11.1093 73.3163 10.6473 73.0083 10.33C72.7003 10.0033 72.2803 9.84 71.7483 9.84C71.2163 9.84 70.7916 10.0033 70.4743 10.33C70.1663 10.6473 70.0123 11.1093 70.0123 11.716V16H68.0523V11.716C68.0523 11.1093 67.8983 10.6473 67.5903 10.33C67.2823 10.0033 66.8623 9.84 66.3303 9.84C65.789 9.84 65.3596 10.0033 65.0423 10.33C64.7343 10.6473 64.5803 11.1093 64.5803 11.716V16H62.6203V8.244H64.5803V9.182C64.8323 8.85533 65.1543 8.59867 65.5463 8.412C65.9476 8.22533 66.3863 8.132 66.8623 8.132C67.469 8.132 68.0103 8.26267 68.4863 8.524C68.9623 8.776 69.331 9.14 69.5923 9.616C69.8443 9.168 70.2083 8.80867 70.6843 8.538C71.1696 8.26733 71.6923 8.132 72.2523 8.132ZM82.5862 6.228V16H80.6262V6.228H82.5862ZM86.4826 9.364C86.7346 9.00933 87.08 8.71533 87.5186 8.482C87.9666 8.23933 88.4753 8.118 89.0446 8.118C89.7073 8.118 90.3046 8.28133 90.8366 8.608C91.378 8.93467 91.8026 9.40133 92.1106 10.008C92.428 10.6053 92.5866 11.3007 92.5866 12.094C92.5866 12.8873 92.428 13.592 92.1106 14.208C91.8026 14.8147 91.378 15.286 90.8366 15.622C90.3046 15.958 89.7073 16.126 89.0446 16.126C88.4753 16.126 87.9713 16.0093 87.5326 15.776C87.1033 15.5427 86.7533 15.2487 86.4826 14.894V19.696H84.5226V8.244H86.4826V9.364ZM90.5846 12.094C90.5846 11.6273 90.4866 11.226 90.2906 10.89C90.104 10.5447 89.852 10.2833 89.5346 10.106C89.2266 9.92867 88.8906 9.84 88.5266 9.84C88.172 9.84 87.836 9.93333 87.5186 10.12C87.2106 10.2973 86.9586 10.5587 86.7626 10.904C86.576 11.2493 86.4826 11.6553 86.4826 12.122C86.4826 12.5887 86.576 12.9947 86.7626 13.34C86.9586 13.6853 87.2106 13.9513 87.5186 14.138C87.836 14.3153 88.172 14.404 88.5266 14.404C88.8906 14.404 89.2266 14.3107 89.5346 14.124C89.852 13.9373 90.104 13.6713 90.2906 13.326C90.4866 12.9807 90.5846 12.57 90.5846 12.094ZM96.9789 16.126C96.3443 16.126 95.7749 16.014 95.2709 15.79C94.7669 15.5567 94.3656 15.244 94.0669 14.852C93.7776 14.46 93.6189 14.026 93.5909 13.55H95.5649C95.6023 13.8487 95.7469 14.096 95.9989 14.292C96.2603 14.488 96.5823 14.586 96.9649 14.586C97.3383 14.586 97.6276 14.5113 97.8329 14.362C98.0476 14.2127 98.1549 14.0213 98.1549 13.788C98.1549 13.536 98.0243 13.3493 97.7629 13.228C97.5109 13.0973 97.1049 12.9573 96.5449 12.808C95.9663 12.668 95.4903 12.5233 95.1169 12.374C94.7529 12.2247 94.4356 11.996 94.1649 11.688C93.9036 11.38 93.7729 10.9647 93.7729 10.442C93.7729 10.0127 93.8943 9.62067 94.1369 9.266C94.3889 8.91133 94.7436 8.63133 95.2009 8.426C95.6676 8.22067 96.2136 8.118 96.8389 8.118C97.7629 8.118 98.5003 8.35133 99.0509 8.818C99.6016 9.27533 99.9049 9.896 99.9609 10.68H98.0849C98.0569 10.372 97.9263 10.1293 97.6929 9.952C97.4689 9.76533 97.1656 9.672 96.7829 9.672C96.4283 9.672 96.1529 9.73733 95.9569 9.868C95.7703 9.99867 95.6769 10.1807 95.6769 10.414C95.6769 10.6753 95.8076 10.876 96.0689 11.016C96.3303 11.1467 96.7363 11.282 97.2869 11.422C97.8469 11.562 98.3089 11.7067 98.6729 11.856C99.0369 12.0053 99.3496 12.2387 99.6109 12.556C99.8816 12.864 100.022 13.2747 100.031 13.788C100.031 14.236 99.9049 14.6373 99.6529 14.992C99.4103 15.3467 99.0556 15.6267 98.5889 15.832C98.1316 16.028 97.5949 16.126 96.9789 16.126ZM108.962 8.244V16H106.988V15.02C106.736 15.356 106.404 15.622 105.994 15.818C105.592 16.0047 105.154 16.098 104.678 16.098C104.071 16.098 103.534 15.972 103.068 15.72C102.601 15.4587 102.232 15.0807 101.962 14.586C101.7 14.082 101.57 13.4847 101.57 12.794V8.244H103.53V12.514C103.53 13.13 103.684 13.606 103.992 13.942C104.3 14.2687 104.72 14.432 105.252 14.432C105.793 14.432 106.218 14.2687 106.526 13.942C106.834 13.606 106.988 13.13 106.988 12.514V8.244H108.962ZM120.528 8.132C121.48 8.132 122.245 8.426 122.824 9.014C123.412 9.59267 123.706 10.4047 123.706 11.45V16H121.746V11.716C121.746 11.1093 121.592 10.6473 121.284 10.33C120.976 10.0033 120.556 9.84 120.024 9.84C119.492 9.84 119.067 10.0033 118.75 10.33C118.442 10.6473 118.288 11.1093 118.288 11.716V16H116.328V11.716C116.328 11.1093 116.174 10.6473 115.866 10.33C115.558 10.0033 115.138 9.84 114.606 9.84C114.064 9.84 113.635 10.0033 113.318 10.33C113.01 10.6473 112.856 11.1093 112.856 11.716V16H110.896V8.244H112.856V9.182C113.108 8.85533 113.43 8.59867 113.822 8.412C114.223 8.22533 114.662 8.132 115.138 8.132C115.744 8.132 116.286 8.26267 116.762 8.524C117.238 8.776 117.606 9.14 117.868 9.616C118.12 9.168 118.484 8.80867 118.96 8.538C119.445 8.26733 119.968 8.132 120.528 8.132ZM129.896 7.32C129.55 7.32 129.261 7.21267 129.028 6.998C128.804 6.774 128.692 6.49867 128.692 6.172C128.692 5.84533 128.804 5.57467 129.028 5.36C129.261 5.136 129.55 5.024 129.896 5.024C130.241 5.024 130.526 5.136 130.75 5.36C130.983 5.57467 131.1 5.84533 131.1 6.172C131.1 6.49867 130.983 6.774 130.75 6.998C130.526 7.21267 130.241 7.32 129.896 7.32ZM130.862 8.244V16H128.902V8.244H130.862ZM135.766 16.126C135.131 16.126 134.562 16.014 134.058 15.79C133.554 15.5567 133.153 15.244 132.854 14.852C132.565 14.46 132.406 14.026 132.378 13.55H134.352C134.389 13.8487 134.534 14.096 134.786 14.292C135.047 14.488 135.369 14.586 135.752 14.586C136.125 14.586 136.415 14.5113 136.62 14.362C136.835 14.2127 136.942 14.0213 136.942 13.788C136.942 13.536 136.811 13.3493 136.55 13.228C136.298 13.0973 135.892 12.9573 135.332 12.808C134.753 12.668 134.277 12.5233 133.904 12.374C133.54 12.2247 133.223 11.996 132.952 11.688C132.691 11.38 132.56 10.9647 132.56 10.442C132.56 10.0127 132.681 9.62067 132.924 9.266C133.176 8.91133 133.531 8.63133 133.988 8.426C134.455 8.22067 135.001 8.118 135.626 8.118C136.55 8.118 137.287 8.35133 137.838 8.818C138.389 9.27533 138.692 9.896 138.748 10.68H136.872C136.844 10.372 136.713 10.1293 136.48 9.952C136.256 9.76533 135.953 9.672 135.57 9.672C135.215 9.672 134.94 9.73733 134.744 9.868C134.557 9.99867 134.464 10.1807 134.464 10.414C134.464 10.6753 134.595 10.876 134.856 11.016C135.117 11.1467 135.523 11.282 136.074 11.422C136.634 11.562 137.096 11.7067 137.46 11.856C137.824 12.0053 138.137 12.2387 138.398 12.556C138.669 12.864 138.809 13.2747 138.818 13.788C138.818 14.236 138.692 14.6373 138.44 14.992C138.197 15.3467 137.843 15.6267 137.376 15.832C136.919 16.028 136.382 16.126 135.766 16.126ZM146.731 16.126C146.096 16.126 145.527 16.014 145.023 15.79C144.519 15.5567 144.118 15.244 143.819 14.852C143.53 14.46 143.371 14.026 143.343 13.55H145.317C145.354 13.8487 145.499 14.096 145.751 14.292C146.012 14.488 146.334 14.586 146.717 14.586C147.09 14.586 147.38 14.5113 147.585 14.362C147.8 14.2127 147.907 14.0213 147.907 13.788C147.907 13.536 147.776 13.3493 147.515 13.228C147.263 13.0973 146.857 12.9573 146.297 12.808C145.718 12.668 145.242 12.5233 144.869 12.374C144.505 12.2247 144.188 11.996 143.917 11.688C143.656 11.38 143.525 10.9647 143.525 10.442C143.525 10.0127 143.646 9.62067 143.889 9.266C144.141 8.91133 144.496 8.63133 144.953 8.426C145.42 8.22067 145.966 8.118 146.591 8.118C147.515 8.118 148.252 8.35133 148.803 8.818C149.354 9.27533 149.657 9.896 149.713 10.68H147.837C147.809 10.372 147.678 10.1293 147.445 9.952C147.221 9.76533 146.918 9.672 146.535 9.672C146.18 9.672 145.905 9.73733 145.709 9.868C145.522 9.99867 145.429 10.1807 145.429 10.414C145.429 10.6753 145.56 10.876 145.821 11.016C146.082 11.1467 146.488 11.282 147.039 11.422C147.599 11.562 148.061 11.7067 148.425 11.856C148.789 12.0053 149.102 12.2387 149.363 12.556C149.634 12.864 149.774 13.2747 149.783 13.788C149.783 14.236 149.657 14.6373 149.405 14.992C149.162 15.3467 148.808 15.6267 148.341 15.832C147.884 16.028 147.347 16.126 146.731 16.126ZM152.386 7.32C152.04 7.32 151.751 7.21267 151.518 6.998C151.294 6.774 151.182 6.49867 151.182 6.172C151.182 5.84533 151.294 5.57467 151.518 5.36C151.751 5.136 152.04 5.024 152.386 5.024C152.731 5.024 153.016 5.136 153.24 5.36C153.473 5.57467 153.59 5.84533 153.59 6.172C153.59 6.49867 153.473 6.774 153.24 6.998C153.016 7.21267 152.731 7.32 152.386 7.32ZM153.352 8.244V16H151.392V8.244H153.352ZM164.92 8.132C165.872 8.132 166.638 8.426 167.216 9.014C167.804 9.59267 168.098 10.4047 168.098 11.45V16H166.138V11.716C166.138 11.1093 165.984 10.6473 165.676 10.33C165.368 10.0033 164.948 9.84 164.416 9.84C163.884 9.84 163.46 10.0033 163.142 10.33C162.834 10.6473 162.68 11.1093 162.68 11.716V16H160.72V11.716C160.72 11.1093 160.566 10.6473 160.258 10.33C159.95 10.0033 159.53 9.84 158.998 9.84C158.457 9.84 158.028 10.0033 157.71 10.33C157.402 10.6473 157.248 11.1093 157.248 11.716V16H155.288V8.244H157.248V9.182C157.5 8.85533 157.822 8.59867 158.214 8.412C158.616 8.22533 159.054 8.132 159.53 8.132C160.137 8.132 160.678 8.26267 161.154 8.524C161.63 8.776 161.999 9.14 162.26 9.616C162.512 9.168 162.876 8.80867 163.352 8.538C163.838 8.26733 164.36 8.132 164.92 8.132ZM171.918 9.364C172.17 9.00933 172.516 8.71533 172.954 8.482C173.402 8.23933 173.911 8.118 174.48 8.118C175.143 8.118 175.74 8.28133 176.272 8.608C176.814 8.93467 177.238 9.40133 177.546 10.008C177.864 10.6053 178.022 11.3007 178.022 12.094C178.022 12.8873 177.864 13.592 177.546 14.208C177.238 14.8147 176.814 15.286 176.272 15.622C175.74 15.958 175.143 16.126 174.48 16.126C173.911 16.126 173.407 16.0093 172.968 15.776C172.539 15.5427 172.189 15.2487 171.918 14.894V19.696H169.958V8.244H171.918V9.364ZM176.02 12.094C176.02 11.6273 175.922 11.226 175.726 10.89C175.54 10.5447 175.288 10.2833 174.97 10.106C174.662 9.92867 174.326 9.84 173.962 9.84C173.608 9.84 173.272 9.93333 172.954 10.12C172.646 10.2973 172.394 10.5587 172.198 10.904C172.012 11.2493 171.918 11.6553 171.918 12.122C171.918 12.5887 172.012 12.9947 172.198 13.34C172.394 13.6853 172.646 13.9513 172.954 14.138C173.272 14.3153 173.608 14.404 173.962 14.404C174.326 14.404 174.662 14.3107 174.97 14.124C175.288 13.9373 175.54 13.6713 175.726 13.326C175.922 12.9807 176.02 12.57 176.02 12.094ZM181.406 5.64V16H179.446V5.64H181.406ZM190.763 8.244L185.961 19.668H183.875L185.555 15.804L182.447 8.244H184.645L186.647 13.662L188.677 8.244H190.763ZM194.651 12.094C194.651 11.31 194.805 10.6147 195.113 10.008C195.431 9.40133 195.86 8.93467 196.401 8.608C196.943 8.28133 197.545 8.118 198.207 8.118C198.711 8.118 199.192 8.23 199.649 8.454C200.107 8.66867 200.471 8.958 200.741 9.322V5.64H202.729V16H200.741V14.852C200.499 15.2347 200.158 15.5427 199.719 15.776C199.281 16.0093 198.772 16.126 198.193 16.126C197.54 16.126 196.943 15.958 196.401 15.622C195.86 15.286 195.431 14.8147 195.113 14.208C194.805 13.592 194.651 12.8873 194.651 12.094ZM200.755 12.122C200.755 11.646 200.662 11.24 200.475 10.904C200.289 10.5587 200.037 10.2973 199.719 10.12C199.402 9.93333 199.061 9.84 198.697 9.84C198.333 9.84 197.997 9.92867 197.689 10.106C197.381 10.2833 197.129 10.5447 196.933 10.89C196.747 11.226 196.653 11.6273 196.653 12.094C196.653 12.5607 196.747 12.9713 196.933 13.326C197.129 13.6713 197.381 13.9373 197.689 14.124C198.007 14.3107 198.343 14.404 198.697 14.404C199.061 14.404 199.402 14.3153 199.719 14.138C200.037 13.9513 200.289 13.69 200.475 13.354C200.662 13.0087 200.755 12.598 200.755 12.122ZM211.966 8.244V16H209.992V15.02C209.74 15.356 209.408 15.622 208.998 15.818C208.596 16.0047 208.158 16.098 207.682 16.098C207.075 16.098 206.538 15.972 206.072 15.72C205.605 15.4587 205.236 15.0807 204.966 14.586C204.704 14.082 204.574 13.4847 204.574 12.794V8.244H206.534V12.514C206.534 13.13 206.688 13.606 206.996 13.942C207.304 14.2687 207.724 14.432 208.256 14.432C208.797 14.432 209.222 14.2687 209.53 13.942C209.838 13.606 209.992 13.13 209.992 12.514V8.244H211.966ZM223.532 8.132C224.484 8.132 225.249 8.426 225.828 9.014C226.416 9.59267 226.71 10.4047 226.71 11.45V16H224.75V11.716C224.75 11.1093 224.596 10.6473 224.288 10.33C223.98 10.0033 223.56 9.84 223.028 9.84C222.496 9.84 222.071 10.0033 221.754 10.33C221.446 10.6473 221.292 11.1093 221.292 11.716V16H219.332V11.716C219.332 11.1093 219.178 10.6473 218.87 10.33C218.562 10.0033 218.142 9.84 217.61 9.84C217.068 9.84 216.639 10.0033 216.322 10.33C216.014 10.6473 215.86 11.1093 215.86 11.716V16H213.9V8.244H215.86V9.182C216.112 8.85533 216.434 8.59867 216.826 8.412C217.227 8.22533 217.666 8.132 218.142 8.132C218.748 8.132 219.29 8.26267 219.766 8.524C220.242 8.776 220.61 9.14 220.872 9.616C221.124 9.168 221.488 8.80867 221.964 8.538C222.449 8.26733 222.972 8.132 223.532 8.132ZM238.202 8.132C239.154 8.132 239.919 8.426 240.498 9.014C241.086 9.59267 241.38 10.4047 241.38 11.45V16H239.42V11.716C239.42 11.1093 239.266 10.6473 238.958 10.33C238.65 10.0033 238.23 9.84 237.698 9.84C237.166 9.84 236.741 10.0033 236.424 10.33C236.116 10.6473 235.962 11.1093 235.962 11.716V16H234.002V11.716C234.002 11.1093 233.848 10.6473 233.54 10.33C233.232 10.0033 232.812 9.84 232.28 9.84C231.738 9.84 231.309 10.0033 230.992 10.33C230.684 10.6473 230.53 11.1093 230.53 11.716V16H228.57V8.244H230.53V9.182C230.782 8.85533 231.104 8.59867 231.496 8.412C231.897 8.22533 232.336 8.132 232.812 8.132C233.418 8.132 233.96 8.26267 234.436 8.524C234.912 8.776 235.28 9.14 235.542 9.616C235.794 9.168 236.158 8.80867 236.634 8.538C237.119 8.26733 237.642 8.132 238.202 8.132ZM250.659 8.244L245.857 19.668H243.771L245.451 15.804L242.343 8.244H244.541L246.543 13.662L248.573 8.244H250.659ZM257.334 9.854V13.606C257.334 13.8673 257.395 14.0587 257.516 14.18C257.647 14.292 257.861 14.348 258.16 14.348H259.07V16H257.838C256.186 16 255.36 15.1973 255.36 13.592V9.854H254.436V8.244H255.36V6.326H257.334V8.244H259.07V9.854H257.334ZM267.69 11.954C267.69 12.234 267.671 12.486 267.634 12.71H261.964C262.01 13.27 262.206 13.7087 262.552 14.026C262.897 14.3433 263.322 14.502 263.826 14.502C264.554 14.502 265.072 14.1893 265.38 13.564H267.494C267.27 14.3107 266.84 14.9267 266.206 15.412C265.571 15.888 264.792 16.126 263.868 16.126C263.121 16.126 262.449 15.9627 261.852 15.636C261.264 15.3 260.802 14.8287 260.466 14.222C260.139 13.6153 259.976 12.9153 259.976 12.122C259.976 11.3193 260.139 10.6147 260.466 10.008C260.792 9.40133 261.25 8.93467 261.838 8.608C262.426 8.28133 263.102 8.118 263.868 8.118C264.605 8.118 265.263 8.27667 265.842 8.594C266.43 8.91133 266.882 9.364 267.2 9.952C267.526 10.5307 267.69 11.198 267.69 11.954ZM265.66 11.394C265.65 10.89 265.468 10.4887 265.114 10.19C264.759 9.882 264.325 9.728 263.812 9.728C263.326 9.728 262.916 9.87733 262.58 10.176C262.253 10.4653 262.052 10.8713 261.978 11.394H265.66ZM273.404 16L271.808 13.592L270.394 16H268.294L270.828 12.108L268.266 8.244H270.478L272.06 10.638L273.488 8.244H275.588L273.04 12.108L275.616 16H273.404ZM278.963 9.854V13.606C278.963 13.8673 279.024 14.0587 279.145 14.18C279.276 14.292 279.49 14.348 279.789 14.348H280.699V16H279.467C277.815 16 276.989 15.1973 276.989 13.592V9.854H276.065V8.244H276.989V6.326H278.963V8.244H280.699V9.854H278.963ZM288.889 16.126C288.142 16.126 287.47 15.9627 286.873 15.636C286.275 15.3 285.804 14.8287 285.459 14.222C285.123 13.6153 284.955 12.9153 284.955 12.122C284.955 11.3287 285.127 10.6287 285.473 10.022C285.827 9.41533 286.308 8.94867 286.915 8.622C287.521 8.286 288.198 8.118 288.945 8.118C289.691 8.118 290.368 8.286 290.975 8.622C291.581 8.94867 292.057 9.41533 292.403 10.022C292.757 10.6287 292.935 11.3287 292.935 12.122C292.935 12.9153 292.753 13.6153 292.389 14.222C292.034 14.8287 291.549 15.3 290.933 15.636C290.326 15.9627 289.645 16.126 288.889 16.126ZM288.889 14.418C289.243 14.418 289.575 14.334 289.883 14.166C290.2 13.9887 290.452 13.7273 290.639 13.382C290.825 13.0367 290.919 12.6167 290.919 12.122C290.919 11.3847 290.723 10.82 290.331 10.428C289.948 10.0267 289.477 9.826 288.917 9.826C288.357 9.826 287.885 10.0267 287.503 10.428C287.129 10.82 286.943 11.3847 286.943 12.122C286.943 12.8593 287.125 13.4287 287.489 13.83C287.862 14.222 288.329 14.418 288.889 14.418ZM297.928 9.854H296.57V16H294.582V9.854H293.7V8.244H294.582V7.852C294.582 6.9 294.853 6.2 295.394 5.752C295.936 5.304 296.752 5.094 297.844 5.122V6.774C297.368 6.76467 297.037 6.844 296.85 7.012C296.664 7.18 296.57 7.48333 296.57 7.922V8.244H297.928V9.854ZM304.816 9.854V13.606C304.816 13.8673 304.877 14.0587 304.998 14.18C305.129 14.292 305.344 14.348 305.642 14.348H306.552V16H305.32C303.668 16 302.842 15.1973 302.842 13.592V9.854H301.918V8.244H302.842V6.326H304.816V8.244H306.552V9.854H304.816ZM312.33 8.132C312.918 8.132 313.441 8.26267 313.898 8.524C314.355 8.776 314.71 9.154 314.962 9.658C315.223 10.1527 315.354 10.75 315.354 11.45V16H313.394V11.716C313.394 11.1 313.24 10.6287 312.932 10.302C312.624 9.966 312.204 9.798 311.672 9.798C311.131 9.798 310.701 9.966 310.384 10.302C310.076 10.6287 309.922 11.1 309.922 11.716V16H307.962V5.64H309.922V9.21C310.174 8.874 310.51 8.61267 310.93 8.426C311.35 8.23 311.817 8.132 312.33 8.132ZM324.428 11.954C324.428 12.234 324.409 12.486 324.372 12.71H318.702C318.749 13.27 318.945 13.7087 319.29 14.026C319.635 14.3433 320.06 14.502 320.564 14.502C321.292 14.502 321.81 14.1893 322.118 13.564H324.232C324.008 14.3107 323.579 14.9267 322.944 15.412C322.309 15.888 321.53 16.126 320.606 16.126C319.859 16.126 319.187 15.9627 318.59 15.636C318.002 15.3 317.54 14.8287 317.204 14.222C316.877 13.6153 316.714 12.9153 316.714 12.122C316.714 11.3193 316.877 10.6147 317.204 10.008C317.531 9.40133 317.988 8.93467 318.576 8.608C319.164 8.28133 319.841 8.118 320.606 8.118C321.343 8.118 322.001 8.27667 322.58 8.594C323.168 8.91133 323.621 9.364 323.938 9.952C324.265 10.5307 324.428 11.198 324.428 11.954ZM322.398 11.394C322.389 10.89 322.207 10.4887 321.852 10.19C321.497 9.882 321.063 9.728 320.55 9.728C320.065 9.728 319.654 9.87733 319.318 10.176C318.991 10.4653 318.791 10.8713 318.716 11.394H322.398ZM331.155 9.364C331.407 9.00933 331.752 8.71533 332.191 8.482C332.639 8.23933 333.147 8.118 333.717 8.118C334.379 8.118 334.977 8.28133 335.509 8.608C336.05 8.93467 336.475 9.40133 336.783 10.008C337.1 10.6053 337.259 11.3007 337.259 12.094C337.259 12.8873 337.1 13.592 336.783 14.208C336.475 14.8147 336.05 15.286 335.509 15.622C334.977 15.958 334.379 16.126 333.717 16.126C333.147 16.126 332.643 16.0093 332.205 15.776C331.775 15.5427 331.425 15.2487 331.155 14.894V19.696H329.195V8.244H331.155V9.364ZM335.257 12.094C335.257 11.6273 335.159 11.226 334.963 10.89C334.776 10.5447 334.524 10.2833 334.207 10.106C333.899 9.92867 333.563 9.84 333.199 9.84C332.844 9.84 332.508 9.93333 332.191 10.12C331.883 10.2973 331.631 10.5587 331.435 10.904C331.248 11.2493 331.155 11.6553 331.155 12.122C331.155 12.5887 331.248 12.9947 331.435 13.34C331.631 13.6853 331.883 13.9513 332.191 14.138C332.508 14.3153 332.844 14.404 333.199 14.404C333.563 14.404 333.899 14.3107 334.207 14.124C334.524 13.9373 334.776 13.6713 334.963 13.326C335.159 12.9807 335.257 12.57 335.257 12.094ZM340.643 9.448C340.895 9.03733 341.221 8.71533 341.623 8.482C342.033 8.24867 342.5 8.132 343.023 8.132V10.19H342.505C341.889 10.19 341.422 10.3347 341.105 10.624C340.797 10.9133 340.643 11.4173 340.643 12.136V16H338.683V8.244H340.643V9.448ZM345.337 7.32C344.992 7.32 344.702 7.21267 344.469 6.998C344.245 6.774 344.133 6.49867 344.133 6.172C344.133 5.84533 344.245 5.57467 344.469 5.36C344.702 5.136 344.992 5.024 345.337 5.024C345.682 5.024 345.967 5.136 346.191 5.36C346.424 5.57467 346.541 5.84533 346.541 6.172C346.541 6.49867 346.424 6.774 346.191 6.998C345.967 7.21267 345.682 7.32 345.337 7.32ZM346.303 8.244V16H344.343V8.244H346.303ZM352.537 8.132C353.461 8.132 354.208 8.426 354.777 9.014C355.347 9.59267 355.631 10.4047 355.631 11.45V16H353.671V11.716C353.671 11.1 353.517 10.6287 353.209 10.302C352.901 9.966 352.481 9.798 351.949 9.798C351.408 9.798 350.979 9.966 350.661 10.302C350.353 10.6287 350.199 11.1 350.199 11.716V16H348.239V8.244H350.199V9.21C350.461 8.874 350.792 8.61267 351.193 8.426C351.604 8.23 352.052 8.132 352.537 8.132ZM359.777 9.854V13.606C359.777 13.8673 359.838 14.0587 359.959 14.18C360.09 14.292 360.305 14.348 360.603 14.348H361.513V16H360.281C358.629 16 357.803 15.1973 357.803 13.592V9.854H356.879V8.244H357.803V6.326H359.777V8.244H361.513V9.854H359.777ZM363.917 7.32C363.572 7.32 363.282 7.21267 363.049 6.998C362.825 6.774 362.713 6.49867 362.713 6.172C362.713 5.84533 362.825 5.57467 363.049 5.36C363.282 5.136 363.572 5.024 363.917 5.024C364.262 5.024 364.547 5.136 364.771 5.36C365.004 5.57467 365.121 5.84533 365.121 6.172C365.121 6.49867 365.004 6.774 364.771 6.998C364.547 7.21267 364.262 7.32 363.917 7.32ZM364.883 8.244V16H362.923V8.244H364.883ZM371.118 8.132C372.042 8.132 372.788 8.426 373.358 9.014C373.927 9.59267 374.212 10.4047 374.212 11.45V16H372.252V11.716C372.252 11.1 372.098 10.6287 371.79 10.302C371.482 9.966 371.062 9.798 370.53 9.798C369.988 9.798 369.559 9.966 369.242 10.302C368.934 10.6287 368.78 11.1 368.78 11.716V16H366.82V8.244H368.78V9.21C369.041 8.874 369.372 8.61267 369.774 8.426C370.184 8.23 370.632 8.132 371.118 8.132ZM379.113 8.118C379.692 8.118 380.201 8.23467 380.639 8.468C381.078 8.692 381.423 8.986 381.675 9.35V8.244H383.649V16.056C383.649 16.7747 383.505 17.414 383.215 17.974C382.926 18.5433 382.492 18.9913 381.913 19.318C381.335 19.654 380.635 19.822 379.813 19.822C378.712 19.822 377.807 19.5653 377.097 19.052C376.397 18.5387 376.001 17.8387 375.907 16.952H377.853C377.956 17.3067 378.175 17.5867 378.511 17.792C378.857 18.0067 379.272 18.114 379.757 18.114C380.327 18.114 380.789 17.9413 381.143 17.596C381.498 17.26 381.675 16.7467 381.675 16.056V14.852C381.423 15.216 381.073 15.5193 380.625 15.762C380.187 16.0047 379.683 16.126 379.113 16.126C378.46 16.126 377.863 15.958 377.321 15.622C376.78 15.286 376.351 14.8147 376.033 14.208C375.725 13.592 375.571 12.8873 375.571 12.094C375.571 11.31 375.725 10.6147 376.033 10.008C376.351 9.40133 376.775 8.93467 377.307 8.608C377.849 8.28133 378.451 8.118 379.113 8.118ZM381.675 12.122C381.675 11.646 381.582 11.24 381.395 10.904C381.209 10.5587 380.957 10.2973 380.639 10.12C380.322 9.93333 379.981 9.84 379.617 9.84C379.253 9.84 378.917 9.92867 378.609 10.106C378.301 10.2833 378.049 10.5447 377.853 10.89C377.667 11.226 377.573 11.6273 377.573 12.094C377.573 12.5607 377.667 12.9713 377.853 13.326C378.049 13.6713 378.301 13.9373 378.609 14.124C378.927 14.3107 379.263 14.404 379.617 14.404C379.981 14.404 380.322 14.3153 380.639 14.138C380.957 13.9513 381.209 13.69 381.395 13.354C381.582 13.0087 381.675 12.598 381.675 12.122Z" fill="white"/>
<g clip-path="url(#clip0_1_50674)">
<path fill-rule="evenodd" clip-rule="evenodd" d="M18 11C18 13.3869 17.0518 15.6761 15.364 17.364C13.6761 19.0518 11.3869 20 9 20C6.61305 20 4.32387 19.0518 2.63604 17.364C0.948212 15.6761 0 13.3869 0 11C0 8.61305 0.948212 6.32387 2.63604 4.63604C4.32387 2.94821 6.61305 2 9 2C11.3869 2 13.6761 2.94821 15.364 4.63604C17.0518 6.32387 18 8.61305 18 11ZM13.5337 7.59125C13.4534 7.51117 13.3577 7.44812 13.2524 7.40587C13.1471 7.36361 13.0344 7.34303 12.921 7.34534C12.8076 7.34765 12.6958 7.37281 12.5923 7.41931C12.4888 7.46582 12.3958 7.53271 12.3187 7.616L8.41162 12.5941L6.057 10.2384C5.89705 10.0893 5.6855 10.0082 5.46691 10.0121C5.24832 10.0159 5.03976 10.1045 4.88518 10.2591C4.73059 10.4136 4.64204 10.6222 4.63818 10.8408C4.63432 11.0594 4.71546 11.2709 4.8645 11.4309L7.84125 14.4087C7.92144 14.4888 8.01693 14.5519 8.12203 14.5942C8.22713 14.6366 8.33968 14.6573 8.45296 14.6552C8.56625 14.6531 8.67795 14.6282 8.78141 14.582C8.88486 14.5358 8.97795 14.4692 9.05512 14.3863L13.5461 8.7725C13.6992 8.61331 13.7838 8.40043 13.7817 8.17958C13.7796 7.95872 13.691 7.74749 13.5349 7.59125H13.5337Z" fill="white"/>
</g>
<defs>
<clipPath id="clip0_1_50674">
<rect width="18" height="18" fill="white" transform="translate(0 2)"/>
</clipPath>
</defs>
</svg>
