<svg width="966" height="180" viewBox="0 0 966 180" fill="none" xmlns="http://www.w3.org/2000/svg">
<path d="M17.671 115.143C13.0673 110.54 9.67923 107.15 7.22023 104.253C4.7726 101.37 3.33377 99.0746 2.56018 96.6937C1.14661 92.3432 1.14661 87.6568 2.56018 83.3063C3.33377 80.9254 4.7726 78.6297 7.22023 75.7466C9.67922 72.85 13.0673 69.4602 17.671 64.8566L64.8566 17.671C69.4602 13.0673 72.85 9.67923 75.7466 7.22023C78.6297 4.7726 80.9254 3.33377 83.3063 2.56018C87.6568 1.14661 92.3432 1.14661 96.6937 2.56018C99.0746 3.33377 101.37 4.7726 104.253 7.22023C107.15 9.67922 110.54 13.0673 115.143 17.671L162.329 64.8566C166.933 69.4602 170.321 72.85 172.78 75.7466C175.227 78.6297 176.666 80.9254 177.44 83.3063C178.853 87.6568 178.853 92.3432 177.44 96.6937C176.666 99.0746 175.227 101.37 172.78 104.253C170.321 107.15 166.933 110.54 162.329 115.143L115.143 162.329C110.54 166.933 107.15 170.321 104.253 172.78C101.37 175.227 99.0746 176.666 96.6937 177.44C92.3432 178.853 87.6568 178.853 83.3063 177.44C80.9254 176.666 78.6297 175.227 75.7466 172.78C72.85 170.321 69.4602 166.933 64.8566 162.329L17.671 115.143Z" stroke="white" stroke-width="3"/>
<g clip-path="url(#clip0_1_50579)">
<path d="M116.602 71.2156C116.295 70.4246 115.629 69.8507 114.821 69.6805C113.994 69.5061 113.131 69.7725 112.512 70.3921L106.735 76.1684L103.915 73.3478L110.058 67.2043C110.698 66.5647 110.972 65.674 110.793 64.8216C110.617 63.9883 110.025 63.3017 109.21 62.9848C103.848 60.9021 97.7561 62.1842 93.6897 66.2505C91.5486 68.3916 90.1507 71.095 89.6458 74.0702C89.5378 74.5762 89.4333 75.1136 89.3227 75.682C88.6768 79.0021 87.8729 83.1342 85.516 85.4909L64.4131 106.594C61.8073 109.2 61.8073 113.44 64.4131 116.046C65.716 117.349 67.4275 118 69.139 118C70.8503 118 72.5619 117.349 73.8648 116.046L94.9676 94.9428C97.3246 92.5858 101.457 91.7821 104.777 91.1361C105.345 91.0255 105.882 90.921 106.389 90.813C109.364 90.3081 112.067 88.9102 114.208 86.7691C114.84 86.1373 115.023 85.2798 114.761 84.5174C117.628 80.7195 118.342 75.6948 116.602 71.2156ZM114.058 71.9386C114.155 71.8424 114.268 71.7993 114.37 71.8209C114.457 71.8393 114.522 71.9021 114.563 72.0074C115.962 75.6076 115.478 79.6266 113.331 82.764L108.282 77.715L114.058 71.9386ZM112.662 85.2226C110.838 87.0457 108.535 88.2343 106.002 88.6601C105.986 88.6628 105.97 88.6658 105.954 88.6692C105.461 88.7747 104.926 88.8788 104.359 88.9891C100.746 89.6919 96.2504 90.5665 93.4208 93.3961L72.3181 114.499C70.5653 116.252 67.713 116.252 65.9598 114.499C64.2069 112.746 64.2069 109.894 65.9598 108.141L87.0628 87.0377C89.8924 84.2082 90.767 79.7123 91.4698 76.0997C91.5801 75.5327 91.6842 74.9973 91.7897 74.5042C91.7931 74.4884 91.7961 74.4726 91.7989 74.4566C92.2244 71.9232 93.4131 69.6203 95.2364 67.797C97.5911 65.4423 100.745 64.1872 103.957 64.1872C105.456 64.1872 106.969 64.4607 108.418 65.0235C108.55 65.0747 108.629 65.1583 108.652 65.2719C108.679 65.4002 108.628 65.5407 108.512 65.6572L101.595 72.574C101.168 73.0011 101.168 73.6936 101.595 74.1208L112.668 85.1937C112.671 85.1975 112.675 85.2011 112.678 85.2045C112.674 85.2101 112.668 85.2159 112.662 85.2226Z" fill="white"/>
<path d="M100.048 75.6679C99.8424 75.4628 99.5643 75.3475 99.2742 75.3475C98.9842 75.3475 98.706 75.4628 98.5009 75.6679L95.4077 78.7612C94.9806 79.1883 94.9806 79.8808 95.4077 80.3079L99.7749 84.6753C99.98 84.8803 100.258 84.9956 100.548 84.9956C100.838 84.9956 101.116 84.8803 101.322 84.6753L104.415 81.5819C104.842 81.1549 104.842 80.4624 104.415 80.0352L100.048 75.6679ZM100.548 82.3551L97.7276 79.5345L99.2742 77.9878L102.095 80.8084L100.548 82.3551Z" fill="white"/>
<path d="M69.912 110.546C69.4849 110.119 68.7927 110.12 68.3656 110.547C67.9385 110.974 67.9388 111.666 68.3658 112.094C68.5794 112.307 68.8593 112.414 69.1392 112.414C69.419 112.414 69.6989 112.307 69.9125 112.094C70.3396 111.667 70.3396 110.974 69.9125 110.547L69.912 110.546Z" fill="white"/>
<path d="M89.4689 89.444L71.8459 107.067C71.4189 107.494 71.4189 108.186 71.8459 108.614C72.0595 108.827 72.3394 108.934 72.6193 108.934C72.8991 108.934 73.179 108.827 73.3926 108.614L91.0155 90.9906C91.4426 90.5636 91.4426 89.8711 91.0155 89.4439C90.5883 89.0169 89.896 89.0169 89.4689 89.444Z" fill="white"/>
</g>
<g clip-path="url(#clip1_1_50579)">
<path d="M378.602 71.2156C378.295 70.4246 377.629 69.8507 376.821 69.6805C375.994 69.5061 375.131 69.7725 374.512 70.3921L368.735 76.1684L365.915 73.3478L372.058 67.2043C372.698 66.5647 372.972 65.674 372.793 64.8216C372.617 63.9883 372.025 63.3017 371.21 62.9848C365.848 60.9021 359.756 62.1842 355.69 66.2505C353.549 68.3916 352.151 71.095 351.646 74.0702C351.538 74.5762 351.433 75.1136 351.323 75.682C350.677 79.0021 349.873 83.1342 347.516 85.4909L326.413 106.594C323.807 109.2 323.807 113.44 326.413 116.046C327.716 117.349 329.428 118 331.139 118C332.85 118 334.562 117.349 335.865 116.046L356.968 94.9428C359.325 92.5858 363.457 91.7821 366.777 91.1361C367.345 91.0255 367.882 90.921 368.389 90.813C371.364 90.3081 374.067 88.9102 376.208 86.7691C376.84 86.1373 377.023 85.2798 376.761 84.5174C379.628 80.7195 380.342 75.6948 378.602 71.2156ZM376.058 71.9386C376.155 71.8424 376.268 71.7993 376.37 71.8209C376.457 71.8393 376.522 71.9021 376.563 72.0074C377.962 75.6076 377.478 79.6266 375.331 82.764L370.282 77.715L376.058 71.9386ZM374.662 85.2226C372.838 87.0457 370.535 88.2343 368.002 88.6601C367.986 88.6628 367.97 88.6658 367.954 88.6692C367.461 88.7747 366.926 88.8788 366.359 88.9891C362.746 89.6919 358.25 90.5665 355.421 93.3961L334.318 114.499C332.565 116.252 329.713 116.252 327.96 114.499C326.207 112.746 326.207 109.894 327.96 108.141L349.063 87.0377C351.892 84.2082 352.767 79.7123 353.47 76.0997C353.58 75.5327 353.684 74.9973 353.79 74.5042C353.793 74.4884 353.796 74.4726 353.799 74.4566C354.224 71.9232 355.413 69.6203 357.236 67.797C359.591 65.4423 362.745 64.1872 365.957 64.1872C367.456 64.1872 368.969 64.4607 370.418 65.0235C370.55 65.0747 370.629 65.1583 370.652 65.2719C370.679 65.4002 370.628 65.5407 370.512 65.6572L363.595 72.574C363.168 73.0011 363.168 73.6936 363.595 74.1208L374.668 85.1937C374.671 85.1975 374.675 85.2011 374.678 85.2045C374.674 85.2101 374.668 85.2159 374.662 85.2226Z" fill="white"/>
<path d="M362.048 75.6679C361.842 75.4628 361.564 75.3475 361.274 75.3475C360.984 75.3475 360.706 75.4628 360.501 75.6679L357.408 78.7612C356.981 79.1883 356.981 79.8808 357.408 80.3079L361.775 84.6753C361.98 84.8803 362.258 84.9956 362.548 84.9956C362.838 84.9956 363.116 84.8803 363.322 84.6753L366.415 81.5819C366.842 81.1549 366.842 80.4624 366.415 80.0352L362.048 75.6679ZM362.548 82.3551L359.728 79.5345L361.274 77.9878L364.095 80.8084L362.548 82.3551Z" fill="white"/>
<path d="M331.912 110.546C331.485 110.119 330.793 110.12 330.366 110.547C329.939 110.974 329.939 111.666 330.366 112.094C330.579 112.307 330.859 112.414 331.139 112.414C331.419 112.414 331.699 112.307 331.912 112.094C332.34 111.667 332.34 110.974 331.912 110.547L331.912 110.546Z" fill="white"/>
<path d="M351.469 89.444L333.846 107.067C333.419 107.494 333.419 108.186 333.846 108.614C334.06 108.827 334.339 108.934 334.619 108.934C334.899 108.934 335.179 108.827 335.393 108.614L353.016 90.9906C353.443 90.5636 353.443 89.8711 353.016 89.4439C352.588 89.0169 351.896 89.0169 351.469 89.444Z" fill="white"/>
</g>
<g clip-path="url(#clip2_1_50579)">
<path d="M640.602 71.2156C640.295 70.4246 639.629 69.8507 638.821 69.6805C637.994 69.5061 637.131 69.7725 636.512 70.3921L630.735 76.1684L627.915 73.3478L634.058 67.2043C634.698 66.5647 634.972 65.674 634.793 64.8216C634.617 63.9883 634.025 63.3017 633.21 62.9848C627.848 60.9021 621.756 62.1842 617.69 66.2505C615.549 68.3916 614.151 71.095 613.646 74.0702C613.538 74.5762 613.433 75.1136 613.323 75.682C612.677 79.0021 611.873 83.1342 609.516 85.4909L588.413 106.594C585.807 109.2 585.807 113.44 588.413 116.046C589.716 117.349 591.428 118 593.139 118C594.85 118 596.562 117.349 597.865 116.046L618.968 94.9428C621.325 92.5858 625.457 91.7821 628.777 91.1361C629.345 91.0255 629.882 90.921 630.389 90.813C633.364 90.3081 636.067 88.9102 638.208 86.7691C638.84 86.1373 639.023 85.2798 638.761 84.5174C641.628 80.7195 642.342 75.6948 640.602 71.2156ZM638.058 71.9386C638.155 71.8424 638.268 71.7993 638.37 71.8209C638.457 71.8393 638.522 71.9021 638.563 72.0074C639.962 75.6076 639.478 79.6266 637.331 82.764L632.282 77.715L638.058 71.9386ZM636.662 85.2226C634.838 87.0457 632.535 88.2343 630.002 88.6601C629.986 88.6628 629.97 88.6658 629.954 88.6692C629.461 88.7747 628.926 88.8788 628.359 88.9891C624.746 89.6919 620.25 90.5665 617.421 93.3961L596.318 114.499C594.565 116.252 591.713 116.252 589.96 114.499C588.207 112.746 588.207 109.894 589.96 108.141L611.063 87.0377C613.892 84.2082 614.767 79.7123 615.47 76.0997C615.58 75.5327 615.684 74.9973 615.79 74.5042C615.793 74.4884 615.796 74.4726 615.799 74.4566C616.224 71.9232 617.413 69.6203 619.236 67.797C621.591 65.4423 624.745 64.1872 627.957 64.1872C629.456 64.1872 630.969 64.4607 632.418 65.0235C632.55 65.0747 632.629 65.1583 632.652 65.2719C632.679 65.4002 632.628 65.5407 632.512 65.6572L625.595 72.574C625.168 73.0011 625.168 73.6936 625.595 74.1208L636.668 85.1937C636.671 85.1975 636.675 85.2011 636.678 85.2045C636.674 85.2101 636.668 85.2159 636.662 85.2226Z" fill="white"/>
<path d="M624.048 75.6679C623.842 75.4628 623.564 75.3475 623.274 75.3475C622.984 75.3475 622.706 75.4628 622.501 75.6679L619.408 78.7612C618.981 79.1883 618.981 79.8808 619.408 80.3079L623.775 84.6753C623.98 84.8803 624.258 84.9956 624.548 84.9956C624.838 84.9956 625.116 84.8803 625.322 84.6753L628.415 81.5819C628.842 81.1549 628.842 80.4624 628.415 80.0352L624.048 75.6679ZM624.548 82.3551L621.728 79.5345L623.274 77.9878L626.095 80.8084L624.548 82.3551Z" fill="white"/>
<path d="M593.912 110.546C593.485 110.119 592.793 110.12 592.366 110.547C591.939 110.974 591.939 111.666 592.366 112.094C592.579 112.307 592.859 112.414 593.139 112.414C593.419 112.414 593.699 112.307 593.912 112.094C594.34 111.667 594.34 110.974 593.912 110.547L593.912 110.546Z" fill="white"/>
<path d="M613.469 89.444L595.846 107.067C595.419 107.494 595.419 108.186 595.846 108.614C596.06 108.827 596.339 108.934 596.619 108.934C596.899 108.934 597.179 108.827 597.393 108.614L615.016 90.9906C615.443 90.5636 615.443 89.8711 615.016 89.4439C614.588 89.0169 613.896 89.0169 613.469 89.444Z" fill="white"/>
</g>
<g clip-path="url(#clip3_1_50579)">
<path d="M902.602 71.2156C902.295 70.4246 901.629 69.8507 900.821 69.6805C899.994 69.5061 899.131 69.7725 898.512 70.3921L892.735 76.1684L889.915 73.3478L896.058 67.2043C896.698 66.5647 896.972 65.674 896.793 64.8216C896.617 63.9883 896.025 63.3017 895.21 62.9848C889.848 60.9021 883.756 62.1842 879.69 66.2505C877.549 68.3916 876.151 71.095 875.646 74.0702C875.538 74.5762 875.433 75.1136 875.323 75.682C874.677 79.0021 873.873 83.1342 871.516 85.4909L850.413 106.594C847.807 109.2 847.807 113.44 850.413 116.046C851.716 117.349 853.428 118 855.139 118C856.85 118 858.562 117.349 859.865 116.046L880.968 94.9428C883.325 92.5858 887.457 91.7821 890.777 91.1361C891.345 91.0255 891.882 90.921 892.389 90.813C895.364 90.3081 898.067 88.9102 900.208 86.7691C900.84 86.1373 901.023 85.2798 900.761 84.5174C903.628 80.7195 904.342 75.6948 902.602 71.2156ZM900.058 71.9386C900.155 71.8424 900.268 71.7993 900.37 71.8209C900.457 71.8393 900.522 71.9021 900.563 72.0074C901.962 75.6076 901.478 79.6266 899.331 82.764L894.282 77.715L900.058 71.9386ZM898.662 85.2226C896.838 87.0457 894.535 88.2343 892.002 88.6601C891.986 88.6628 891.97 88.6658 891.954 88.6692C891.461 88.7747 890.926 88.8788 890.359 88.9891C886.746 89.6919 882.25 90.5665 879.421 93.3961L858.318 114.499C856.565 116.252 853.713 116.252 851.96 114.499C850.207 112.746 850.207 109.894 851.96 108.141L873.063 87.0377C875.892 84.2082 876.767 79.7123 877.47 76.0997C877.58 75.5327 877.684 74.9973 877.79 74.5042C877.793 74.4884 877.796 74.4726 877.799 74.4566C878.224 71.9232 879.413 69.6203 881.236 67.797C883.591 65.4423 886.745 64.1872 889.957 64.1872C891.456 64.1872 892.969 64.4607 894.418 65.0235C894.55 65.0747 894.629 65.1583 894.652 65.2719C894.679 65.4002 894.628 65.5407 894.512 65.6572L887.595 72.574C887.168 73.0011 887.168 73.6936 887.595 74.1208L898.668 85.1937C898.671 85.1975 898.675 85.2011 898.678 85.2045C898.674 85.2101 898.668 85.2159 898.662 85.2226Z" fill="white"/>
<path d="M886.048 75.6679C885.842 75.4628 885.564 75.3475 885.274 75.3475C884.984 75.3475 884.706 75.4628 884.501 75.6679L881.408 78.7612C880.981 79.1883 880.981 79.8808 881.408 80.3079L885.775 84.6753C885.98 84.8803 886.258 84.9956 886.548 84.9956C886.838 84.9956 887.116 84.8803 887.322 84.6753L890.415 81.5819C890.842 81.1549 890.842 80.4624 890.415 80.0352L886.048 75.6679ZM886.548 82.3551L883.728 79.5345L885.274 77.9878L888.095 80.8084L886.548 82.3551Z" fill="white"/>
<path d="M855.912 110.546C855.485 110.119 854.793 110.12 854.366 110.547C853.939 110.974 853.939 111.666 854.366 112.094C854.579 112.307 854.859 112.414 855.139 112.414C855.419 112.414 855.699 112.307 855.912 112.094C856.34 111.667 856.34 110.974 855.912 110.547L855.912 110.546Z" fill="white"/>
<path d="M875.469 89.444L857.846 107.067C857.419 107.494 857.419 108.186 857.846 108.614C858.06 108.827 858.339 108.934 858.619 108.934C858.899 108.934 859.179 108.827 859.393 108.614L877.016 90.9906C877.443 90.5636 877.443 89.8711 877.016 89.4439C876.588 89.0169 875.896 89.0169 875.469 89.444Z" fill="white"/>
</g>
<path d="M279.671 115.143C275.067 110.54 271.679 107.15 269.22 104.253C266.773 101.37 265.334 99.0746 264.56 96.6937C263.147 92.3432 263.147 87.6568 264.56 83.3063C265.334 80.9254 266.773 78.6297 269.22 75.7466C271.679 72.85 275.067 69.4602 279.671 64.8566L326.857 17.671C331.46 13.0673 334.85 9.67923 337.747 7.22023C340.63 4.7726 342.925 3.33377 345.306 2.56018C349.657 1.14661 354.343 1.14661 358.694 2.56018C361.075 3.33377 363.37 4.7726 366.253 7.22023C369.15 9.67922 372.54 13.0673 377.143 17.671L424.329 64.8566C428.933 69.4602 432.321 72.85 434.78 75.7466C437.227 78.6297 438.666 80.9254 439.44 83.3063C440.853 87.6568 440.853 92.3432 439.44 96.6937C438.666 99.0746 437.227 101.37 434.78 104.253C432.321 107.15 428.933 110.54 424.329 115.143L377.143 162.329C372.54 166.933 369.15 170.321 366.253 172.78C363.37 175.227 361.075 176.666 358.694 177.44C354.343 178.853 349.657 178.853 345.306 177.44C342.925 176.666 340.63 175.227 337.747 172.78C334.85 170.321 331.46 166.933 326.857 162.329L279.671 115.143Z" stroke="white" stroke-width="3"/>
<path d="M541.671 115.143C537.067 110.54 533.679 107.15 531.22 104.253C528.773 101.37 527.334 99.0746 526.56 96.6937C525.147 92.3432 525.147 87.6568 526.56 83.3063C527.334 80.9254 528.773 78.6297 531.22 75.7466C533.679 72.85 537.067 69.4602 541.671 64.8566L588.857 17.671C593.46 13.0673 596.85 9.67923 599.747 7.22023C602.63 4.7726 604.925 3.33377 607.306 2.56018C611.657 1.14661 616.343 1.14661 620.694 2.56018C623.075 3.33377 625.37 4.7726 628.253 7.22023C631.15 9.67922 634.54 13.0673 639.143 17.671L686.329 64.8566C690.933 69.4602 694.321 72.85 696.78 75.7466C699.227 78.6297 700.666 80.9254 701.44 83.3063C702.853 87.6568 702.853 92.3432 701.44 96.6937C700.666 99.0746 699.227 101.37 696.78 104.253C694.321 107.15 690.933 110.54 686.329 115.143L639.143 162.329C634.54 166.933 631.15 170.321 628.253 172.78C625.37 175.227 623.075 176.666 620.694 177.44C616.343 178.853 611.657 178.853 607.306 177.44C604.925 176.666 602.63 175.227 599.747 172.78C596.85 170.321 593.46 166.933 588.857 162.329L541.671 115.143Z" stroke="white" stroke-width="3"/>
<path d="M803.671 115.143C799.067 110.54 795.679 107.15 793.22 104.253C790.773 101.37 789.334 99.0746 788.56 96.6937C787.147 92.3432 787.147 87.6568 788.56 83.3063C789.334 80.9254 790.773 78.6297 793.22 75.7466C795.679 72.85 799.067 69.4602 803.671 64.8566L850.857 17.671C855.46 13.0673 858.85 9.67923 861.747 7.22023C864.63 4.7726 866.925 3.33377 869.306 2.56018C873.657 1.14661 878.343 1.14661 882.694 2.56018C885.075 3.33377 887.37 4.7726 890.253 7.22023C893.15 9.67922 896.54 13.0673 901.143 17.671L948.329 64.8566C952.933 69.4602 956.321 72.85 958.78 75.7466C961.227 78.6297 962.666 80.9254 963.44 83.3063C964.853 87.6568 964.853 92.3432 963.44 96.6937C962.666 99.0746 961.227 101.37 958.78 104.253C956.321 107.15 952.933 110.54 948.329 115.143L901.143 162.329C896.54 166.933 893.15 170.321 890.253 172.78C887.37 175.227 885.075 176.666 882.694 177.44C878.343 178.853 873.657 178.853 869.306 177.44C866.925 176.666 864.63 175.227 861.747 172.78C858.85 170.321 855.46 166.933 850.857 162.329L803.671 115.143Z" stroke="white" stroke-width="3"/>
<defs>
<clipPath id="clip0_1_50579">
<rect width="56" height="56" fill="white" transform="translate(62 62)"/>
</clipPath>
<clipPath id="clip1_1_50579">
<rect width="56" height="56" fill="white" transform="translate(324 62)"/>
</clipPath>
<clipPath id="clip2_1_50579">
<rect width="56" height="56" fill="white" transform="translate(586 62)"/>
</clipPath>
<clipPath id="clip3_1_50579">
<rect width="56" height="56" fill="white" transform="translate(848 62)"/>
</clipPath>
</defs>
</svg>
