<svg width="102" height="136" viewBox="0 0 102 136" fill="none" xmlns="http://www.w3.org/2000/svg">
<path d="M9.43767 130.098C8.71901 130.098 8.07501 129.981 7.50567 129.748C6.93634 129.515 6.47901 129.169 6.13367 128.712C5.79767 128.255 5.62034 127.704 5.60167 127.06H8.14967C8.18701 127.424 8.31301 127.704 8.52767 127.9C8.74234 128.087 9.02234 128.18 9.36767 128.18C9.72234 128.18 10.0023 128.101 10.2077 127.942C10.413 127.774 10.5157 127.545 10.5157 127.256C10.5157 127.013 10.4317 126.813 10.2637 126.654C10.105 126.495 9.90434 126.365 9.66167 126.262C9.42834 126.159 9.09234 126.043 8.65367 125.912C8.01901 125.716 7.50101 125.52 7.09967 125.324C6.69834 125.128 6.35301 124.839 6.06367 124.456C5.77434 124.073 5.62967 123.574 5.62967 122.958C5.62967 122.043 5.96101 121.329 6.62367 120.816C7.28634 120.293 8.14967 120.032 9.21367 120.032C10.2963 120.032 11.169 120.293 11.8317 120.816C12.4943 121.329 12.849 122.048 12.8957 122.972H10.3057C10.287 122.655 10.1703 122.407 9.95567 122.23C9.74101 122.043 9.46567 121.95 9.12967 121.95C8.84034 121.95 8.60701 122.029 8.42967 122.188C8.25234 122.337 8.16367 122.557 8.16367 122.846C8.16367 123.163 8.31301 123.411 8.61167 123.588C8.91034 123.765 9.37701 123.957 10.0117 124.162C10.6463 124.377 11.1597 124.582 11.5517 124.778C11.953 124.974 12.2983 125.259 12.5877 125.632C12.877 126.005 13.0217 126.486 13.0217 127.074C13.0217 127.634 12.877 128.143 12.5877 128.6C12.3077 129.057 11.897 129.421 11.3557 129.692C10.8143 129.963 10.175 130.098 9.43767 130.098ZM21.859 125.968C21.859 126.192 21.845 126.425 21.817 126.668H16.399C16.4363 127.153 16.5903 127.527 16.861 127.788C17.141 128.04 17.4816 128.166 17.883 128.166C18.4803 128.166 18.8956 127.914 19.129 127.41H21.677C21.5463 127.923 21.3083 128.385 20.963 128.796C20.627 129.207 20.2023 129.529 19.689 129.762C19.1756 129.995 18.6016 130.112 17.967 130.112C17.2016 130.112 16.5203 129.949 15.923 129.622C15.3256 129.295 14.859 128.829 14.523 128.222C14.187 127.615 14.019 126.906 14.019 126.094C14.019 125.282 14.1823 124.573 14.509 123.966C14.845 123.359 15.3116 122.893 15.909 122.566C16.5063 122.239 17.1923 122.076 17.967 122.076C18.723 122.076 19.395 122.235 19.983 122.552C20.571 122.869 21.0283 123.322 21.355 123.91C21.691 124.498 21.859 125.184 21.859 125.968ZM19.409 125.338C19.409 124.927 19.269 124.601 18.989 124.358C18.709 124.115 18.359 123.994 17.939 123.994C17.5376 123.994 17.197 124.111 16.917 124.344C16.6463 124.577 16.4783 124.909 16.413 125.338H19.409ZM25.5159 123.49C25.7959 123.061 26.1459 122.725 26.5659 122.482C26.9859 122.23 27.4526 122.104 27.9659 122.104V124.638H27.3079C26.7106 124.638 26.2626 124.769 25.9639 125.03C25.6652 125.282 25.5159 125.73 25.5159 126.374V130H23.1219V122.188H25.5159V123.49ZM32.6242 127.76L34.3182 122.188H36.8662L34.0942 130H31.1402L28.3682 122.188H30.9302L32.6242 127.76ZM39.0779 121.376C38.6579 121.376 38.3125 121.255 38.0419 121.012C37.7805 120.76 37.6499 120.452 37.6499 120.088C37.6499 119.715 37.7805 119.407 38.0419 119.164C38.3125 118.912 38.6579 118.786 39.0779 118.786C39.4885 118.786 39.8245 118.912 40.0859 119.164C40.3565 119.407 40.4919 119.715 40.4919 120.088C40.4919 120.452 40.3565 120.76 40.0859 121.012C39.8245 121.255 39.4885 121.376 39.0779 121.376ZM40.2679 122.188V130H37.8739V122.188H40.2679ZM41.5268 126.094C41.5268 125.282 41.6901 124.573 42.0168 123.966C42.3528 123.359 42.8148 122.893 43.4028 122.566C44.0001 122.239 44.6814 122.076 45.4468 122.076C46.4268 122.076 47.2434 122.333 47.8968 122.846C48.5594 123.359 48.9934 124.083 49.1988 125.016H46.6508C46.4361 124.419 46.0208 124.12 45.4048 124.12C44.9661 124.12 44.6161 124.293 44.3548 124.638C44.0934 124.974 43.9628 125.459 43.9628 126.094C43.9628 126.729 44.0934 127.219 44.3548 127.564C44.6161 127.9 44.9661 128.068 45.4048 128.068C46.0208 128.068 46.4361 127.769 46.6508 127.172H49.1988C48.9934 128.087 48.5594 128.805 47.8968 129.328C47.2341 129.851 46.4174 130.112 45.4468 130.112C44.6814 130.112 44.0001 129.949 43.4028 129.622C42.8148 129.295 42.3528 128.829 42.0168 128.222C41.6901 127.615 41.5268 126.906 41.5268 126.094ZM57.8433 125.968C57.8433 126.192 57.8293 126.425 57.8013 126.668H52.3833C52.4207 127.153 52.5747 127.527 52.8453 127.788C53.1253 128.04 53.466 128.166 53.8673 128.166C54.4647 128.166 54.88 127.914 55.1133 127.41H57.6613C57.5307 127.923 57.2927 128.385 56.9473 128.796C56.6113 129.207 56.1867 129.529 55.6733 129.762C55.16 129.995 54.586 130.112 53.9513 130.112C53.186 130.112 52.5047 129.949 51.9073 129.622C51.31 129.295 50.8433 128.829 50.5073 128.222C50.1713 127.615 50.0033 126.906 50.0033 126.094C50.0033 125.282 50.1667 124.573 50.4933 123.966C50.8293 123.359 51.296 122.893 51.8933 122.566C52.4907 122.239 53.1767 122.076 53.9513 122.076C54.7073 122.076 55.3793 122.235 55.9673 122.552C56.5553 122.869 57.0127 123.322 57.3393 123.91C57.6753 124.498 57.8433 125.184 57.8433 125.968ZM55.3933 125.338C55.3933 124.927 55.2533 124.601 54.9733 124.358C54.6933 124.115 54.3433 123.994 53.9233 123.994C53.522 123.994 53.1813 124.111 52.9013 124.344C52.6307 124.577 52.4627 124.909 52.3973 125.338H55.3933ZM62.2843 130.112C61.6029 130.112 60.9963 129.995 60.4643 129.762C59.9323 129.529 59.5123 129.211 59.2043 128.81C58.8963 128.399 58.7236 127.942 58.6863 127.438H61.0523C61.0803 127.709 61.2063 127.928 61.4303 128.096C61.6543 128.264 61.9296 128.348 62.2563 128.348C62.5549 128.348 62.7836 128.292 62.9423 128.18C63.1103 128.059 63.1943 127.905 63.1943 127.718C63.1943 127.494 63.0776 127.331 62.8443 127.228C62.6109 127.116 62.2329 126.995 61.7103 126.864C61.1503 126.733 60.6836 126.598 60.3103 126.458C59.9369 126.309 59.6149 126.08 59.3443 125.772C59.0736 125.455 58.9383 125.03 58.9383 124.498C58.9383 124.05 59.0596 123.644 59.3023 123.28C59.5543 122.907 59.9183 122.613 60.3943 122.398C60.8796 122.183 61.4536 122.076 62.1163 122.076C63.0963 122.076 63.8663 122.319 64.4263 122.804C64.9956 123.289 65.3223 123.933 65.4063 124.736H63.1943C63.1569 124.465 63.0356 124.251 62.8303 124.092C62.6343 123.933 62.3729 123.854 62.0463 123.854C61.7663 123.854 61.5516 123.91 61.4023 124.022C61.2529 124.125 61.1783 124.269 61.1783 124.456C61.1783 124.68 61.2949 124.848 61.5283 124.96C61.7709 125.072 62.1443 125.184 62.6483 125.296C63.2269 125.445 63.6983 125.595 64.0623 125.744C64.4263 125.884 64.7436 126.117 65.0143 126.444C65.2943 126.761 65.4389 127.191 65.4483 127.732C65.4483 128.189 65.3176 128.6 65.0563 128.964C64.8043 129.319 64.4356 129.599 63.9503 129.804C63.4743 130.009 62.9189 130.112 62.2843 130.112ZM73.4357 130.112C72.6704 130.112 71.9797 129.949 71.3637 129.622C70.7571 129.295 70.2764 128.829 69.9217 128.222C69.5764 127.615 69.4037 126.906 69.4037 126.094C69.4037 125.291 69.5811 124.587 69.9357 123.98C70.2904 123.364 70.7757 122.893 71.3917 122.566C72.0077 122.239 72.6984 122.076 73.4637 122.076C74.2291 122.076 74.9197 122.239 75.5357 122.566C76.1517 122.893 76.6371 123.364 76.9917 123.98C77.3464 124.587 77.5237 125.291 77.5237 126.094C77.5237 126.897 77.3417 127.606 76.9777 128.222C76.6231 128.829 76.1331 129.295 75.5077 129.622C74.8917 129.949 74.2011 130.112 73.4357 130.112ZM73.4357 128.04C73.8931 128.04 74.2804 127.872 74.5977 127.536C74.9244 127.2 75.0877 126.719 75.0877 126.094C75.0877 125.469 74.9291 124.988 74.6117 124.652C74.3037 124.316 73.9211 124.148 73.4637 124.148C72.9971 124.148 72.6097 124.316 72.3017 124.652C71.9937 124.979 71.8397 125.459 71.8397 126.094C71.8397 126.719 71.9891 127.2 72.2877 127.536C72.5957 127.872 72.9784 128.04 73.4357 128.04ZM83.5538 122.104C84.4684 122.104 85.1964 122.403 85.7378 123C86.2884 123.588 86.5638 124.4 86.5638 125.436V130H84.1838V125.758C84.1838 125.235 84.0484 124.829 83.7778 124.54C83.5071 124.251 83.1431 124.106 82.6858 124.106C82.2284 124.106 81.8644 124.251 81.5938 124.54C81.3231 124.829 81.1878 125.235 81.1878 125.758V130H78.7938V122.188H81.1878V123.224C81.4304 122.879 81.7571 122.608 82.1678 122.412C82.5784 122.207 83.0404 122.104 83.5538 122.104ZM95.5914 125.968C95.5914 126.192 95.5774 126.425 95.5494 126.668H90.1314C90.1687 127.153 90.3227 127.527 90.5934 127.788C90.8734 128.04 91.214 128.166 91.6154 128.166C92.2127 128.166 92.628 127.914 92.8614 127.41H95.4094C95.2787 127.923 95.0407 128.385 94.6954 128.796C94.3594 129.207 93.9347 129.529 93.4214 129.762C92.908 129.995 92.334 130.112 91.6994 130.112C90.934 130.112 90.2527 129.949 89.6554 129.622C89.058 129.295 88.5914 128.829 88.2554 128.222C87.9194 127.615 87.7514 126.906 87.7514 126.094C87.7514 125.282 87.9147 124.573 88.2414 123.966C88.5774 123.359 89.044 122.893 89.6414 122.566C90.2387 122.239 90.9247 122.076 91.6994 122.076C92.4554 122.076 93.1274 122.235 93.7154 122.552C94.3034 122.869 94.7607 123.322 95.0874 123.91C95.4234 124.498 95.5914 125.184 95.5914 125.968ZM93.1414 125.338C93.1414 124.927 93.0014 124.601 92.7214 124.358C92.4414 124.115 92.0914 123.994 91.6714 123.994C91.27 123.994 90.9294 124.111 90.6494 124.344C90.3787 124.577 90.2107 124.909 90.1454 125.338H93.1414Z" fill="white"/>
<rect x="1.41421" y="51" width="70.1249" height="70.1249" rx="19" transform="rotate(-45 1.41421 51)" stroke="white" stroke-width="2"/>
<g clip-path="url(#clip0_1_50630)">
<path d="M70.1823 37.6583C69.9641 37.0964 69.491 36.6888 68.9168 36.568C68.33 36.4441 67.7169 36.6333 67.2769 37.0734L63.1742 41.176L61.1709 39.1727L65.5344 34.8092C65.9886 34.3549 66.1836 33.7223 66.0562 33.1169C65.9316 32.525 65.5111 32.0373 64.9317 31.8123C61.1236 30.333 56.7968 31.2436 53.9085 34.1318C52.3878 35.6525 51.395 37.5726 51.0363 39.6857C50.9597 40.0452 50.8854 40.4269 50.8069 40.8306C50.3481 43.1887 49.7772 46.1235 48.1031 47.7974L33.1146 62.786C31.2639 64.6367 31.2639 67.6483 33.1146 69.4991C34.0401 70.4245 35.2557 70.8872 36.4712 70.8872C37.6868 70.8872 38.9024 70.4245 39.8278 69.4991L54.8162 54.5106C56.4902 52.8366 59.425 52.2658 61.7831 51.8069C62.1869 51.7284 62.5685 51.6541 62.928 51.5775C65.0412 51.2188 66.9613 50.2259 68.482 48.7052C68.9307 48.2565 69.0606 47.6474 68.8747 47.1059C70.9111 44.4085 71.4179 40.8396 70.1823 37.6583ZM68.3754 38.1718C68.4439 38.1034 68.5246 38.0728 68.5969 38.0882C68.659 38.1013 68.7051 38.1459 68.7342 38.2207C69.7273 40.7777 69.3841 43.6322 67.8588 45.8606L64.2727 42.2745L68.3754 38.1718ZM67.3834 47.6068C66.0885 48.9017 64.4529 49.7459 62.6534 50.0484C62.642 50.0502 62.6308 50.0524 62.6196 50.0548C62.2694 50.1297 61.8891 50.2036 61.4864 50.282C58.9206 50.7812 55.7273 51.4024 53.7175 53.4121L38.7293 68.4006C37.4843 69.6456 35.4584 69.6456 34.2132 68.4005C32.9682 67.1554 32.9682 65.1296 34.2132 63.8845L49.2017 48.896C51.2115 46.8863 51.8327 43.6931 52.3318 41.1272C52.4102 40.7245 52.4842 40.3442 52.559 39.994C52.5615 39.9828 52.5636 39.9716 52.5656 39.9602C52.8678 38.1608 53.7121 36.5252 55.0071 35.2302C56.6795 33.5577 58.9195 32.6663 61.2012 32.6663C62.2659 32.6663 63.3401 32.8606 64.3693 33.2603C64.4629 33.2966 64.519 33.356 64.536 33.4367C64.5552 33.5278 64.5186 33.6276 64.4358 33.7104L59.5231 38.6231C59.2198 38.9264 59.2198 39.4183 59.5231 39.7217L67.3877 47.5863C67.3905 47.589 67.3929 47.5916 67.395 47.594C67.392 47.5979 67.3881 47.6021 67.3834 47.6068Z" fill="white"/>
<path d="M58.4243 40.8205C58.2786 40.6749 58.0811 40.593 57.8751 40.593C57.6691 40.593 57.4715 40.6749 57.3258 40.8205L55.1289 43.0176C54.8255 43.3209 54.8255 43.8128 55.1289 44.1162L58.2307 47.2181C58.3763 47.3637 58.574 47.4456 58.78 47.4456C58.986 47.4456 59.1836 47.3637 59.3292 47.2181L61.5263 45.021C61.8296 44.7177 61.8296 44.2259 61.5263 43.9224L58.4243 40.8205ZM58.7799 45.5702L56.7766 43.5668L57.8751 42.4683L59.8784 44.4716L58.7799 45.5702Z" fill="white"/>
<path d="M37.0204 65.5931C36.717 65.2897 36.2253 65.2901 35.922 65.5933C35.6187 65.8967 35.6188 66.3887 35.9222 66.6921C36.0739 66.8437 36.2726 66.9196 36.4714 66.9196C36.6702 66.9196 36.869 66.8437 37.0207 66.6921C37.324 66.3888 37.324 65.8969 37.0207 65.5935L37.0204 65.5931Z" fill="white"/>
<path d="M50.9105 50.6051L38.3938 63.1218C38.0904 63.4251 38.0904 63.917 38.3938 64.2204C38.5455 64.372 38.7442 64.4479 38.943 64.4479C39.1418 64.4479 39.3406 64.372 39.4923 64.2204L52.0091 51.7036C52.3124 51.4003 52.3124 50.9084 52.0091 50.605C51.7057 50.3017 51.214 50.3017 50.9105 50.6051Z" fill="white"/>
</g>
<defs>
<clipPath id="clip0_1_50630">
<rect width="39.7744" height="39.7744" fill="white" transform="translate(31.4006 31.1128)"/>
</clipPath>
</defs>
</svg>
