<svg width="114" height="18" viewBox="0 0 114 18" fill="none" xmlns="http://www.w3.org/2000/svg">
<path d="M15.9626 6.20682L11.4995 5.55819L9.50436 1.51346C9.44987 1.40272 9.36022 1.31307 9.24948 1.25858C8.97174 1.12147 8.63424 1.23572 8.49537 1.51346L6.50026 5.55819L2.03717 6.20682C1.91412 6.2244 1.80162 6.2824 1.71549 6.37029C1.61136 6.47732 1.55398 6.62131 1.55596 6.77062C1.55794 6.91993 1.61911 7.06235 1.72604 7.16658L4.95514 10.3148L4.19225 14.7603C4.17436 14.8637 4.1858 14.9701 4.22528 15.0673C4.26476 15.1646 4.3307 15.2488 4.41561 15.3105C4.50053 15.3722 4.60102 15.4088 4.7057 15.4163C4.81039 15.4237 4.91507 15.4017 5.00787 15.3527L8.99987 13.2539L12.9919 15.3527C13.1008 15.4107 13.2274 15.4301 13.3487 15.409C13.6546 15.3562 13.8602 15.0662 13.8075 14.7603L13.0446 10.3148L16.2737 7.16658C16.3616 7.08045 16.4196 6.96795 16.4372 6.8449C16.4846 6.53729 16.2702 6.25252 15.9626 6.20682Z" fill="#50B2EA"/>
<path d="M39.9626 6.20682L35.4995 5.55819L33.5044 1.51346C33.4499 1.40272 33.3602 1.31307 33.2495 1.25858C32.9717 1.12147 32.6342 1.23572 32.4954 1.51346L30.5003 5.55819L26.0372 6.20682C25.9141 6.2244 25.8016 6.2824 25.7155 6.37029C25.6114 6.47732 25.554 6.62131 25.556 6.77062C25.5579 6.91993 25.6191 7.06235 25.726 7.16658L28.9551 10.3148L28.1922 14.7603C28.1744 14.8637 28.1858 14.9701 28.2253 15.0673C28.2648 15.1646 28.3307 15.2488 28.4156 15.3105C28.5005 15.3722 28.601 15.4088 28.7057 15.4163C28.8104 15.4237 28.9151 15.4017 29.0079 15.3527L32.9999 13.2539L36.9919 15.3527C37.1008 15.4107 37.2274 15.4301 37.3487 15.409C37.6546 15.3562 37.8602 15.0662 37.8075 14.7603L37.0446 10.3148L40.2737 7.16658C40.3616 7.08045 40.4196 6.96795 40.4372 6.8449C40.4846 6.53729 40.2702 6.25252 39.9626 6.20682Z" fill="#50B2EA"/>
<path d="M63.9626 6.20682L59.4995 5.55819L57.5044 1.51346C57.4499 1.40272 57.3602 1.31307 57.2495 1.25858C56.9717 1.12147 56.6342 1.23572 56.4954 1.51346L54.5003 5.55819L50.0372 6.20682C49.9141 6.2244 49.8016 6.2824 49.7155 6.37029C49.6114 6.47732 49.554 6.62131 49.556 6.77062C49.5579 6.91993 49.6191 7.06235 49.726 7.16658L52.9551 10.3148L52.1922 14.7603C52.1744 14.8637 52.1858 14.9701 52.2253 15.0673C52.2648 15.1646 52.3307 15.2488 52.4156 15.3105C52.5005 15.3722 52.601 15.4088 52.7057 15.4163C52.8104 15.4237 52.9151 15.4017 53.0079 15.3527L56.9999 13.2539L60.9919 15.3527C61.1008 15.4107 61.2274 15.4301 61.3487 15.409C61.6546 15.3562 61.8602 15.0662 61.8075 14.7603L61.0446 10.3148L64.2737 7.16658C64.3616 7.08045 64.4196 6.96795 64.4372 6.8449C64.4846 6.53729 64.2702 6.25252 63.9626 6.20682Z" fill="#50B2EA"/>
<path d="M87.9626 6.20682L83.4995 5.55819L81.5044 1.51346C81.4499 1.40272 81.3602 1.31307 81.2495 1.25858C80.9717 1.12147 80.6342 1.23572 80.4954 1.51346L78.5003 5.55819L74.0372 6.20682C73.9141 6.2244 73.8016 6.2824 73.7155 6.37029C73.6114 6.47732 73.554 6.62131 73.556 6.77062C73.5579 6.91993 73.6191 7.06235 73.726 7.16658L76.9551 10.3148L76.1922 14.7603C76.1744 14.8637 76.1858 14.9701 76.2253 15.0673C76.2648 15.1646 76.3307 15.2488 76.4156 15.3105C76.5005 15.3722 76.601 15.4088 76.7057 15.4163C76.8104 15.4237 76.9151 15.4017 77.0079 15.3527L80.9999 13.2539L84.9919 15.3527C85.1008 15.4107 85.2274 15.4301 85.3487 15.409C85.6546 15.3562 85.8602 15.0662 85.8075 14.7603L85.0446 10.3148L88.2737 7.16658C88.3616 7.08045 88.4196 6.96795 88.4372 6.8449C88.4846 6.53729 88.2702 6.25252 87.9626 6.20682Z" fill="#50B2EA"/>
<path d="M111.963 6.20682L107.499 5.55819L105.504 1.51346C105.45 1.40272 105.36 1.31307 105.249 1.25858C104.972 1.12147 104.634 1.23572 104.495 1.51346L102.5 5.55819L98.0372 6.20682C97.9141 6.2244 97.8016 6.2824 97.7155 6.37029C97.6114 6.47732 97.554 6.62131 97.556 6.77062C97.5579 6.91993 97.6191 7.06235 97.726 7.16658L100.955 10.3148L100.192 14.7603C100.174 14.8637 100.186 14.9701 100.225 15.0673C100.265 15.1646 100.331 15.2488 100.416 15.3105C100.501 15.3722 100.601 15.4088 100.706 15.4163C100.81 15.4237 100.915 15.4017 101.008 15.3527L105 13.2539L108.992 15.3527C109.101 15.4107 109.227 15.4301 109.349 15.409C109.655 15.3562 109.86 15.0662 109.807 14.7603L109.045 10.3148L112.274 7.16658C112.362 7.08045 112.42 6.96795 112.437 6.8449C112.485 6.53729 112.27 6.25252 111.963 6.20682Z" fill="#50B2EA"/>
</svg>
