<svg width="170" height="48" viewBox="0 0 170 48" fill="none" xmlns="http://www.w3.org/2000/svg">
<path fill-rule="evenodd" clip-rule="evenodd" d="M58 28.8156H62.1212C62.3194 30.5035 64.0755 31.6099 66.3415 31.6099C68.6216 31.6099 70.1794 30.5177 70.1794 29.0142C70.1794 27.6809 69.2022 26.9433 66.738 26.3901L64.0755 25.8085C60.3084 25 58.4532 23.0851 58.4532 20.0922C58.4532 16.3191 61.7105 13.8227 66.2707 13.8227C71.0291 13.8227 74.0174 16.2766 74.0882 19.9787H70.0803C69.9387 18.2482 68.4233 17.1986 66.2848 17.1986C64.1747 17.1986 62.7585 18.2057 62.7585 19.7234C62.7585 20.9858 63.7498 21.695 66.1007 22.234L68.5791 22.7589C72.672 23.6383 74.4564 25.3972 74.4564 28.5177C74.4564 32.4894 71.2416 35 66.1715 35C61.2573 35 58.1275 32.6596 58 28.8156ZM83.088 21.8511C81.2045 21.8511 79.8166 23.2269 79.675 25.2269H86.402C86.3312 23.1844 84.9999 21.8511 83.088 21.8511ZM86.4586 29.8794H90.2682C89.815 32.9007 86.9968 34.9149 83.2013 34.9149C78.457 34.9149 75.5538 31.8652 75.5538 26.9007C75.5538 21.9362 78.4712 18.7589 83.0455 18.7589C87.5349 18.7589 90.3957 21.766 90.3957 26.5177V27.7943H79.6325V28.0496C79.6325 30.305 81.0912 31.8227 83.2721 31.8227C84.83 31.8227 86.0621 31.0851 86.4586 29.8794ZM106.066 24.7872H102.214C101.987 23.1702 100.854 22.0213 99.0557 22.0213C96.9313 22.0213 95.5859 23.8369 95.5859 26.8298C95.5859 29.8794 96.9313 31.6383 99.0698 31.6383C100.812 31.6383 101.959 30.6879 102.228 28.9716H106.08C105.839 32.6028 103.12 34.9149 99.0273 34.9149C94.368 34.9149 91.394 31.8511 91.394 26.8298C91.394 21.8794 94.368 18.7589 98.999 18.7589C103.191 18.7589 105.868 21.3121 106.066 24.7872ZM108.608 15.5532H112.743V19.0284H115.632V22.1631H112.743V29.7518C112.743 30.9574 113.338 31.539 114.598 31.539C114.967 31.539 115.377 31.5106 115.632 31.4681V34.5319C115.207 34.617 114.471 34.7021 113.635 34.7021C110.024 34.7021 108.608 33.4823 108.608 30.4326V22.1631H106.498V19.0284H108.608V15.5532ZM117.424 34.6454V19.0284H121.559V34.6454H117.424ZM119.491 17.3262C118.273 17.3262 117.268 16.3901 117.268 15.156C117.268 13.922 118.273 13 119.491 13C120.723 13 121.729 13.922 121.729 15.156C121.729 16.3901 120.723 17.3262 119.491 17.3262ZM130.899 34.9149C126.169 34.9149 123.209 31.8794 123.209 26.8298C123.209 21.8369 126.211 18.7589 130.899 18.7589C135.601 18.7589 138.589 21.8227 138.589 26.8298C138.589 31.8936 135.629 34.9149 130.899 34.9149ZM130.899 31.7234C133.08 31.7234 134.383 29.9362 134.383 26.8298C134.383 23.7518 133.066 21.9362 130.899 21.9362C128.718 21.9362 127.401 23.766 127.401 26.8298C127.401 29.9362 128.718 31.7234 130.899 31.7234ZM140.153 34.6454V19.0284H144.147V21.8227H144.232C145.124 19.8511 146.852 18.8014 149.246 18.8014C152.701 18.8014 154.797 20.9858 154.797 24.6312V34.6454H150.662V25.4965C150.662 23.4255 149.557 22.2482 147.603 22.2482C145.62 22.2482 144.289 23.6667 144.289 25.7376V34.6454H140.153ZM156.617 23.6241C156.617 20.6879 159.194 18.7589 163.146 18.7589C166.998 18.7589 169.561 20.7305 169.618 23.7092H165.794C165.709 22.4752 164.675 21.695 163.089 21.695C161.602 21.695 160.611 22.3617 160.611 23.3688C160.611 24.1489 161.29 24.6738 162.692 25L165.624 25.6383C168.754 26.3475 170 27.5532 170 29.8794C170 32.9149 167.21 34.9149 163.131 34.9149C159.024 34.9149 156.447 32.9291 156.234 29.922H160.271C160.469 31.2411 161.531 31.9787 163.245 31.9787C164.887 31.9787 165.893 31.3404 165.893 30.3191C165.893 29.5106 165.355 29.0851 163.939 28.7447L161.064 28.0922C158.132 27.4255 156.617 25.9078 156.617 23.6241Z" fill="#1C1C1C"/>
<path fill-rule="evenodd" clip-rule="evenodd" d="M24 48C37.2548 48 48 37.2548 48 24C48 10.7452 37.2548 0 24 0C10.7452 0 0 10.7452 0 24C0 37.2548 10.7452 48 24 48Z" fill="#24AFB5"/>
<path opacity="0.4" fill-rule="evenodd" clip-rule="evenodd" d="M16.5517 23.1724H31.4482C34.1906 23.1724 36.4138 25.3956 36.4138 28.1379V33.1035C36.4138 35.8458 34.1906 38.069 31.4482 38.069H16.5517C13.8093 38.069 11.5862 35.8458 11.5862 33.1035V28.1379C11.5862 25.3956 13.8093 23.1724 16.5517 23.1724Z" fill="white"/>
<path opacity="0.6" fill-rule="evenodd" clip-rule="evenodd" d="M16.5517 16.5517H31.4482C34.1906 16.5517 36.4138 18.7748 36.4138 21.5172V26.4827C36.4138 29.2251 34.1906 31.4482 31.4482 31.4482H16.5517C13.8093 31.4482 11.5862 29.2251 11.5862 26.4827V21.5172C11.5862 18.7748 13.8093 16.5517 16.5517 16.5517Z" fill="white"/>
<path opacity="0.8" fill-rule="evenodd" clip-rule="evenodd" d="M16.5517 9.93103H31.4482C34.1906 9.93103 36.4138 12.1542 36.4138 14.8965V19.8621C36.4138 22.6044 34.1906 24.8276 31.4482 24.8276H16.5517C13.8093 24.8276 11.5862 22.6044 11.5862 19.8621V14.8965C11.5862 12.1542 13.8093 9.93103 16.5517 9.93103Z" fill="white"/>
</svg>
