<svg width="24" height="25" viewBox="0 0 24 25" fill="none" xmlns="http://www.w3.org/2000/svg">
<path fill-rule="evenodd" clip-rule="evenodd" d="M6 2.56189C3.79086 2.56189 2 4.35275 2 6.56189V18.5662C2 20.7753 3.79086 22.5662 6 22.5662H11.8808V22.5662H14.7089V22.5662H17.9999C20.209 22.5662 21.9999 20.7753 21.9999 18.5662V6.56189C21.9999 4.35275 20.209 2.56189 17.9999 2.56189H6ZM14.7089 22.5662V15.7232H17.0676L17.4207 13.0562H14.7089V11.353C14.7089 10.5813 14.9289 10.0548 16.066 10.0548L17.516 10.0541V7.66827C17.265 7.63587 16.4046 7.56298 15.4029 7.56298C13.3119 7.56298 11.8808 8.80594 11.8808 11.0886V13.0554H9.51599V15.7225H11.8808V22.5662H14.7089Z" fill="#969696"/>
</svg>
