<svg width="103" height="20" viewBox="0 0 103 20" fill="none" xmlns="http://www.w3.org/2000/svg">
<path fill-rule="evenodd" clip-rule="evenodd" d="M10.1584 3.07094V0.00240109H7.5281C7.5281 0.00240109 5.71995 -0.107113 4.35004 1.15308C2.98014 2.41347 3.30888 3.94764 3.30888 3.94764V6.7424H0.678589V10.0304H3.19937V19.4003H6.92538V10.0729H9.7749L10.1584 6.7424H6.92538V4.33133C6.92538 2.85172 8.45975 3.07094 8.45975 3.07094H10.1584ZM16.5292 16.8524C17.8618 16.8524 18.9422 15.6574 18.9422 14.3863V11.9755C18.9422 10.7044 17.8618 9.50963 16.5292 9.50963C15.1963 9.50963 14.1159 10.7044 14.1159 11.9755V14.3863C14.1159 15.6574 15.1963 16.8524 16.5292 16.8524ZM19.1427 8.46924V6.7972H22.7342V19.4003H19.1451L19.1697 17.7747C18.2171 19.0467 16.8765 19.8386 15.3915 19.8386C12.5014 19.8386 10.1585 17.2632 10.1585 13.1397C10.1585 8.98905 12.5014 6.44089 15.3915 6.44089C16.8625 6.44089 18.1921 7.21817 19.1427 8.46924ZM52.2531 11.8933C52.2531 10.6223 53.3335 9.4273 54.6661 9.4273C55.9989 9.4273 57.0793 10.6223 57.0793 11.8933V14.3042C57.0793 15.5753 55.9989 16.77 54.6661 16.77C53.3335 16.77 52.2531 15.5753 52.2531 14.3042V11.8933ZM52.0525 19.4824V17.8104C53.0032 19.0615 54.3327 19.8388 55.8037 19.8388C58.6938 19.8388 61.0368 17.2906 61.0368 13.1397C61.0368 9.01643 58.6938 6.44089 55.8037 6.44089C54.3187 6.44089 52.9781 7.23293 52.0255 8.50478L52.0502 0.181475L48.3177 0.601475V19.425L52.0525 19.4824ZM27.9671 13.2203C27.9671 16.9465 30.844 16.782 30.844 16.782C32.7892 16.8094 33.4743 16.1246 33.4743 16.1246L34.3784 18.837C32.8166 19.9877 28.1042 20.1793 25.9945 18.2341C24.169 16.551 24.1694 13.8232 24.2026 13.1184C24.1694 12.4135 24.169 9.68592 25.9945 8.00262C28.1042 6.05738 32.8166 6.24922 34.3784 7.3999L33.4743 10.1123C33.4743 10.1123 32.7892 9.42728 30.844 9.45485C30.844 9.45485 27.9671 9.29039 27.9671 13.0166V13.2203ZM38.6798 11.9206C38.6798 11.9206 38.488 9.12604 41.0088 9.12604C43.5293 9.12604 43.3375 11.9206 43.3375 11.9206H38.6798ZM46.7624 14.4686C46.7624 14.4686 48.2691 6.57788 41.0635 6.53516C33.8577 6.49225 34.8989 13.674 34.8989 13.674C35.0633 18.0303 37.0633 19.2907 40.4882 19.7016C43.9128 20.1126 46.5158 18.7975 46.5158 18.7975L45.7212 16.2495C45.7212 16.2495 42.954 17.0989 40.7622 16.907C38.5703 16.7154 38.7346 14.4686 38.7346 14.4686H46.7624ZM68.4296 16.7857C69.7972 16.7857 70.9057 15.5908 70.9057 14.3197V11.9088C70.9057 10.6377 69.7972 9.44299 68.4296 9.44299C67.0622 9.44299 65.9535 10.6377 65.9535 11.9088V14.3197C65.9535 15.5908 67.0622 16.7857 68.4296 16.7857ZM62.1923 13.2257C62.1923 9.44299 63.771 6.61289 68.4616 6.61289C72.9399 6.61289 74.7311 9.57367 74.7311 13.2257C74.7311 17.5123 71.9242 19.8387 68.4616 19.8387C64.2265 19.8387 62.1923 17.2389 62.1923 13.2257ZM84.75 14.3197C84.75 15.5908 83.6415 16.7857 82.2739 16.7857C80.9065 16.7857 79.7978 15.5908 79.7978 14.3197V11.9088C79.7978 10.6377 80.9065 9.44299 82.2739 9.44299C83.6415 9.44299 84.75 10.6377 84.75 11.9088V14.3197ZM82.3059 6.61289C77.6152 6.61289 76.0366 9.44299 76.0366 13.2257C76.0366 17.2389 78.0708 19.8387 82.3059 19.8387C85.7684 19.8387 88.5754 17.5123 88.5754 13.2257C88.5754 9.57367 86.7842 6.61289 82.3059 6.61289ZM97.6227 13.11L101.721 19.4553H97.8352L93.7062 13.0001V19.4553H89.9416V0.510427L93.7062 0.115864V12.4448L97.5317 6.7646H101.539L97.6227 13.11Z" fill="#969696"/>
</svg>
