<svg width="92" height="30" viewBox="0 0 92 30" fill="none" xmlns="http://www.w3.org/2000/svg">
<path fill-rule="evenodd" clip-rule="evenodd" d="M22.8001 12.3505C22.7998 12.3721 22.7993 12.399 22.7987 12.4161L22.7965 12.4161C22.7974 12.4415 22.7981 12.4348 22.7987 12.4161H22.8013C22.8013 12.2836 22.8009 12.3059 22.8001 12.3505ZM11.8596 23.3035H11.8596V23.3056H11.8596V23.3035ZM11.8596 23.3035C11.8339 23.3043 11.8407 23.305 11.8596 23.3056V23.3056C11.8772 23.3062 11.9054 23.3066 11.928 23.307C11.9744 23.3078 11.9976 23.3082 11.8596 23.3082C8.64717 23.3082 5.74783 22.003 3.64783 19.8928C1.54565 17.7804 0.25 14.8649 0.25 11.6502C0.25 8.43537 1.54543 5.52255 3.64696 3.41255C5.74717 1.30363 8.64696 -6.10352e-05 11.8596 -6.10352e-05C13.3715 -6.10352e-05 14.8178 0.289069 16.1461 0.814722C17.5198 1.35863 18.7691 2.16059 19.8352 3.16211L17.5672 5.57277C16.8117 4.86298 15.918 4.29146 14.9278 3.8995C13.9798 3.52407 12.9448 3.31777 11.8596 3.31777C9.55783 3.31777 7.48674 4.24516 5.99261 5.74537C4.49261 7.25168 3.56804 9.33907 3.56804 11.6502C3.56804 13.9621 4.49283 16.0519 5.9937 17.5599C7.48804 19.0615 9.5587 19.9904 11.8596 19.9904C12.1156 19.9904 11.9889 19.9937 11.915 19.9956H11.915C11.8634 19.997 11.8376 19.9976 11.987 19.996C14.2476 19.9719 16.1357 19.2784 17.4361 18.0058C18.4511 17.0125 19.1337 15.6406 19.3837 13.9304H11.9509V10.6125H21.1415H22.7761L22.7939 12.2586C22.7948 12.3456 22.7957 12.3934 22.7965 12.416H22.7948C22.7948 15.7882 21.678 18.4836 19.7561 20.3647C17.8352 22.2443 15.152 23.2675 12.013 23.301C11.9285 23.3019 11.882 23.3028 11.8596 23.3034V23.3035ZM31.5397 11.3301C32.731 11.3301 33.8084 11.8272 34.5871 12.6309C35.3669 13.4359 35.8493 14.5538 35.8493 15.7938C35.8493 17.0338 35.3669 18.1518 34.5871 18.9566C33.8084 19.7603 32.731 20.2575 31.5397 20.2575C30.3482 20.2575 29.2708 19.7603 28.4921 18.9566C27.7123 18.1518 27.2299 17.0338 27.2299 15.7938C27.2299 14.5538 27.7123 13.4359 28.4921 12.6309C29.2708 11.8272 30.3482 11.3301 31.5397 11.3301ZM36.8654 10.534C35.5012 9.18245 33.6182 8.34636 31.5397 8.34636C29.4612 8.34636 27.578 9.18245 26.2138 10.534C24.8508 11.8844 24.0077 13.7444 24.0077 15.7938C24.0077 17.8431 24.8508 19.7031 26.2138 21.0535C27.578 22.4053 29.4612 23.2411 31.5397 23.2411C33.6182 23.2411 35.5012 22.4053 36.8654 21.0535C38.2286 19.7031 39.0717 17.8431 39.0717 15.7938C39.0717 13.7444 38.2286 11.8844 36.8654 10.534ZM50.7865 12.6309C50.0078 11.8272 48.9304 11.3301 47.7391 11.3301C46.5476 11.3301 45.4702 11.8272 44.6915 12.6309C43.9119 13.4359 43.4295 14.5538 43.4295 15.7938C43.4295 17.0338 43.9119 18.1518 44.6915 18.9566C45.4702 19.7603 46.5476 20.2575 47.7391 20.2575C48.9304 20.2575 50.0078 19.7603 50.7865 18.9566C51.5662 18.1518 52.0486 17.0338 52.0486 15.7938C52.0486 14.5538 51.5662 13.4359 50.7865 12.6309ZM47.7391 8.34636C49.8176 8.34636 51.7006 9.18245 53.0649 10.534C54.428 11.8844 55.271 13.7444 55.271 15.7938C55.271 17.8431 54.428 19.7031 53.0649 21.0535C51.7006 22.4053 49.8176 23.2411 47.7391 23.2411C45.6606 23.2411 43.7775 22.4053 42.4132 21.0535C41.0502 19.7031 40.2069 17.8431 40.2069 15.7938C40.2069 13.7444 41.0502 11.8844 42.4132 10.534C43.7775 9.18245 45.6606 8.34636 47.7391 8.34636ZM63.8095 11.3301C64.9443 11.3301 65.9706 11.8272 66.7124 12.6309C67.4552 13.4359 67.9146 14.5538 67.9146 15.7938C67.9146 17.0338 67.4552 18.1518 66.7124 18.9566C65.9706 19.7603 64.9443 20.3394 63.8095 20.3394C61.3939 20.3394 59.7045 18.2996 59.7045 15.7938C59.7045 14.5538 60.1639 13.4359 60.9067 12.6309C61.6485 11.8272 62.6745 11.3301 63.8095 11.3301ZM67.6028 10.0627C66.4976 8.99093 65.2678 8.34636 63.24 8.34636C59.8441 8.34636 56.4254 11.6544 56.4254 15.7938C56.4254 17.8431 57.1882 19.7031 58.4215 21.0535C59.6559 22.4053 61.6748 23.2411 63.5552 23.2411C65.2082 23.2411 66.4806 22.5953 67.6028 21.5211V23.1516C67.6028 25.5672 65.6193 27.0333 64.0382 27.0333C61.8065 27.0333 60.6132 26.1218 59.8137 24.3527L56.9895 25.6255C57.6626 27.1148 58.6437 28.1722 59.7937 28.8801C61.0863 29.6757 62.5652 29.9596 64.0382 29.9596C65.6513 29.9596 67.2806 29.279 68.4935 28.2005C69.7526 27.0809 70.6824 24.9346 70.6824 22.9557V8.76637H67.6028V10.0627ZM72.6734 22.8144H75.8531V0.958756H72.6734V22.8144ZM88.3562 18.2839C86.6844 21.0698 82.2738 21.037 81.022 18.0548C82.9488 17.2789 84.8703 16.4937 86.7917 15.7085C88.2203 15.1247 89.6488 14.541 91.0794 13.9611C89.9696 11.1009 88.4512 9.45521 86.5805 8.77587C83.7003 7.72978 80.9081 8.705 79.0979 10.623C76.8792 12.9743 76.194 17.9341 79.3959 21.1665C80.7064 22.4893 82.4599 23.3059 84.6388 23.3035C87.0857 23.29 89.3322 22.2317 90.8744 19.9717L88.3562 18.2839ZM87.2881 12.8065L80.5159 15.5339C80.4164 14.0996 81.1872 12.8304 82.0675 12.087C84.3562 10.5254 86.0927 11.2696 87.2881 12.8065Z" fill="#969696"/>
</svg>
