<svg width="115" height="30" viewBox="0 0 115 30" fill="none" xmlns="http://www.w3.org/2000/svg">
<path fill-rule="evenodd" clip-rule="evenodd" d="M112.57 0.201782H87.7996C86.616 0.201782 85.6541 1.13998 85.6541 2.29618V27.1712C85.6541 28.3286 86.616 29.268 87.7996 29.268H112.57C113.756 29.268 114.721 28.3286 114.721 27.1712V2.29618C114.721 1.13998 113.756 0.201782 112.57 0.201782ZM92.1205 4.2035C93.4987 4.2035 94.6188 5.32357 94.6188 6.70241C94.6188 8.08246 93.4987 9.20253 92.1205 9.20253C90.7386 9.20253 89.6202 8.08246 89.6202 6.70241C89.6202 5.32357 90.7386 4.2035 92.1205 4.2035ZM94.2751 24.9701H89.9637V11.0987H94.2751V24.9701ZM96.9793 11.0987H101.114V12.9941H101.172C101.748 11.9035 103.154 10.754 105.251 10.754C109.617 10.754 110.423 13.6271 110.423 17.3615V24.9701H106.115V18.2244C106.115 16.6159 106.085 14.5467 103.874 14.5467C101.631 14.5467 101.287 16.299 101.287 18.1082V24.9701H96.9793V11.0987ZM16.9327 4.19729C18.3128 4.19729 19.4329 5.31736 19.4329 6.69619C19.4329 8.07746 18.3128 9.19429 16.9327 9.19429C15.5543 9.19429 14.4342 8.07746 14.4342 6.69619C14.4342 5.31736 15.5543 4.19729 16.9327 4.19729ZM19.0877 24.9638V11.0925H14.7778V24.9638H19.0877ZM0.0117188 4.50061V24.9694H12.7973V20.8321H4.49582V4.50061H0.0117188ZM41.4109 4.49917H37.1028V24.9694H41.4109V18.1124H41.467L46.0395 24.9694H51.4552L45.921 17.5088L51.5732 11.0864H46.2914L41.4109 16.7327V4.49917ZM21.4712 11.0945H25.6082V12.9907H25.6659C26.2399 11.8989 27.6481 10.7501 29.7451 10.7501C34.1127 10.7501 34.9169 13.6229 34.9169 17.3569V24.9638H30.6072V18.2194C30.6072 16.6101 30.5775 14.5423 28.365 14.5423C26.1247 14.5423 25.7809 16.2952 25.7809 18.1043V24.9638H21.4712V11.0945ZM58.4024 25.3218C60.6447 25.3218 62.9131 24.3154 64.2924 22.5625L61.2761 20.3502C60.5575 21.327 59.6102 22.0456 58.2019 22.0456C56.5353 22.0456 55.2979 20.9826 54.9558 19.3448H64.9536V17.9944C64.9536 13.542 62.4279 10.6693 58.4024 10.6693C54.0939 10.6693 50.6461 13.542 50.6461 17.9944C50.6461 22.4475 54.0939 25.3218 58.4024 25.3218ZM57.9995 13.7721C59.5525 13.7721 60.6728 14.979 60.6447 16.4156H54.9558C55.0694 15.065 56.1045 13.7721 57.9995 13.7721ZM81.3444 24.9618H77.3788V23.1224H77.3227C76.6598 24.1276 74.995 25.3064 73.0407 25.3064C68.9023 25.3064 66.1735 22.3196 66.1735 18.0957C66.1735 14.2168 68.5866 10.6543 72.5512 10.6543C74.3341 10.6543 76 11.1424 76.9769 12.4927H77.0331V4.49907H81.3444V24.9618ZM73.9292 14.4469C71.7761 14.4469 70.4834 15.8844 70.4834 17.98C70.4834 20.0791 71.7761 21.5136 73.9292 21.5136C76.0854 21.5136 77.3788 20.0791 77.3788 17.98C77.3788 15.8844 76.0854 14.4469 73.9292 14.4469Z" fill="#969696"/>
</svg>
