<svg width="102" height="30" viewBox="0 0 102 30" fill="none" xmlns="http://www.w3.org/2000/svg">
<path fill-rule="evenodd" clip-rule="evenodd" d="M50.2678 2.08402H46.6134V6.59341H44.6444V9.84735H46.6134V21.2371H50.2678V9.84735H52.2666V6.59341H50.2678V2.08402ZM41.2194 6.10352e-05C39.8772 6.10352e-05 38.8209 1.05636 38.8209 2.42663C38.8209 3.76769 39.8772 4.82456 41.2194 4.82456C42.6177 4.82456 43.6746 3.76769 43.6746 2.42663C43.6746 1.05636 42.6177 6.10352e-05 41.2194 6.10352e-05ZM99.308 6.25195C98.6812 6.25195 98.195 5.76647 98.195 5.13796C98.195 4.53851 98.6812 4.05302 99.308 4.05302C99.9084 4.05302 100.393 4.53851 100.393 5.13796C100.393 5.76647 99.9084 6.25195 99.308 6.25195ZM99.308 3.88265C98.5953 3.88265 98.0246 4.45332 98.0246 5.13796C98.0246 5.85165 98.5953 6.4229 99.308 6.4229C99.9936 6.4229 100.565 5.85165 100.565 5.13796C100.565 4.45332 99.9936 3.88265 99.308 3.88265ZM56.5186 12.3889C57.0041 10.4479 58.4887 9.36301 60.4012 9.36301C62.3142 9.36301 63.7404 10.4187 64.1978 12.3889H56.5186ZM60.4862 6.13699C56.0914 6.13699 52.7509 9.50603 52.7509 13.9874C52.7509 18.4114 55.806 21.6656 60.5436 21.6656C63.1698 21.6656 65.511 20.6955 67.2237 18.8678L64.7687 16.4424C63.5695 17.5845 62.285 18.4114 60.6292 18.4114C58.6317 18.4114 57.1184 17.2694 56.6049 15.3576H67.9935V14.4728C67.9935 9.47683 64.9117 6.13699 60.4862 6.13699ZM92.8277 6.13699C91.0297 6.13699 89.4886 6.82148 88.4037 7.99274V0.400361H84.7493V21.2371H88.4037V13.2735C88.4037 11.1616 89.7459 9.70504 91.9716 9.70504C94.0557 9.70504 95.1978 10.9894 95.1978 13.2735V21.2371H98.8516V12.6171C98.8516 8.56413 96.31 6.13699 92.8277 6.13699ZM99.0223 5.1099V4.65233H99.308C99.5372 4.65233 99.6231 4.7388 99.6231 4.88168C99.6231 5.02414 99.5372 5.1099 99.308 5.1099H99.0223ZM99.7933 4.88168C99.7933 4.59635 99.5933 4.48138 99.308 4.48138H98.8515V5.79438H99.0223V5.28084H99.308L99.6231 5.79438H99.8214L99.4801 5.25292C99.6802 5.22314 99.7933 5.1099 99.7933 4.88168ZM77.071 9.67698C78.6124 9.67698 79.8688 10.4759 80.8394 11.59L83.3796 9.07767C81.9528 7.27904 79.6972 6.13699 77.129 6.13699C72.7048 6.13699 69.2214 9.50603 69.2214 13.9009C69.2214 18.297 72.7048 21.6656 77.129 21.6656C79.6972 21.6656 81.9528 20.5233 83.3796 18.7265L80.8394 16.2142C79.8973 17.2987 78.6124 18.1261 77.0431 18.1261C74.7017 18.1261 72.9032 16.2995 72.9032 13.9009C72.9032 11.503 74.7017 9.67698 77.071 9.67698ZM39.4208 21.2371H43.0753V6.59341H39.4208V21.2371ZM12.9881 18.1261C10.6469 18.1261 8.79099 16.2715 8.79099 13.873C8.79099 11.503 10.6469 9.67698 12.9881 9.67698C15.357 9.67698 17.2127 11.503 17.2127 13.9009C17.2127 16.2995 15.357 18.1261 12.9881 18.1261ZM12.9881 6.13699C8.56292 6.13699 5.08063 9.50603 5.08063 13.9009C5.08063 18.297 8.56292 21.6656 12.9881 21.6656C17.4123 21.6656 20.8945 18.297 20.8945 13.9009C20.8945 9.50603 17.4123 6.13699 12.9881 6.13699ZM0 21.2371H3.65438V0.400361H0V21.2371ZM30.0578 18.1261C27.7177 18.1261 25.862 16.2715 25.862 13.873C25.862 11.503 27.7177 9.67698 30.0578 9.67698C32.4273 9.67698 34.283 11.503 34.283 13.9009C34.283 16.2995 32.4273 18.1261 30.0578 18.1261ZM37.8225 9.50603V6.59341H32.6834C31.8565 6.30922 30.9718 6.13699 30.0578 6.13699C25.6338 6.13699 22.1516 9.50603 22.1516 13.9009C22.1516 18.297 25.6338 21.6656 30.0578 21.6656C34.482 21.6656 37.9655 18.297 37.9655 13.9009C37.9655 12.4168 37.565 10.9615 36.7662 9.87655L37.8225 9.50603ZM30.0578 26.4326C27.7177 26.4326 25.862 24.6062 25.862 22.2369H22.1516C22.1516 26.6329 25.6338 30.0001 30.0578 30.0001C34.482 30.0001 37.9655 26.6329 37.9655 22.2369H34.2538C34.2538 24.6062 32.3979 26.4326 30.0578 26.4326Z" fill="#969696"/>
</svg>
