<svg width="111" height="20" viewBox="0 0 111 20" fill="none" xmlns="http://www.w3.org/2000/svg">
<path fill-rule="evenodd" clip-rule="evenodd" d="M37.8884 0.402212H32.0306V8.03186H25.9301V0.402212H20.07V19.5992H25.9301V12.0471H32.0306V19.5992H37.8884V0.402212ZM58.2757 15.743V0.402212H52.4153V19.5992H63.0111L63.8926 15.743H58.2757ZM42.2233 19.5992H48.082V0.402212H42.2233V19.5992ZM65.9805 19.5992H71.8383V0.402212H65.9805V19.5992ZM100.731 5.30027C100.731 4.25712 101.775 3.77381 103.46 3.77381C105.306 3.77381 107.313 4.17597 108.676 4.74043L108.196 0.562545C106.671 0.241879 105.306 6.10352e-05 102.818 6.10352e-05C98.083 6.10352e-05 94.873 1.8683 94.873 5.7849C94.873 12.5294 104.025 11.1656 104.025 14.2977C104.025 15.5015 103.139 16.1425 100.971 16.1425C99.0486 16.1425 96.0755 15.5015 94.3119 14.6184L94.9545 19.0381C96.7192 19.6794 99.1265 20.0001 101.054 20.0001C105.949 20.0001 109.962 18.3931 109.962 13.5726C109.962 7.14904 100.731 8.35385 100.731 5.30027ZM84.201 15.0205C89.6553 15.0205 93.1071 12.2074 93.1071 7.30938C93.1071 1.92768 89.4161 6.10352e-05 83.3954 6.10352e-05C81.0689 6.10352e-05 78.2582 0.160394 76.2517 0.402212V19.5992H82.1134V15.0205H84.201ZM87.3269 7.38954C87.3269 9.87932 86.126 11.5661 83.0751 11.5661H82.1134V3.63558C82.4535 3.61579 82.7742 3.61579 83.0751 3.61579C85.9634 3.61579 87.3269 4.97994 87.3269 7.38954ZM8.8355 15.0205C14.2924 15.0205 17.7429 12.2074 17.7429 7.30938C17.7429 1.92768 14.0506 6.10352e-05 8.03285 6.10352e-05C5.7044 6.10352e-05 2.89528 0.160394 0.890137 0.402212V19.5992H6.74755V15.0205H8.8355ZM11.9666 7.38954C11.9666 9.87932 10.7618 11.5661 7.71219 11.5661H6.74755V3.63558C7.09065 3.61579 7.41132 3.61579 7.71219 3.61579C10.5992 3.61579 11.9666 4.97994 11.9666 7.38954Z" fill="#969696"/>
</svg>
