<svg width="16" height="16" viewBox="0 0 16 16" fill="none" xmlns="http://www.w3.org/2000/svg">
<path fill-rule="evenodd" clip-rule="evenodd" d="M11 0.509033C13.4853 0.509033 15.5 2.52375 15.5 5.00903V11.009C15.5 13.4943 13.4853 15.509 11 15.509H5C2.51472 15.509 0.5 13.4943 0.5 11.009V5.00903C0.5 2.52375 2.51472 0.509033 5 0.509033L11 0.509033ZM10.25 2.75903H5.75C4.14335 2.75903 2.83169 4.02201 2.75367 5.6093L2.75 5.75903V10.259C2.75 11.8657 4.01298 13.1773 5.60027 13.2554L5.75 13.259H10.25C11.8566 13.259 13.1683 11.9961 13.2463 10.4088L13.25 10.259V5.75903C13.25 4.15239 11.987 2.84072 10.3997 2.7627L10.25 2.75903Z" fill="white"/>
</svg>
