<svg width="24" height="25" viewBox="0 0 24 25" fill="none" xmlns="http://www.w3.org/2000/svg">
<path fill-rule="evenodd" clip-rule="evenodd" d="M22 6.48696C21.2642 6.81369 20.4733 7.03374 19.6433 7.13293C20.4908 6.62532 21.1417 5.82098 21.4475 4.86244C20.655 5.33254 19.7767 5.67428 18.8417 5.85849C18.0942 5.06082 17.0267 4.56238 15.8467 4.56238C13.1975 4.56238 11.2508 7.03457 11.8492 9.60095C8.44 9.43008 5.41667 7.7964 3.3925 5.31337C2.3175 7.15793 2.835 9.57095 4.66167 10.7929C3.99 10.7712 3.35667 10.587 2.80417 10.2794C2.75917 12.1807 4.12167 13.9594 6.095 14.3553C5.5175 14.512 4.885 14.5487 4.24167 14.4253C4.76333 16.0557 6.27833 17.2418 8.075 17.2751C6.35 18.6279 4.17667 19.2322 2 18.9755C3.81583 20.1399 5.97333 20.8192 8.29 20.8192C15.9083 20.8192 20.2125 14.3836 19.9525 8.61158C20.7542 8.03229 21.45 7.30963 22 6.48696Z" fill="#969696"/>
</svg>
