<svg width="80" height="81" viewBox="0 0 80 81" fill="none" xmlns="http://www.w3.org/2000/svg">
<path fill-rule="evenodd" clip-rule="evenodd" d="M40 80.5442C62.0914 80.5442 80 62.6319 80 40.536C80 18.4401 62.0914 0.527832 40 0.527832C17.9086 0.527832 0 18.4401 0 40.536C0 62.6319 17.9086 80.5442 40 80.5442Z" fill="#DBDBDB"/>
<path fill-rule="evenodd" clip-rule="evenodd" d="M40 21.8656C44.4267 21.8656 48 25.4397 48 29.8672C48 34.2948 44.4267 37.8689 40 37.8689C35.5733 37.8689 32 34.2948 32 29.8672C32 25.4397 35.5733 21.8656 40 21.8656ZM40 59.74C33.3333 59.74 27.44 56.326 24 51.1516C24.08 45.8438 34.6667 42.9366 40 42.9366C45.3067 42.9366 55.92 45.8438 56 51.1516C52.56 56.326 46.6667 59.74 40 59.74Z" fill="#969696"/>
</svg>
